<?xml version="1.0" encoding="UTF-8" standalone="no"?><svg xmlns="http://www.w3.org/2000/svg" xmlns:xlink="http://www.w3.org/1999/xlink" contentScriptType="application/ecmascript" contentStyleType="text/css" height="434px" preserveAspectRatio="none" style="width:462px;height:434px;" version="1.1" viewBox="0 0 462 434" width="462px" zoomAndPan="magnify"><defs/><g><!--class AdminConnection--><rect fill="#F8FAFA" height="424.875" rx="1" ry="1" style="stroke: #E3ECEC; stroke-width: 1.5;" width="455" x="6" y="8.5"/><ellipse cx="159.25" cy="24.5" fill="#FFFFFF" rx="11" ry="11" style="stroke: #E3ECEC; stroke-width: 1.0;"/><path d="M161.6953,30.1641 Q161.1484,30.4453 160.5469,30.5859 Q159.9453,30.7266 159.2813,30.7266 Q156.9219,30.7266 155.6797,29.1719 Q154.4375,27.6172 154.4375,24.6797 Q154.4375,21.7344 155.6797,20.1797 Q156.9219,18.625 159.2813,18.625 Q159.9453,18.625 160.5547,18.7656 Q161.1641,18.9063 161.6953,19.1875 L161.6953,21.75 Q161.1016,21.2031 160.543,20.9492 Q159.9844,20.6953 159.3906,20.6953 Q158.125,20.6953 157.4805,21.6992 Q156.8359,22.7031 156.8359,24.6797 Q156.8359,26.6484 157.4805,27.6523 Q158.125,28.6563 159.3906,28.6563 Q159.9844,28.6563 160.543,28.4023 Q161.1016,28.1484 161.6953,27.6016 Z "/><text fill="#19273C" font-family="sans-serif" font-size="16" lengthAdjust="spacingAndGlyphs" textLength="140" x="179.75" y="30.5469">AdminConnection</text><line style="stroke: #E3ECEC; stroke-width: 1.5;" x1="7" x2="460" y1="40.5" y2="40.5"/><line style="stroke: #E3ECEC; stroke-width: 1.5;" x1="7" x2="460" y1="48.5" y2="48.5"/><ellipse cx="17" cy="62.9219" fill="#84BE84" rx="3" ry="3" style="stroke: #038048; stroke-width: 1.0;"/><text fill="#19273C" font-family="sans-serif" font-size="16" lengthAdjust="spacingAndGlyphs" textLength="429" x="26" y="67.9688">void constructor(Object,ConnectionProfileStore,Object)</text><ellipse cx="17" cy="81.7656" fill="#84BE84" rx="3" ry="3" style="stroke: #038048; stroke-width: 1.0;"/><text fill="#19273C" font-family="sans-serif" font-size="16" lengthAdjust="spacingAndGlyphs" textLength="338" x="26" y="86.8125">Promise connect(string,string,string,string)</text><ellipse cx="17" cy="100.6094" fill="#84BE84" rx="3" ry="3" style="stroke: #038048; stroke-width: 1.0;"/><text fill="#19273C" font-family="sans-serif" font-size="16" lengthAdjust="spacingAndGlyphs" textLength="278" x="26" y="105.6563">Promise createProfile(string,Object)</text><ellipse cx="17" cy="119.4531" fill="#84BE84" rx="3" ry="3" style="stroke: #038048; stroke-width: 1.0;"/><text fill="#19273C" font-family="sans-serif" font-size="16" lengthAdjust="spacingAndGlyphs" textLength="223" x="26" y="124.5">Promise deleteProfile(string)</text><ellipse cx="17" cy="138.2969" fill="#84BE84" rx="3" ry="3" style="stroke: #038048; stroke-width: 1.0;"/><text fill="#19273C" font-family="sans-serif" font-size="16" lengthAdjust="spacingAndGlyphs" textLength="200" x="26" y="143.3438">Promise getProfile(string)</text><ellipse cx="17" cy="157.1406" fill="#84BE84" rx="3" ry="3" style="stroke: #038048; stroke-width: 1.0;"/><text fill="#19273C" font-family="sans-serif" font-size="16" lengthAdjust="spacingAndGlyphs" textLength="183" x="26" y="162.1875">Promise getAllProfiles()</text><ellipse cx="17" cy="175.9844" fill="#84BE84" rx="3" ry="3" style="stroke: #038048; stroke-width: 1.0;"/><text fill="#19273C" font-family="sans-serif" font-size="16" lengthAdjust="spacingAndGlyphs" textLength="162" x="26" y="181.0313">Promise disconnect()</text><ellipse cx="17" cy="194.8281" fill="#84BE84" rx="3" ry="3" style="stroke: #038048; stroke-width: 1.0;"/><text fill="#19273C" font-family="sans-serif" font-size="16" lengthAdjust="spacingAndGlyphs" textLength="385" x="26" y="199.875">Promise install(BusinessNetworkIdentifier,Object)</text><ellipse cx="17" cy="213.6719" fill="#84BE84" rx="3" ry="3" style="stroke: #038048; stroke-width: 1.0;"/><text fill="#19273C" font-family="sans-serif" font-size="16" lengthAdjust="spacingAndGlyphs" textLength="379" x="26" y="218.7188">Promise start(BusinessNetworkDefinition,Object)</text><ellipse cx="17" cy="232.5156" fill="#84BE84" rx="3" ry="3" style="stroke: #038048; stroke-width: 1.0;"/><text fill="#19273C" font-family="sans-serif" font-size="16" lengthAdjust="spacingAndGlyphs" textLength="395" x="26" y="237.5625">Promise deploy(BusinessNetworkDefinition,Object)</text><ellipse cx="17" cy="251.3594" fill="#84BE84" rx="3" ry="3" style="stroke: #038048; stroke-width: 1.0;"/><text fill="#19273C" font-family="sans-serif" font-size="16" lengthAdjust="spacingAndGlyphs" textLength="196" x="26" y="256.4063">Promise undeploy(string)</text><ellipse cx="17" cy="270.2031" fill="#84BE84" rx="3" ry="3" style="stroke: #038048; stroke-width: 1.0;"/><text fill="#19273C" font-family="sans-serif" font-size="16" lengthAdjust="spacingAndGlyphs" textLength="342" x="26" y="275.25">Promise update(BusinessNetworkDefinition)</text><ellipse cx="17" cy="289.0469" fill="#84BE84" rx="3" ry="3" style="stroke: #038048; stroke-width: 1.0;"/><text fill="#19273C" font-family="sans-serif" font-size="16" lengthAdjust="spacingAndGlyphs" textLength="143" x="26" y="294.0938">Promise upgrade()</text><ellipse cx="17" cy="307.8906" fill="#84BE84" rx="3" ry="3" style="stroke: #038048; stroke-width: 1.0;"/><text fill="#19273C" font-family="sans-serif" font-size="16" lengthAdjust="spacingAndGlyphs" textLength="113" x="26" y="312.9375">Promise ping()</text><ellipse cx="17" cy="326.7344" fill="#84BE84" rx="3" ry="3" style="stroke: #038048; stroke-width: 1.0;"/><text fill="#19273C" font-family="sans-serif" font-size="16" lengthAdjust="spacingAndGlyphs" textLength="197" x="26" y="331.7813">Promise setLogLevel(any)</text><ellipse cx="17" cy="345.5781" fill="#84BE84" rx="3" ry="3" style="stroke: #038048; stroke-width: 1.0;"/><text fill="#19273C" font-family="sans-serif" font-size="16" lengthAdjust="spacingAndGlyphs" textLength="172" x="26" y="350.625">Promise getLogLevel()</text><ellipse cx="17" cy="364.4219" fill="#84BE84" rx="3" ry="3" style="stroke: #038048; stroke-width: 1.0;"/><text fill="#19273C" font-family="sans-serif" font-size="16" lengthAdjust="spacingAndGlyphs" textLength="102" x="26" y="369.4688">Promise list()</text><ellipse cx="17" cy="383.2656" fill="#84BE84" rx="3" ry="3" style="stroke: #038048; stroke-width: 1.0;"/><text fill="#19273C" font-family="sans-serif" font-size="16" lengthAdjust="spacingAndGlyphs" textLength="389" x="26" y="388.3125">Promise importIdentity(string,string,string,string)</text><ellipse cx="17" cy="402.1094" fill="#84BE84" rx="3" ry="3" style="stroke: #038048; stroke-width: 1.0;"/><text fill="#19273C" font-family="sans-serif" font-size="16" lengthAdjust="spacingAndGlyphs" textLength="344" x="26" y="407.1563">Promise requestIdentity(string,string,string)</text><ellipse cx="17" cy="420.9531" fill="#84BE84" rx="3" ry="3" style="stroke: #038048; stroke-width: 1.0;"/><text fill="#19273C" font-family="sans-serif" font-size="16" lengthAdjust="spacingAndGlyphs" textLength="288" x="26" y="426">Promise exportIdentity(String,String)</text></g></svg>