<?xml version="1.0" encoding="UTF-8" standalone="no"?><svg xmlns="http://www.w3.org/2000/svg" xmlns:xlink="http://www.w3.org/1999/xlink" contentScriptType="application/ecmascript" contentStyleType="text/css" height="185px" preserveAspectRatio="none" style="width:217px;height:185px;" version="1.1" viewBox="0 0 217 185" width="217px" zoomAndPan="magnify"><defs/><g><!--class BaseException--><rect fill="#F8FAFA" height="66.8438" rx="1" ry="1" style="stroke: #E3ECEC; stroke-width: 1.5;" width="210" x="6" y="8.5"/><ellipse cx="50.75" cy="24.5" fill="#FFFFFF" rx="11" ry="11" style="stroke: #E3ECEC; stroke-width: 1.0;"/><path d="M53.1953,30.1641 Q52.6484,30.4453 52.0469,30.5859 Q51.4453,30.7266 50.7813,30.7266 Q48.4219,30.7266 47.1797,29.1719 Q45.9375,27.6172 45.9375,24.6797 Q45.9375,21.7344 47.1797,20.1797 Q48.4219,18.625 50.7813,18.625 Q51.4453,18.625 52.0547,18.7656 Q52.6641,18.9063 53.1953,19.1875 L53.1953,21.75 Q52.6016,21.2031 52.043,20.9492 Q51.4844,20.6953 50.8906,20.6953 Q49.625,20.6953 48.9805,21.6992 Q48.3359,22.7031 48.3359,24.6797 Q48.3359,26.6484 48.9805,27.6523 Q49.625,28.6563 50.8906,28.6563 Q51.4844,28.6563 52.043,28.4023 Q52.6016,28.1484 53.1953,27.6016 Z "/><text fill="#19273C" font-family="sans-serif" font-size="16" lengthAdjust="spacingAndGlyphs" textLength="112" x="71.25" y="30.5469">BaseException</text><line style="stroke: #E3ECEC; stroke-width: 1.5;" x1="7" x2="215" y1="40.5" y2="40.5"/><line style="stroke: #E3ECEC; stroke-width: 1.5;" x1="7" x2="215" y1="48.5" y2="48.5"/><ellipse cx="17" cy="62.9219" fill="#84BE84" rx="3" ry="3" style="stroke: #038048; stroke-width: 1.0;"/><text fill="#19273C" font-family="sans-serif" font-size="16" lengthAdjust="spacingAndGlyphs" textLength="184" x="26" y="67.9688">void constructor(string)</text><!--class Error--><rect fill="#F8FAFA" height="48" rx="1" ry="1" style="stroke: #E3ECEC; stroke-width: 1.5;" width="72" x="75" y="136"/><ellipse cx="90" cy="152" fill="#FFFFFF" rx="11" ry="11" style="stroke: #E3ECEC; stroke-width: 1.0;"/><path d="M92.4453,157.6641 Q91.8984,157.9453 91.2969,158.0859 Q90.6953,158.2266 90.0313,158.2266 Q87.6719,158.2266 86.4297,156.6719 Q85.1875,155.1172 85.1875,152.1797 Q85.1875,149.2344 86.4297,147.6797 Q87.6719,146.125 90.0313,146.125 Q90.6953,146.125 91.3047,146.2656 Q91.9141,146.4063 92.4453,146.6875 L92.4453,149.25 Q91.8516,148.7031 91.293,148.4492 Q90.7344,148.1953 90.1406,148.1953 Q88.875,148.1953 88.2305,149.1992 Q87.5859,150.2031 87.5859,152.1797 Q87.5859,154.1484 88.2305,155.1523 Q88.875,156.1563 90.1406,156.1563 Q90.7344,156.1563 91.293,155.9023 Q91.8516,155.6484 92.4453,155.1016 Z "/><text fill="#19273C" font-family="sans-serif" font-size="16" lengthAdjust="spacingAndGlyphs" textLength="40" x="104" y="158.0469">Error</text><line style="stroke: #E3ECEC; stroke-width: 1.5;" x1="76" x2="146" y1="168" y2="168"/><line style="stroke: #E3ECEC; stroke-width: 1.5;" x1="76" x2="146" y1="176" y2="176"/><path d="M111,75.621 C111,88.0487 111,102.4125 111,115.6795 " fill="none" style="stroke: #3C6DF0; stroke-width: 1.0;"/><polygon fill="none" points="118,115.8078,111,135.8077,104.0001,115.8077,118,115.8078" style="stroke: #3C6DF0; stroke-width: 1.0;"/></g></svg>