<?xml version="1.0" encoding="UTF-8" standalone="no"?><svg xmlns="http://www.w3.org/2000/svg" xmlns:xlink="http://www.w3.org/1999/xlink" contentScriptType="application/ecmascript" contentStyleType="text/css" height="351px" preserveAspectRatio="none" style="width:319px;height:351px;" version="1.1" viewBox="0 0 319 351" width="319px" zoomAndPan="magnify"><defs/><g><!--class BaseException--><rect fill="#F8FAFA" height="66.8438" rx="1" ry="1" style="stroke: #E3ECEC; stroke-width: 1.5;" width="210" x="57" y="174.5"/><ellipse cx="101.75" cy="190.5" fill="#FFFFFF" rx="11" ry="11" style="stroke: #E3ECEC; stroke-width: 1.0;"/><path d="M104.1953,196.1641 Q103.6484,196.4453 103.0469,196.5859 Q102.4453,196.7266 101.7813,196.7266 Q99.4219,196.7266 98.1797,195.1719 Q96.9375,193.6172 96.9375,190.6797 Q96.9375,187.7344 98.1797,186.1797 Q99.4219,184.625 101.7813,184.625 Q102.4453,184.625 103.0547,184.7656 Q103.6641,184.9063 104.1953,185.1875 L104.1953,187.75 Q103.6016,187.2031 103.043,186.9492 Q102.4844,186.6953 101.8906,186.6953 Q100.625,186.6953 99.9805,187.6992 Q99.3359,188.7031 99.3359,190.6797 Q99.3359,192.6484 99.9805,193.6523 Q100.625,194.6563 101.8906,194.6563 Q102.4844,194.6563 103.043,194.4023 Q103.6016,194.1484 104.1953,193.6016 Z "/><text fill="#19273C" font-family="sans-serif" font-size="16" lengthAdjust="spacingAndGlyphs" textLength="112" x="122.25" y="196.5469">BaseException</text><line style="stroke: #E3ECEC; stroke-width: 1.5;" x1="58" x2="266" y1="206.5" y2="206.5"/><line style="stroke: #E3ECEC; stroke-width: 1.5;" x1="58" x2="266" y1="214.5" y2="214.5"/><ellipse cx="68" cy="228.9219" fill="#84BE84" rx="3" ry="3" style="stroke: #038048; stroke-width: 1.0;"/><text fill="#19273C" font-family="sans-serif" font-size="16" lengthAdjust="spacingAndGlyphs" textLength="184" x="77" y="233.9688">void constructor(string)</text><!--class Error--><rect fill="#F8FAFA" height="48" rx="1" ry="1" style="stroke: #E3ECEC; stroke-width: 1.5;" width="72" x="126" y="302"/><ellipse cx="141" cy="318" fill="#FFFFFF" rx="11" ry="11" style="stroke: #E3ECEC; stroke-width: 1.0;"/><path d="M143.4453,323.6641 Q142.8984,323.9453 142.2969,324.0859 Q141.6953,324.2266 141.0313,324.2266 Q138.6719,324.2266 137.4297,322.6719 Q136.1875,321.1172 136.1875,318.1797 Q136.1875,315.2344 137.4297,313.6797 Q138.6719,312.125 141.0313,312.125 Q141.6953,312.125 142.3047,312.2656 Q142.9141,312.4063 143.4453,312.6875 L143.4453,315.25 Q142.8516,314.7031 142.293,314.4492 Q141.7344,314.1953 141.1406,314.1953 Q139.875,314.1953 139.2305,315.1992 Q138.5859,316.2031 138.5859,318.1797 Q138.5859,320.1484 139.2305,321.1523 Q139.875,322.1563 141.1406,322.1563 Q141.7344,322.1563 142.293,321.9023 Q142.8516,321.6484 143.4453,321.1016 Z "/><text fill="#19273C" font-family="sans-serif" font-size="16" lengthAdjust="spacingAndGlyphs" textLength="40" x="155" y="324.0469">Error</text><line style="stroke: #E3ECEC; stroke-width: 1.5;" x1="127" x2="197" y1="334" y2="334"/><line style="stroke: #E3ECEC; stroke-width: 1.5;" x1="127" x2="197" y1="342" y2="342"/><!--class BaseFileException--><rect fill="#F8FAFA" height="104.5313" rx="1" ry="1" style="stroke: #E3ECEC; stroke-width: 1.5;" width="312" x="6" y="8.5"/><ellipse cx="87.75" cy="24.5" fill="#FFFFFF" rx="11" ry="11" style="stroke: #E3ECEC; stroke-width: 1.0;"/><path d="M90.1953,30.1641 Q89.6484,30.4453 89.0469,30.5859 Q88.4453,30.7266 87.7813,30.7266 Q85.4219,30.7266 84.1797,29.1719 Q82.9375,27.6172 82.9375,24.6797 Q82.9375,21.7344 84.1797,20.1797 Q85.4219,18.625 87.7813,18.625 Q88.4453,18.625 89.0547,18.7656 Q89.6641,18.9063 90.1953,19.1875 L90.1953,21.75 Q89.6016,21.2031 89.043,20.9492 Q88.4844,20.6953 87.8906,20.6953 Q86.625,20.6953 85.9805,21.6992 Q85.3359,22.7031 85.3359,24.6797 Q85.3359,26.6484 85.9805,27.6523 Q86.625,28.6563 87.8906,28.6563 Q88.4844,28.6563 89.043,28.4023 Q89.6016,28.1484 90.1953,27.6016 Z "/><text fill="#19273C" font-family="sans-serif" font-size="16" lengthAdjust="spacingAndGlyphs" textLength="140" x="108.25" y="30.5469">BaseFileException</text><line style="stroke: #E3ECEC; stroke-width: 1.5;" x1="7" x2="317" y1="40.5" y2="40.5"/><line style="stroke: #E3ECEC; stroke-width: 1.5;" x1="7" x2="317" y1="48.5" y2="48.5"/><ellipse cx="17" cy="62.9219" fill="#84BE84" rx="3" ry="3" style="stroke: #038048; stroke-width: 1.0;"/><text fill="#19273C" font-family="sans-serif" font-size="16" lengthAdjust="spacingAndGlyphs" textLength="286" x="26" y="67.9688">void constructor(string,string,string)</text><ellipse cx="17" cy="81.7656" fill="#84BE84" rx="3" ry="3" style="stroke: #038048; stroke-width: 1.0;"/><text fill="#19273C" font-family="sans-serif" font-size="16" lengthAdjust="spacingAndGlyphs" textLength="181" x="26" y="86.8125">string getFileLocation()</text><ellipse cx="17" cy="100.6094" fill="#84BE84" rx="3" ry="3" style="stroke: #038048; stroke-width: 1.0;"/><text fill="#19273C" font-family="sans-serif" font-size="16" lengthAdjust="spacingAndGlyphs" textLength="195" x="26" y="105.6563">string getShortMessage()</text><path d="M162,241.621 C162,254.0487 162,268.4125 162,281.6795 " fill="none" style="stroke: #3C6DF0; stroke-width: 1.0;"/><polygon fill="none" points="169,281.8078,162,301.8077,155,281.8077,169,281.8078" style="stroke: #3C6DF0; stroke-width: 1.0;"/><path d="M162,113.53 C162,126.62 162,140.708 162,153.876 " fill="none" style="stroke: #3C6DF0; stroke-width: 1.0;"/><polygon fill="none" points="169,154.177,162,174.177,155,154.176,169,154.177" style="stroke: #3C6DF0; stroke-width: 1.0;"/></g></svg>