<?xml version="1.0" encoding="UTF-8" standalone="no"?><svg xmlns="http://www.w3.org/2000/svg" xmlns:xlink="http://www.w3.org/1999/xlink" contentScriptType="application/ecmascript" contentStyleType="text/css" height="938px" preserveAspectRatio="none" style="width:3511px;height:938px;" version="1.1" viewBox="0 0 3511 938" width="3511px" zoomAndPan="magnify"><defs/><g><!--class Registry--><rect fill="#F8FAFA" height="349.5" rx="1" ry="1" style="stroke: #E3ECEC; stroke-width: 1.5;" width="929" x="1025.75" y="588"/><ellipse cx="1454.5" cy="604" fill="#FFFFFF" rx="11" ry="11" style="stroke: #E3ECEC; stroke-width: 1.0;"/><path d="M1456.9453,609.6641 Q1456.3984,609.9453 1455.7969,610.0859 Q1455.1953,610.2266 1454.5313,610.2266 Q1452.1719,610.2266 1450.9297,608.6719 Q1449.6875,607.1172 1449.6875,604.1797 Q1449.6875,601.2344 1450.9297,599.6797 Q1452.1719,598.125 1454.5313,598.125 Q1455.1953,598.125 1455.8047,598.2656 Q1456.4141,598.4063 1456.9453,598.6875 L1456.9453,601.25 Q1456.3516,600.7031 1455.793,600.4492 Q1455.2344,600.1953 1454.6406,600.1953 Q1453.375,600.1953 1452.7305,601.1992 Q1452.0859,602.2031 1452.0859,604.1797 Q1452.0859,606.1484 1452.7305,607.1523 Q1453.375,608.1563 1454.6406,608.1563 Q1455.2344,608.1563 1455.793,607.9023 Q1456.3516,607.6484 1456.9453,607.1016 Z "/><text fill="#19273C" font-family="sans-serif" font-size="16" lengthAdjust="spacingAndGlyphs" textLength="63" x="1475" y="610.0469">Registry</text><line style="stroke: #E3ECEC; stroke-width: 1.5;" x1="1026.75" x2="1953.75" y1="620" y2="620"/><line style="stroke: #E3ECEC; stroke-width: 1.5;" x1="1026.75" x2="1953.75" y1="628" y2="628"/><ellipse cx="1036.75" cy="642.4219" fill="#84BE84" rx="3" ry="3" style="stroke: #038048; stroke-width: 1.0;"/><text fill="#19273C" font-family="sans-serif" font-size="16" lengthAdjust="spacingAndGlyphs" textLength="444" x="1045.75" y="647.4688">Promise getAllRegistries(SecurityContext,string,boolean)</text><ellipse cx="1036.75" cy="661.2656" fill="#84BE84" rx="3" ry="3" style="stroke: #038048; stroke-width: 1.0;"/><text fill="#19273C" font-family="sans-serif" font-size="16" lengthAdjust="spacingAndGlyphs" textLength="392" x="1045.75" y="666.3125">Promise getRegistry(SecurityContext,string,string)</text><ellipse cx="1036.75" cy="680.1094" fill="#84BE84" rx="3" ry="3" style="stroke: #038048; stroke-width: 1.0;"/><text fill="#19273C" font-family="sans-serif" font-size="16" lengthAdjust="spacingAndGlyphs" textLength="413" x="1045.75" y="685.1563">Promise existsRegistry(SecurityContext,string,string)</text><ellipse cx="1036.75" cy="698.9531" fill="#84BE84" rx="3" ry="3" style="stroke: #038048; stroke-width: 1.0;"/><text fill="#19273C" font-family="sans-serif" font-size="16" lengthAdjust="spacingAndGlyphs" textLength="447" x="1045.75" y="704">Promise addRegistry(SecurityContext,string,string,string)</text><ellipse cx="1036.75" cy="717.7969" fill="#84BE84" rx="3" ry="3" style="stroke: #038048; stroke-width: 1.0;"/><text fill="#19273C" font-family="sans-serif" font-size="16" lengthAdjust="spacingAndGlyphs" textLength="903" x="1045.75" y="722.8438">void constructor(string,string,string,SecurityContext,ModelManager,Factory,Serializer,BusinessNetworkConnection)</text><ellipse cx="1036.75" cy="736.6406" fill="#84BE84" rx="3" ry="3" style="stroke: #038048; stroke-width: 1.0;"/><text fill="#19273C" font-family="sans-serif" font-size="16" lengthAdjust="spacingAndGlyphs" textLength="209" x="1045.75" y="741.6875">Promise addAll(Resource[])</text><ellipse cx="1036.75" cy="755.4844" fill="#84BE84" rx="3" ry="3" style="stroke: #038048; stroke-width: 1.0;"/><text fill="#19273C" font-family="sans-serif" font-size="16" lengthAdjust="spacingAndGlyphs" textLength="178" x="1045.75" y="760.5313">Promise add(Resource)</text><ellipse cx="1036.75" cy="774.3281" fill="#84BE84" rx="3" ry="3" style="stroke: #038048; stroke-width: 1.0;"/><text fill="#19273C" font-family="sans-serif" font-size="16" lengthAdjust="spacingAndGlyphs" textLength="234" x="1045.75" y="779.375">Promise updateAll(Resource[])</text><ellipse cx="1036.75" cy="793.1719" fill="#84BE84" rx="3" ry="3" style="stroke: #038048; stroke-width: 1.0;"/><text fill="#19273C" font-family="sans-serif" font-size="16" lengthAdjust="spacingAndGlyphs" textLength="203" x="1045.75" y="798.2188">Promise update(Resource)</text><ellipse cx="1036.75" cy="812.0156" fill="#84BE84" rx="3" ry="3" style="stroke: #038048; stroke-width: 1.0;"/><text fill="#19273C" font-family="sans-serif" font-size="16" lengthAdjust="spacingAndGlyphs" textLength="157" x="1045.75" y="817.0625">Promise removeAll()</text><ellipse cx="1036.75" cy="830.8594" fill="#84BE84" rx="3" ry="3" style="stroke: #038048; stroke-width: 1.0;"/><text fill="#19273C" font-family="sans-serif" font-size="16" lengthAdjust="spacingAndGlyphs" textLength="136" x="1045.75" y="835.9063">Promise remove()</text><ellipse cx="1036.75" cy="849.7031" fill="#84BE84" rx="3" ry="3" style="stroke: #038048; stroke-width: 1.0;"/><text fill="#19273C" font-family="sans-serif" font-size="16" lengthAdjust="spacingAndGlyphs" textLength="124" x="1045.75" y="854.75">Promise getAll()</text><ellipse cx="1036.75" cy="868.5469" fill="#84BE84" rx="3" ry="3" style="stroke: #038048; stroke-width: 1.0;"/><text fill="#19273C" font-family="sans-serif" font-size="16" lengthAdjust="spacingAndGlyphs" textLength="149" x="1045.75" y="873.5938">Promise get(string)</text><ellipse cx="1036.75" cy="887.3906" fill="#84BE84" rx="3" ry="3" style="stroke: #038048; stroke-width: 1.0;"/><text fill="#19273C" font-family="sans-serif" font-size="16" lengthAdjust="spacingAndGlyphs" textLength="170" x="1045.75" y="892.4375">Promise exists(string)</text><ellipse cx="1036.75" cy="906.2344" fill="#84BE84" rx="3" ry="3" style="stroke: #038048; stroke-width: 1.0;"/><text fill="#19273C" font-family="sans-serif" font-size="16" lengthAdjust="spacingAndGlyphs" textLength="155" x="1045.75" y="911.2813">Promise resolveAll()</text><ellipse cx="1036.75" cy="925.0781" fill="#84BE84" rx="3" ry="3" style="stroke: #038048; stroke-width: 1.0;"/><text fill="#19273C" font-family="sans-serif" font-size="16" lengthAdjust="spacingAndGlyphs" textLength="180" x="1045.75" y="930.125">Promise resolve(string)</text><!--class AssetRegistry--><rect fill="#F8FAFA" height="142.2188" rx="1" ry="1" style="stroke: #E3ECEC; stroke-width: 1.5;" width="952" x="6" y="197"/><ellipse cx="425.25" cy="213" fill="#FFFFFF" rx="11" ry="11" style="stroke: #E3ECEC; stroke-width: 1.0;"/><path d="M427.6953,218.6641 Q427.1484,218.9453 426.5469,219.0859 Q425.9453,219.2266 425.2813,219.2266 Q422.9219,219.2266 421.6797,217.6719 Q420.4375,216.1172 420.4375,213.1797 Q420.4375,210.2344 421.6797,208.6797 Q422.9219,207.125 425.2813,207.125 Q425.9453,207.125 426.5547,207.2656 Q427.1641,207.4063 427.6953,207.6875 L427.6953,210.25 Q427.1016,209.7031 426.543,209.4492 Q425.9844,209.1953 425.3906,209.1953 Q424.125,209.1953 423.4805,210.1992 Q422.8359,211.2031 422.8359,213.1797 Q422.8359,215.1484 423.4805,216.1523 Q424.125,217.1563 425.3906,217.1563 Q425.9844,217.1563 426.543,216.9023 Q427.1016,216.6484 427.6953,216.1016 Z "/><text fill="#19273C" font-family="sans-serif" font-size="16" lengthAdjust="spacingAndGlyphs" textLength="105" x="445.75" y="219.0469">AssetRegistry</text><line style="stroke: #E3ECEC; stroke-width: 1.5;" x1="7" x2="957" y1="229" y2="229"/><line style="stroke: #E3ECEC; stroke-width: 1.5;" x1="7" x2="957" y1="237" y2="237"/><ellipse cx="17" cy="251.4219" fill="#84BE84" rx="3" ry="3" style="stroke: #038048; stroke-width: 1.0;"/><text fill="#19273C" font-family="sans-serif" font-size="16" lengthAdjust="spacingAndGlyphs" textLength="922" x="26" y="256.4688">Promise getAllAssetRegistries(SecurityContext,ModelManager,Factory,Serializer,BusinessNetworkConnection,Boolean)</text><ellipse cx="17" cy="270.2656" fill="#84BE84" rx="3" ry="3" style="stroke: #038048; stroke-width: 1.0;"/><text fill="#19273C" font-family="sans-serif" font-size="16" lengthAdjust="spacingAndGlyphs" textLength="871" x="26" y="275.3125">Promise getAssetRegistry(SecurityContext,string,ModelManager,Factory,Serializer,BusinessNetworkConnection)</text><ellipse cx="17" cy="289.1094" fill="#84BE84" rx="3" ry="3" style="stroke: #038048; stroke-width: 1.0;"/><text fill="#19273C" font-family="sans-serif" font-size="16" lengthAdjust="spacingAndGlyphs" textLength="664" x="26" y="294.1563">Promise assetRegistryExists(SecurityContext,string,ModelManager,Factory,Serializer)</text><ellipse cx="17" cy="307.9531" fill="#84BE84" rx="3" ry="3" style="stroke: #038048; stroke-width: 1.0;"/><text fill="#19273C" font-family="sans-serif" font-size="16" lengthAdjust="spacingAndGlyphs" textLength="926" x="26" y="313">Promise addAssetRegistry(SecurityContext,string,string,ModelManager,Factory,Serializer,BusinessNetworkConnection)</text><ellipse cx="17" cy="326.7969" fill="#84BE84" rx="3" ry="3" style="stroke: #038048; stroke-width: 1.0;"/><text fill="#19273C" font-family="sans-serif" font-size="16" lengthAdjust="spacingAndGlyphs" textLength="852" x="26" y="331.8438">void constructor(string,string,SecurityContext,ModelManager,Factory,Serializer,BusinessNetworkConnection)</text><!--class ParticipantRegistry--><rect fill="#F8FAFA" height="142.2188" rx="1" ry="1" style="stroke: #E3ECEC; stroke-width: 1.5;" width="994" x="993" y="197"/><ellipse cx="1412.25" cy="213" fill="#FFFFFF" rx="11" ry="11" style="stroke: #E3ECEC; stroke-width: 1.0;"/><path d="M1414.6953,218.6641 Q1414.1484,218.9453 1413.5469,219.0859 Q1412.9453,219.2266 1412.2813,219.2266 Q1409.9219,219.2266 1408.6797,217.6719 Q1407.4375,216.1172 1407.4375,213.1797 Q1407.4375,210.2344 1408.6797,208.6797 Q1409.9219,207.125 1412.2813,207.125 Q1412.9453,207.125 1413.5547,207.2656 Q1414.1641,207.4063 1414.6953,207.6875 L1414.6953,210.25 Q1414.1016,209.7031 1413.543,209.4492 Q1412.9844,209.1953 1412.3906,209.1953 Q1411.125,209.1953 1410.4805,210.1992 Q1409.8359,211.2031 1409.8359,213.1797 Q1409.8359,215.1484 1410.4805,216.1523 Q1411.125,217.1563 1412.3906,217.1563 Q1412.9844,217.1563 1413.543,216.9023 Q1414.1016,216.6484 1414.6953,216.1016 Z "/><text fill="#19273C" font-family="sans-serif" font-size="16" lengthAdjust="spacingAndGlyphs" textLength="147" x="1432.75" y="219.0469">ParticipantRegistry</text><line style="stroke: #E3ECEC; stroke-width: 1.5;" x1="994" x2="1986" y1="229" y2="229"/><line style="stroke: #E3ECEC; stroke-width: 1.5;" x1="994" x2="1986" y1="237" y2="237"/><ellipse cx="1004" cy="251.4219" fill="#84BE84" rx="3" ry="3" style="stroke: #038048; stroke-width: 1.0;"/><text fill="#19273C" font-family="sans-serif" font-size="16" lengthAdjust="spacingAndGlyphs" textLength="964" x="1013" y="256.4688">Promise getAllParticipantRegistries(SecurityContext,ModelManager,Factory,Serializer,BusinessNetworkConnection,Boolean)</text><ellipse cx="1004" cy="270.2656" fill="#84BE84" rx="3" ry="3" style="stroke: #038048; stroke-width: 1.0;"/><text fill="#19273C" font-family="sans-serif" font-size="16" lengthAdjust="spacingAndGlyphs" textLength="913" x="1013" y="275.3125">Promise getParticipantRegistry(SecurityContext,string,ModelManager,Factory,Serializer,BusinessNetworkConnection)</text><ellipse cx="1004" cy="289.1094" fill="#84BE84" rx="3" ry="3" style="stroke: #038048; stroke-width: 1.0;"/><text fill="#19273C" font-family="sans-serif" font-size="16" lengthAdjust="spacingAndGlyphs" textLength="935" x="1013" y="294.1563">Promise participantRegistryExists(SecurityContext,string,ModelManager,Factory,Serializer,BusinessNetworkConnection)</text><ellipse cx="1004" cy="307.9531" fill="#84BE84" rx="3" ry="3" style="stroke: #038048; stroke-width: 1.0;"/><text fill="#19273C" font-family="sans-serif" font-size="16" lengthAdjust="spacingAndGlyphs" textLength="968" x="1013" y="313">Promise addParticipantRegistry(SecurityContext,string,string,ModelManager,Factory,Serializer,BusinessNetworkConnection)</text><ellipse cx="1004" cy="326.7969" fill="#84BE84" rx="3" ry="3" style="stroke: #038048; stroke-width: 1.0;"/><text fill="#19273C" font-family="sans-serif" font-size="16" lengthAdjust="spacingAndGlyphs" textLength="852" x="1013" y="331.8438">void constructor(string,string,SecurityContext,ModelManager,Factory,Serializer,BusinessNetworkConnection)</text><!--class TransactionRegistry--><rect fill="#F8FAFA" height="123.375" rx="1" ry="1" style="stroke: #E3ECEC; stroke-width: 1.5;" width="998" x="2022" y="206.5"/><ellipse cx="2439.25" cy="222.5" fill="#FFFFFF" rx="11" ry="11" style="stroke: #E3ECEC; stroke-width: 1.0;"/><path d="M2441.6953,228.1641 Q2441.1484,228.4453 2440.5469,228.5859 Q2439.9453,228.7266 2439.2813,228.7266 Q2436.9219,228.7266 2435.6797,227.1719 Q2434.4375,225.6172 2434.4375,222.6797 Q2434.4375,219.7344 2435.6797,218.1797 Q2436.9219,216.625 2439.2813,216.625 Q2439.9453,216.625 2440.5547,216.7656 Q2441.1641,216.9063 2441.6953,217.1875 L2441.6953,219.75 Q2441.1016,219.2031 2440.543,218.9492 Q2439.9844,218.6953 2439.3906,218.6953 Q2438.125,218.6953 2437.4805,219.6992 Q2436.8359,220.7031 2436.8359,222.6797 Q2436.8359,224.6484 2437.4805,225.6523 Q2438.125,226.6563 2439.3906,226.6563 Q2439.9844,226.6563 2440.543,226.4023 Q2441.1016,226.1484 2441.6953,225.6016 Z "/><text fill="#19273C" font-family="sans-serif" font-size="16" lengthAdjust="spacingAndGlyphs" textLength="155" x="2459.75" y="228.5469">TransactionRegistry</text><line style="stroke: #E3ECEC; stroke-width: 1.5;" x1="2023" x2="3019" y1="238.5" y2="238.5"/><line style="stroke: #E3ECEC; stroke-width: 1.5;" x1="2023" x2="3019" y1="246.5" y2="246.5"/><ellipse cx="2033" cy="260.9219" fill="#84BE84" rx="3" ry="3" style="stroke: #038048; stroke-width: 1.0;"/><text fill="#19273C" font-family="sans-serif" font-size="16" lengthAdjust="spacingAndGlyphs" textLength="972" x="2042" y="265.9688">Promise getAllTransactionRegistries(SecurityContext,ModelManager,Factory,Serializer,BusinessNetworkConnection,Boolean)</text><ellipse cx="2033" cy="279.7656" fill="#84BE84" rx="3" ry="3" style="stroke: #038048; stroke-width: 1.0;"/><text fill="#19273C" font-family="sans-serif" font-size="16" lengthAdjust="spacingAndGlyphs" textLength="695" x="2042" y="284.8125">Promise getTransactionRegistry(SecurityContext,string,ModelManager,Factory,Serializer)</text><ellipse cx="2033" cy="298.6094" fill="#84BE84" rx="3" ry="3" style="stroke: #038048; stroke-width: 1.0;"/><text fill="#19273C" font-family="sans-serif" font-size="16" lengthAdjust="spacingAndGlyphs" textLength="750" x="2042" y="303.6563">Promise addTransactionRegistry(SecurityContext,string,string,ModelManager,Factory,Serializer)</text><ellipse cx="2033" cy="317.4531" fill="#84BE84" rx="3" ry="3" style="stroke: #038048; stroke-width: 1.0;"/><text fill="#19273C" font-family="sans-serif" font-size="16" lengthAdjust="spacingAndGlyphs" textLength="712" x="2042" y="322.5">Promise transactionRegistryExists(SecurityContext,string,ModelManager,Factory,Serializer)</text><!--class BusinessNetworkConnection--><rect fill="#F8FAFA" height="519.0938" rx="1" ry="1" style="stroke: #E3ECEC; stroke-width: 1.5;" width="455" x="3055.75" y="8.5"/><ellipse cx="3168.5" cy="24.5" fill="#FFFFFF" rx="11" ry="11" style="stroke: #E3ECEC; stroke-width: 1.0;"/><path d="M3170.9453,30.1641 Q3170.3984,30.4453 3169.7969,30.5859 Q3169.1953,30.7266 3168.5313,30.7266 Q3166.1719,30.7266 3164.9297,29.1719 Q3163.6875,27.6172 3163.6875,24.6797 Q3163.6875,21.7344 3164.9297,20.1797 Q3166.1719,18.625 3168.5313,18.625 Q3169.1953,18.625 3169.8047,18.7656 Q3170.4141,18.9063 3170.9453,19.1875 L3170.9453,21.75 Q3170.3516,21.2031 3169.793,20.9492 Q3169.2344,20.6953 3168.6406,20.6953 Q3167.375,20.6953 3166.7305,21.6992 Q3166.0859,22.7031 3166.0859,24.6797 Q3166.0859,26.6484 3166.7305,27.6523 Q3167.375,28.6563 3168.6406,28.6563 Q3169.2344,28.6563 3169.793,28.4023 Q3170.3516,28.1484 3170.9453,27.6016 Z "/><text fill="#19273C" font-family="sans-serif" font-size="16" lengthAdjust="spacingAndGlyphs" textLength="221" x="3189" y="30.5469">BusinessNetworkConnection</text><line style="stroke: #E3ECEC; stroke-width: 1.5;" x1="3056.75" x2="3509.75" y1="40.5" y2="40.5"/><line style="stroke: #E3ECEC; stroke-width: 1.5;" x1="3056.75" x2="3509.75" y1="48.5" y2="48.5"/><ellipse cx="3066.75" cy="62.9219" fill="#84BE84" rx="3" ry="3" style="stroke: #038048; stroke-width: 1.0;"/><text fill="#19273C" font-family="sans-serif" font-size="16" lengthAdjust="spacingAndGlyphs" textLength="429" x="3075.75" y="67.9688">void constructor(Object,ConnectionProfileStore,Object)</text><ellipse cx="3066.75" cy="81.7656" fill="#84BE84" rx="3" ry="3" style="stroke: #038048; stroke-width: 1.0;"/><text fill="#19273C" font-family="sans-serif" font-size="16" lengthAdjust="spacingAndGlyphs" textLength="382" x="3075.75" y="86.8125">BusinessNetworkDefinition getBusinessNetwork()</text><ellipse cx="3066.75" cy="100.6094" fill="#84BE84" rx="3" ry="3" style="stroke: #038048; stroke-width: 1.0;"/><text fill="#19273C" font-family="sans-serif" font-size="16" lengthAdjust="spacingAndGlyphs" textLength="306" x="3075.75" y="105.6563">Promise getAllAssetRegistries(boolean)</text><ellipse cx="3066.75" cy="119.4531" fill="#84BE84" rx="3" ry="3" style="stroke: #038048; stroke-width: 1.0;"/><text fill="#19273C" font-family="sans-serif" font-size="16" lengthAdjust="spacingAndGlyphs" textLength="254" x="3075.75" y="124.5">Promise getAssetRegistry(string)</text><ellipse cx="3066.75" cy="138.2969" fill="#84BE84" rx="3" ry="3" style="stroke: #038048; stroke-width: 1.0;"/><text fill="#19273C" font-family="sans-serif" font-size="16" lengthAdjust="spacingAndGlyphs" textLength="273" x="3075.75" y="143.3438">Promise assetRegistryExists(string)</text><ellipse cx="3066.75" cy="157.1406" fill="#84BE84" rx="3" ry="3" style="stroke: #038048; stroke-width: 1.0;"/><text fill="#19273C" font-family="sans-serif" font-size="16" lengthAdjust="spacingAndGlyphs" textLength="309" x="3075.75" y="162.1875">Promise addAssetRegistry(string,string)</text><ellipse cx="3066.75" cy="175.9844" fill="#84BE84" rx="3" ry="3" style="stroke: #038048; stroke-width: 1.0;"/><text fill="#19273C" font-family="sans-serif" font-size="16" lengthAdjust="spacingAndGlyphs" textLength="348" x="3075.75" y="181.0313">Promise getAllParticipantRegistries(boolean)</text><ellipse cx="3066.75" cy="194.8281" fill="#84BE84" rx="3" ry="3" style="stroke: #038048; stroke-width: 1.0;"/><text fill="#19273C" font-family="sans-serif" font-size="16" lengthAdjust="spacingAndGlyphs" textLength="296" x="3075.75" y="199.875">Promise getParticipantRegistry(string)</text><ellipse cx="3066.75" cy="213.6719" fill="#84BE84" rx="3" ry="3" style="stroke: #038048; stroke-width: 1.0;"/><text fill="#19273C" font-family="sans-serif" font-size="16" lengthAdjust="spacingAndGlyphs" textLength="318" x="3075.75" y="218.7188">Promise participantRegistryExists(string)</text><ellipse cx="3066.75" cy="232.5156" fill="#84BE84" rx="3" ry="3" style="stroke: #038048; stroke-width: 1.0;"/><text fill="#19273C" font-family="sans-serif" font-size="16" lengthAdjust="spacingAndGlyphs" textLength="351" x="3075.75" y="237.5625">Promise addParticipantRegistry(string,string)</text><ellipse cx="3066.75" cy="251.3594" fill="#84BE84" rx="3" ry="3" style="stroke: #038048; stroke-width: 1.0;"/><text fill="#19273C" font-family="sans-serif" font-size="16" lengthAdjust="spacingAndGlyphs" textLength="304" x="3075.75" y="256.4063">Promise getTransactionRegistry(string)</text><ellipse cx="3066.75" cy="270.2031" fill="#84BE84" rx="3" ry="3" style="stroke: #038048; stroke-width: 1.0;"/><text fill="#19273C" font-family="sans-serif" font-size="16" lengthAdjust="spacingAndGlyphs" textLength="356" x="3075.75" y="275.25">Promise getAllTransactionRegistries(boolean)</text><ellipse cx="3066.75" cy="289.0469" fill="#84BE84" rx="3" ry="3" style="stroke: #038048; stroke-width: 1.0;"/><text fill="#19273C" font-family="sans-serif" font-size="16" lengthAdjust="spacingAndGlyphs" textLength="321" x="3075.75" y="294.0938">Promise transactionRegistryExists(string)</text><ellipse cx="3066.75" cy="307.8906" fill="#84BE84" rx="3" ry="3" style="stroke: #038048; stroke-width: 1.0;"/><text fill="#19273C" font-family="sans-serif" font-size="16" lengthAdjust="spacingAndGlyphs" textLength="175" x="3075.75" y="312.9375">Promise getHistorian()</text><ellipse cx="3066.75" cy="326.7344" fill="#84BE84" rx="3" ry="3" style="stroke: #038048; stroke-width: 1.0;"/><text fill="#19273C" font-family="sans-serif" font-size="16" lengthAdjust="spacingAndGlyphs" textLength="225" x="3075.75" y="331.7813">Promise getIdentityRegistry()</text><ellipse cx="3066.75" cy="345.5781" fill="#84BE84" rx="3" ry="3" style="stroke: #038048; stroke-width: 1.0;"/><text fill="#19273C" font-family="sans-serif" font-size="16" lengthAdjust="spacingAndGlyphs" textLength="393" x="3075.75" y="350.625">Promise connect(string,string,string,string,Object)</text><ellipse cx="3066.75" cy="364.4219" fill="#84BE84" rx="3" ry="3" style="stroke: #038048; stroke-width: 1.0;"/><text fill="#19273C" font-family="sans-serif" font-size="16" lengthAdjust="spacingAndGlyphs" textLength="213" x="3075.75" y="369.4688">Promise getRegistry(String)</text><ellipse cx="3066.75" cy="383.2656" fill="#84BE84" rx="3" ry="3" style="stroke: #038048; stroke-width: 1.0;"/><text fill="#19273C" font-family="sans-serif" font-size="16" lengthAdjust="spacingAndGlyphs" textLength="162" x="3075.75" y="388.3125">Promise disconnect()</text><ellipse cx="3066.75" cy="402.1094" fill="#84BE84" rx="3" ry="3" style="stroke: #038048; stroke-width: 1.0;"/><text fill="#19273C" font-family="sans-serif" font-size="16" lengthAdjust="spacingAndGlyphs" textLength="295" x="3075.75" y="407.1563">Promise submitTransaction(Resource)</text><ellipse cx="3066.75" cy="420.9531" fill="#84BE84" rx="3" ry="3" style="stroke: #038048; stroke-width: 1.0;"/><text fill="#19273C" font-family="sans-serif" font-size="16" lengthAdjust="spacingAndGlyphs" textLength="193" x="3075.75" y="426">Query buildQuery(string)</text><ellipse cx="3066.75" cy="439.7969" fill="#84BE84" rx="3" ry="3" style="stroke: #038048; stroke-width: 1.0;"/><text fill="#19273C" font-family="sans-serif" font-size="16" lengthAdjust="spacingAndGlyphs" textLength="172" x="3075.75" y="444.8438">Promise query(Object)</text><ellipse cx="3066.75" cy="458.6406" fill="#84BE84" rx="3" ry="3" style="stroke: #038048; stroke-width: 1.0;"/><text fill="#19273C" font-family="sans-serif" font-size="16" lengthAdjust="spacingAndGlyphs" textLength="113" x="3075.75" y="463.6875">Promise ping()</text><ellipse cx="3066.75" cy="477.4844" fill="#84BE84" rx="3" ry="3" style="stroke: #038048; stroke-width: 1.0;"/><text fill="#19273C" font-family="sans-serif" font-size="16" lengthAdjust="spacingAndGlyphs" textLength="344" x="3075.75" y="482.5313">Promise issueIdentity(string,object,boolean)</text><ellipse cx="3066.75" cy="496.3281" fill="#84BE84" rx="3" ry="3" style="stroke: #038048; stroke-width: 1.0;"/><text fill="#19273C" font-family="sans-serif" font-size="16" lengthAdjust="spacingAndGlyphs" textLength="218" x="3075.75" y="501.375">Promise bindIdentity(string)</text><ellipse cx="3066.75" cy="515.1719" fill="#84BE84" rx="3" ry="3" style="stroke: #038048; stroke-width: 1.0;"/><text fill="#19273C" font-family="sans-serif" font-size="16" lengthAdjust="spacingAndGlyphs" textLength="189" x="3075.75" y="520.2188">Promise revokeIdentity()</text><!--class EventEmitter--><rect fill="#F8FAFA" height="48" rx="1" ry="1" style="stroke: #E3ECEC; stroke-width: 1.5;" width="131" x="3217.75" y="739"/><ellipse cx="3232.75" cy="755" fill="#FFFFFF" rx="11" ry="11" style="stroke: #E3ECEC; stroke-width: 1.0;"/><path d="M3235.1953,760.6641 Q3234.6484,760.9453 3234.0469,761.0859 Q3233.4453,761.2266 3232.7813,761.2266 Q3230.4219,761.2266 3229.1797,759.6719 Q3227.9375,758.1172 3227.9375,755.1797 Q3227.9375,752.2344 3229.1797,750.6797 Q3230.4219,749.125 3232.7813,749.125 Q3233.4453,749.125 3234.0547,749.2656 Q3234.6641,749.4063 3235.1953,749.6875 L3235.1953,752.25 Q3234.6016,751.7031 3234.043,751.4492 Q3233.4844,751.1953 3232.8906,751.1953 Q3231.625,751.1953 3230.9805,752.1992 Q3230.3359,753.2031 3230.3359,755.1797 Q3230.3359,757.1484 3230.9805,758.1523 Q3231.625,759.1563 3232.8906,759.1563 Q3233.4844,759.1563 3234.043,758.9023 Q3234.6016,758.6484 3235.1953,758.1016 Z "/><text fill="#19273C" font-family="sans-serif" font-size="16" lengthAdjust="spacingAndGlyphs" textLength="99" x="3246.75" y="761.0469">EventEmitter</text><line style="stroke: #E3ECEC; stroke-width: 1.5;" x1="3218.75" x2="3347.75" y1="771" y2="771"/><line style="stroke: #E3ECEC; stroke-width: 1.5;" x1="3218.75" x2="3347.75" y1="779" y2="779"/><path d="M610.457,339.066 C709.347,392.375 849.839,466.751 975,528 C1009.62,544.941 1045.72,562.187 1082.05,579.246 " fill="none" style="stroke: #3C6DF0; stroke-width: 1.0;"/><polygon fill="none" points="1085.33,573.053,1100.48,587.874,1079.39,585.731,1085.33,573.053" style="stroke: #3C6DF0; stroke-width: 1.0;"/><path d="M1490,339.111 C1490,398.726 1490,487.245 1490,567.913 " fill="none" style="stroke: #3C6DF0; stroke-width: 1.0;"/><polygon fill="none" points="1497,567.958,1490,587.958,1483,567.958,1497,567.958" style="stroke: #3C6DF0; stroke-width: 1.0;"/><path d="M2403.29,329.533 C2298.9,382.842 2142.02,462.04 2004,528 C1968.65,544.895 1931.81,562.217 1894.81,579.421 " fill="none" style="stroke: #3C6DF0; stroke-width: 1.0;"/><polygon fill="none" points="1897.73,585.784,1876.64,587.855,1891.83,573.085,1897.73,585.784" style="stroke: #3C6DF0; stroke-width: 1.0;"/><path d="M3283,527.772 C3283,601.783 3283,674.314 3283,718.591 " fill="none" style="stroke: #3C6DF0; stroke-width: 1.0;"/><polygon fill="none" points="3290,718.756,3283,738.756,3276,718.756,3290,718.756" style="stroke: #3C6DF0; stroke-width: 1.0;"/></g></svg>