<?xml version="1.0" encoding="UTF-8" standalone="no"?><svg xmlns="http://www.w3.org/2000/svg" xmlns:xlink="http://www.w3.org/1999/xlink" contentScriptType="application/ecmascript" contentStyleType="text/css" height="631px" preserveAspectRatio="none" style="width:2220px;height:631px;" version="1.1" viewBox="0 0 2220 631" width="2220px" zoomAndPan="magnify"><defs/><g><!--class BusinessNetworkMetadata--><rect fill="#F8FAFA" height="179.9063" rx="1" ry="1" style="stroke: #E3ECEC; stroke-width: 1.5;" width="264" x="145.25" y="8"/><ellipse cx="172.85" cy="24" fill="#FFFFFF" rx="11" ry="11" style="stroke: #E3ECEC; stroke-width: 1.0;"/><path d="M175.2953,29.6641 Q174.7484,29.9453 174.1469,30.0859 Q173.5453,30.2266 172.8813,30.2266 Q170.5219,30.2266 169.2797,28.6719 Q168.0375,27.1172 168.0375,24.1797 Q168.0375,21.2344 169.2797,19.6797 Q170.5219,18.125 172.8813,18.125 Q173.5453,18.125 174.1547,18.2656 Q174.7641,18.4063 175.2953,18.6875 L175.2953,21.25 Q174.7016,20.7031 174.143,20.4492 Q173.5844,20.1953 172.9906,20.1953 Q171.725,20.1953 171.0805,21.1992 Q170.4359,22.2031 170.4359,24.1797 Q170.4359,26.1484 171.0805,27.1523 Q171.725,28.1563 172.9906,28.1563 Q173.5844,28.1563 174.143,27.9023 Q174.7016,27.6484 175.2953,27.1016 Z "/><text fill="#19273C" font-family="sans-serif" font-size="16" lengthAdjust="spacingAndGlyphs" textLength="204" x="189.65" y="30.0469">BusinessNetworkMetadata</text><line style="stroke: #E3ECEC; stroke-width: 1.5;" x1="146.25" x2="408.25" y1="40" y2="40"/><line style="stroke: #E3ECEC; stroke-width: 1.5;" x1="146.25" x2="408.25" y1="48" y2="48"/><ellipse cx="156.25" cy="62.4219" fill="#84BE84" rx="3" ry="3" style="stroke: #038048; stroke-width: 1.0;"/><text fill="#19273C" font-family="sans-serif" font-size="16" lengthAdjust="spacingAndGlyphs" textLength="238" x="165.25" y="67.4688">void constructor(object,String)</text><ellipse cx="156.25" cy="81.2656" fill="#84BE84" rx="3" ry="3" style="stroke: #038048; stroke-width: 1.0;"/><text fill="#19273C" font-family="sans-serif" font-size="16" lengthAdjust="spacingAndGlyphs" textLength="152" x="165.25" y="86.3125">String getREADME()</text><ellipse cx="156.25" cy="100.1094" fill="#84BE84" rx="3" ry="3" style="stroke: #038048; stroke-width: 1.0;"/><text fill="#19273C" font-family="sans-serif" font-size="16" lengthAdjust="spacingAndGlyphs" textLength="184" x="165.25" y="105.1563">object getPackageJson()</text><ellipse cx="156.25" cy="118.9531" fill="#84BE84" rx="3" ry="3" style="stroke: #038048; stroke-width: 1.0;"/><text fill="#19273C" font-family="sans-serif" font-size="16" lengthAdjust="spacingAndGlyphs" textLength="131" x="165.25" y="124">string getName()</text><ellipse cx="156.25" cy="137.7969" fill="#84BE84" rx="3" ry="3" style="stroke: #038048; stroke-width: 1.0;"/><text fill="#19273C" font-family="sans-serif" font-size="16" lengthAdjust="spacingAndGlyphs" textLength="176" x="165.25" y="142.8438">string getDescription()</text><ellipse cx="156.25" cy="156.6406" fill="#84BE84" rx="3" ry="3" style="stroke: #038048; stroke-width: 1.0;"/><text fill="#19273C" font-family="sans-serif" font-size="16" lengthAdjust="spacingAndGlyphs" textLength="145" x="165.25" y="161.6875">string getVersion()</text><ellipse cx="156.25" cy="175.4844" fill="#84BE84" rx="3" ry="3" style="stroke: #038048; stroke-width: 1.0;"/><text fill="#19273C" font-family="sans-serif" font-size="16" lengthAdjust="spacingAndGlyphs" textLength="158" x="165.25" y="180.5313">string getIdentifier()</text><!--class Relationship--><rect fill="#F8FAFA" height="104.5313" rx="1" ry="1" style="stroke: #E3ECEC; stroke-width: 1.5;" width="474" x="1126.25" y="332.5"/><ellipse cx="1310.5" cy="348.5" fill="#FFFFFF" rx="11" ry="11" style="stroke: #E3ECEC; stroke-width: 1.0;"/><path d="M1312.9453,354.1641 Q1312.3984,354.4453 1311.7969,354.5859 Q1311.1953,354.7266 1310.5313,354.7266 Q1308.1719,354.7266 1306.9297,353.1719 Q1305.6875,351.6172 1305.6875,348.6797 Q1305.6875,345.7344 1306.9297,344.1797 Q1308.1719,342.625 1310.5313,342.625 Q1311.1953,342.625 1311.8047,342.7656 Q1312.4141,342.9063 1312.9453,343.1875 L1312.9453,345.75 Q1312.3516,345.2031 1311.793,344.9492 Q1311.2344,344.6953 1310.6406,344.6953 Q1309.375,344.6953 1308.7305,345.6992 Q1308.0859,346.7031 1308.0859,348.6797 Q1308.0859,350.6484 1308.7305,351.6523 Q1309.375,352.6563 1310.6406,352.6563 Q1311.2344,352.6563 1311.793,352.4023 Q1312.3516,352.1484 1312.9453,351.6016 Z "/><text fill="#19273C" font-family="sans-serif" font-size="16" lengthAdjust="spacingAndGlyphs" textLength="97" x="1331" y="354.5469">Relationship</text><line style="stroke: #E3ECEC; stroke-width: 1.5;" x1="1127.25" x2="1599.25" y1="364.5" y2="364.5"/><line style="stroke: #E3ECEC; stroke-width: 1.5;" x1="1127.25" x2="1599.25" y1="372.5" y2="372.5"/><ellipse cx="1137.25" cy="386.9219" fill="#84BE84" rx="3" ry="3" style="stroke: #038048; stroke-width: 1.0;"/><text fill="#19273C" font-family="sans-serif" font-size="16" lengthAdjust="spacingAndGlyphs" textLength="125" x="1146.25" y="391.9688">String toString()</text><ellipse cx="1137.25" cy="405.7656" fill="#84BE84" rx="3" ry="3" style="stroke: #038048; stroke-width: 1.0;"/><text fill="#19273C" font-family="sans-serif" font-size="16" lengthAdjust="spacingAndGlyphs" textLength="188" x="1146.25" y="410.8125">boolean isRelationship()</text><ellipse cx="1137.25" cy="424.6094" fill="#84BE84" rx="3" ry="3" style="stroke: #038048; stroke-width: 1.0;"/><text fill="#19273C" font-family="sans-serif" font-size="16" lengthAdjust="spacingAndGlyphs" textLength="448" x="1146.25" y="429.6563">Relationship fromURI(ModelManager,String,String,String)</text><!--class Identifiable--><rect fill="#F8FAFA" height="48" rx="1" ry="1" style="stroke: #E3ECEC; stroke-width: 1.5;" width="121" x="1486" y="582"/><ellipse cx="1501" cy="598" fill="#FFFFFF" rx="11" ry="11" style="stroke: #E3ECEC; stroke-width: 1.0;"/><path d="M1503.4453,603.6641 Q1502.8984,603.9453 1502.2969,604.0859 Q1501.6953,604.2266 1501.0313,604.2266 Q1498.6719,604.2266 1497.4297,602.6719 Q1496.1875,601.1172 1496.1875,598.1797 Q1496.1875,595.2344 1497.4297,593.6797 Q1498.6719,592.125 1501.0313,592.125 Q1501.6953,592.125 1502.3047,592.2656 Q1502.9141,592.4063 1503.4453,592.6875 L1503.4453,595.25 Q1502.8516,594.7031 1502.293,594.4492 Q1501.7344,594.1953 1501.1406,594.1953 Q1499.875,594.1953 1499.2305,595.1992 Q1498.5859,596.2031 1498.5859,598.1797 Q1498.5859,600.1484 1499.2305,601.1523 Q1499.875,602.1563 1501.1406,602.1563 Q1501.7344,602.1563 1502.293,601.9023 Q1502.8516,601.6484 1503.4453,601.1016 Z "/><text fill="#19273C" font-family="sans-serif" font-size="16" lengthAdjust="spacingAndGlyphs" textLength="89" x="1515" y="604.0469">Identifiable</text><line style="stroke: #E3ECEC; stroke-width: 1.5;" x1="1487" x2="1606" y1="614" y2="614"/><line style="stroke: #E3ECEC; stroke-width: 1.5;" x1="1487" x2="1606" y1="622" y2="622"/><!--class Resource--><rect fill="#F8FAFA" height="85.6875" rx="1" ry="1" style="stroke: #E3ECEC; stroke-width: 1.5;" width="188" x="1635.25" y="342"/><ellipse cx="1689.5" cy="358" fill="#FFFFFF" rx="11" ry="11" style="stroke: #E3ECEC; stroke-width: 1.0;"/><path d="M1691.9453,363.6641 Q1691.3984,363.9453 1690.7969,364.0859 Q1690.1953,364.2266 1689.5313,364.2266 Q1687.1719,364.2266 1685.9297,362.6719 Q1684.6875,361.1172 1684.6875,358.1797 Q1684.6875,355.2344 1685.9297,353.6797 Q1687.1719,352.125 1689.5313,352.125 Q1690.1953,352.125 1690.8047,352.2656 Q1691.4141,352.4063 1691.9453,352.6875 L1691.9453,355.25 Q1691.3516,354.7031 1690.793,354.4492 Q1690.2344,354.1953 1689.6406,354.1953 Q1688.375,354.1953 1687.7305,355.1992 Q1687.0859,356.2031 1687.0859,358.1797 Q1687.0859,360.1484 1687.7305,361.1523 Q1688.375,362.1563 1689.6406,362.1563 Q1690.2344,362.1563 1690.793,361.9023 Q1691.3516,361.6484 1691.9453,361.1016 Z "/><text fill="#19273C" font-family="sans-serif" font-size="16" lengthAdjust="spacingAndGlyphs" textLength="71" x="1710" y="364.0469">Resource</text><line style="stroke: #E3ECEC; stroke-width: 1.5;" x1="1636.25" x2="1822.25" y1="374" y2="374"/><line style="stroke: #E3ECEC; stroke-width: 1.5;" x1="1636.25" x2="1822.25" y1="382" y2="382"/><ellipse cx="1646.25" cy="396.4219" fill="#84BE84" rx="3" ry="3" style="stroke: #038048; stroke-width: 1.0;"/><text fill="#19273C" font-family="sans-serif" font-size="16" lengthAdjust="spacingAndGlyphs" textLength="125" x="1655.25" y="401.4688">String toString()</text><ellipse cx="1646.25" cy="415.2656" fill="#84BE84" rx="3" ry="3" style="stroke: #038048; stroke-width: 1.0;"/><text fill="#19273C" font-family="sans-serif" font-size="16" lengthAdjust="spacingAndGlyphs" textLength="162" x="1655.25" y="420.3125">boolean isResource()</text><!--class ValidatedResource--><rect fill="#F8FAFA" height="104.5313" rx="1" ry="1" style="stroke: #E3ECEC; stroke-width: 1.5;" width="303" x="1578" y="45.5"/><ellipse cx="1653.25" cy="61.5" fill="#FFFFFF" rx="11" ry="11" style="stroke: #E3ECEC; stroke-width: 1.0;"/><path d="M1655.6953,67.1641 Q1655.1484,67.4453 1654.5469,67.5859 Q1653.9453,67.7266 1653.2813,67.7266 Q1650.9219,67.7266 1649.6797,66.1719 Q1648.4375,64.6172 1648.4375,61.6797 Q1648.4375,58.7344 1649.6797,57.1797 Q1650.9219,55.625 1653.2813,55.625 Q1653.9453,55.625 1654.5547,55.7656 Q1655.1641,55.9063 1655.6953,56.1875 L1655.6953,58.75 Q1655.1016,58.2031 1654.543,57.9492 Q1653.9844,57.6953 1653.3906,57.6953 Q1652.125,57.6953 1651.4805,58.6992 Q1650.8359,59.7031 1650.8359,61.6797 Q1650.8359,63.6484 1651.4805,64.6523 Q1652.125,65.6563 1653.3906,65.6563 Q1653.9844,65.6563 1654.543,65.4023 Q1655.1016,65.1484 1655.6953,64.6016 Z "/><text fill="#19273C" font-family="sans-serif" font-size="16" lengthAdjust="spacingAndGlyphs" textLength="144" x="1673.75" y="67.5469">ValidatedResource</text><line style="stroke: #E3ECEC; stroke-width: 1.5;" x1="1579" x2="1880" y1="77.5" y2="77.5"/><line style="stroke: #E3ECEC; stroke-width: 1.5;" x1="1579" x2="1880" y1="85.5" y2="85.5"/><ellipse cx="1589" cy="99.9219" fill="#84BE84" rx="3" ry="3" style="stroke: #038048; stroke-width: 1.0;"/><text fill="#19273C" font-family="sans-serif" font-size="16" lengthAdjust="spacingAndGlyphs" textLength="277" x="1598" y="104.9688">void setPropertyValue(string,string)</text><ellipse cx="1589" cy="118.7656" fill="#84BE84" rx="3" ry="3" style="stroke: #038048; stroke-width: 1.0;"/><text fill="#19273C" font-family="sans-serif" font-size="16" lengthAdjust="spacingAndGlyphs" textLength="259" x="1598" y="123.8125">void addArrayValue(string,string)</text><ellipse cx="1589" cy="137.6094" fill="#84BE84" rx="3" ry="3" style="stroke: #038048; stroke-width: 1.0;"/><text fill="#19273C" font-family="sans-serif" font-size="16" lengthAdjust="spacingAndGlyphs" textLength="109" x="1598" y="142.6563">void validate()</text><!--class Concept--><rect fill="#F8FAFA" height="66.8438" rx="1" ry="1" style="stroke: #E3ECEC; stroke-width: 1.5;" width="181" x="1977" y="351.5"/><ellipse cx="2031.25" cy="367.5" fill="#FFFFFF" rx="11" ry="11" style="stroke: #E3ECEC; stroke-width: 1.0;"/><path d="M2033.6953,373.1641 Q2033.1484,373.4453 2032.5469,373.5859 Q2031.9453,373.7266 2031.2813,373.7266 Q2028.9219,373.7266 2027.6797,372.1719 Q2026.4375,370.6172 2026.4375,367.6797 Q2026.4375,364.7344 2027.6797,363.1797 Q2028.9219,361.625 2031.2813,361.625 Q2031.9453,361.625 2032.5547,361.7656 Q2033.1641,361.9063 2033.6953,362.1875 L2033.6953,364.75 Q2033.1016,364.2031 2032.543,363.9492 Q2031.9844,363.6953 2031.3906,363.6953 Q2030.125,363.6953 2029.4805,364.6992 Q2028.8359,365.7031 2028.8359,367.6797 Q2028.8359,369.6484 2029.4805,370.6523 Q2030.125,371.6563 2031.3906,371.6563 Q2031.9844,371.6563 2032.543,371.4023 Q2033.1016,371.1484 2033.6953,370.6016 Z "/><text fill="#19273C" font-family="sans-serif" font-size="16" lengthAdjust="spacingAndGlyphs" textLength="64" x="2051.75" y="373.5469">Concept</text><line style="stroke: #E3ECEC; stroke-width: 1.5;" x1="1978" x2="2157" y1="383.5" y2="383.5"/><line style="stroke: #E3ECEC; stroke-width: 1.5;" x1="1978" x2="2157" y1="391.5" y2="391.5"/><ellipse cx="1988" cy="405.9219" fill="#84BE84" rx="3" ry="3" style="stroke: #038048; stroke-width: 1.0;"/><text fill="#19273C" font-family="sans-serif" font-size="16" lengthAdjust="spacingAndGlyphs" textLength="155" x="1997" y="410.9688">boolean isConcept()</text><!--class Typed--><rect fill="#F8FAFA" height="48" rx="1" ry="1" style="stroke: #E3ECEC; stroke-width: 1.5;" width="79" x="2028" y="582"/><ellipse cx="2043" cy="598" fill="#FFFFFF" rx="11" ry="11" style="stroke: #E3ECEC; stroke-width: 1.0;"/><path d="M2045.4453,603.6641 Q2044.8984,603.9453 2044.2969,604.0859 Q2043.6953,604.2266 2043.0313,604.2266 Q2040.6719,604.2266 2039.4297,602.6719 Q2038.1875,601.1172 2038.1875,598.1797 Q2038.1875,595.2344 2039.4297,593.6797 Q2040.6719,592.125 2043.0313,592.125 Q2043.6953,592.125 2044.3047,592.2656 Q2044.9141,592.4063 2045.4453,592.6875 L2045.4453,595.25 Q2044.8516,594.7031 2044.293,594.4492 Q2043.7344,594.1953 2043.1406,594.1953 Q2041.875,594.1953 2041.2305,595.1992 Q2040.5859,596.2031 2040.5859,598.1797 Q2040.5859,600.1484 2041.2305,601.1523 Q2041.875,602.1563 2043.1406,602.1563 Q2043.7344,602.1563 2044.293,601.9023 Q2044.8516,601.6484 2045.4453,601.1016 Z "/><text fill="#19273C" font-family="sans-serif" font-size="16" lengthAdjust="spacingAndGlyphs" textLength="47" x="2057" y="604.0469">Typed</text><line style="stroke: #E3ECEC; stroke-width: 1.5;" x1="2029" x2="2106" y1="614" y2="614"/><line style="stroke: #E3ECEC; stroke-width: 1.5;" x1="2029" x2="2106" y1="622" y2="622"/><!--class ValidatedConcept--><rect fill="#F8FAFA" height="104.5313" rx="1" ry="1" style="stroke: #E3ECEC; stroke-width: 1.5;" width="303" x="1916" y="45.5"/><ellipse cx="1994.75" cy="61.5" fill="#FFFFFF" rx="11" ry="11" style="stroke: #E3ECEC; stroke-width: 1.0;"/><path d="M1997.1953,67.1641 Q1996.6484,67.4453 1996.0469,67.5859 Q1995.4453,67.7266 1994.7813,67.7266 Q1992.4219,67.7266 1991.1797,66.1719 Q1989.9375,64.6172 1989.9375,61.6797 Q1989.9375,58.7344 1991.1797,57.1797 Q1992.4219,55.625 1994.7813,55.625 Q1995.4453,55.625 1996.0547,55.7656 Q1996.6641,55.9063 1997.1953,56.1875 L1997.1953,58.75 Q1996.6016,58.2031 1996.043,57.9492 Q1995.4844,57.6953 1994.8906,57.6953 Q1993.625,57.6953 1992.9805,58.6992 Q1992.3359,59.7031 1992.3359,61.6797 Q1992.3359,63.6484 1992.9805,64.6523 Q1993.625,65.6563 1994.8906,65.6563 Q1995.4844,65.6563 1996.043,65.4023 Q1996.6016,65.1484 1997.1953,64.6016 Z "/><text fill="#19273C" font-family="sans-serif" font-size="16" lengthAdjust="spacingAndGlyphs" textLength="137" x="2015.25" y="67.5469">ValidatedConcept</text><line style="stroke: #E3ECEC; stroke-width: 1.5;" x1="1917" x2="2218" y1="77.5" y2="77.5"/><line style="stroke: #E3ECEC; stroke-width: 1.5;" x1="1917" x2="2218" y1="85.5" y2="85.5"/><ellipse cx="1927" cy="99.9219" fill="#84BE84" rx="3" ry="3" style="stroke: #038048; stroke-width: 1.0;"/><text fill="#19273C" font-family="sans-serif" font-size="16" lengthAdjust="spacingAndGlyphs" textLength="277" x="1936" y="104.9688">void setPropertyValue(string,string)</text><ellipse cx="1927" cy="118.7656" fill="#84BE84" rx="3" ry="3" style="stroke: #038048; stroke-width: 1.0;"/><text fill="#19273C" font-family="sans-serif" font-size="16" lengthAdjust="spacingAndGlyphs" textLength="259" x="1936" y="123.8125">void addArrayValue(string,string)</text><ellipse cx="1927" cy="137.6094" fill="#84BE84" rx="3" ry="3" style="stroke: #038048; stroke-width: 1.0;"/><text fill="#19273C" font-family="sans-serif" font-size="16" lengthAdjust="spacingAndGlyphs" textLength="109" x="1936" y="142.6563">void validate()</text><!--class Factory--><rect fill="#F8FAFA" height="161.0625" rx="1" ry="1" style="stroke: #E3ECEC; stroke-width: 1.5;" width="604" x="465.25" y="17.5"/><ellipse cx="734.5" cy="33.5" fill="#FFFFFF" rx="11" ry="11" style="stroke: #E3ECEC; stroke-width: 1.0;"/><path d="M736.9453,39.1641 Q736.3984,39.4453 735.7969,39.5859 Q735.1953,39.7266 734.5313,39.7266 Q732.1719,39.7266 730.9297,38.1719 Q729.6875,36.6172 729.6875,33.6797 Q729.6875,30.7344 730.9297,29.1797 Q732.1719,27.625 734.5313,27.625 Q735.1953,27.625 735.8047,27.7656 Q736.4141,27.9063 736.9453,28.1875 L736.9453,30.75 Q736.3516,30.2031 735.793,29.9492 Q735.2344,29.6953 734.6406,29.6953 Q733.375,29.6953 732.7305,30.6992 Q732.0859,31.7031 732.0859,33.6797 Q732.0859,35.6484 732.7305,36.6523 Q733.375,37.6563 734.6406,37.6563 Q735.2344,37.6563 735.793,37.4023 Q736.3516,37.1484 736.9453,36.6016 Z "/><text fill="#19273C" font-family="sans-serif" font-size="16" lengthAdjust="spacingAndGlyphs" textLength="57" x="755" y="39.5469">Factory</text><line style="stroke: #E3ECEC; stroke-width: 1.5;" x1="466.25" x2="1068.25" y1="49.5" y2="49.5"/><line style="stroke: #E3ECEC; stroke-width: 1.5;" x1="466.25" x2="1068.25" y1="57.5" y2="57.5"/><ellipse cx="476.25" cy="71.9219" fill="#84BE84" rx="3" ry="3" style="stroke: #038048; stroke-width: 1.0;"/><text fill="#19273C" font-family="sans-serif" font-size="16" lengthAdjust="spacingAndGlyphs" textLength="254" x="485.25" y="76.9688">void constructor(ModelManager)</text><ellipse cx="476.25" cy="90.7656" fill="#84BE84" rx="3" ry="3" style="stroke: #038048; stroke-width: 1.0;"/><text fill="#19273C" font-family="sans-serif" font-size="16" lengthAdjust="spacingAndGlyphs" textLength="578" x="485.25" y="95.8125">Resource newResource(string,string,string,Object,boolean,string,boolean)</text><ellipse cx="476.25" cy="109.6094" fill="#84BE84" rx="3" ry="3" style="stroke: #038048; stroke-width: 1.0;"/><text fill="#19273C" font-family="sans-serif" font-size="16" lengthAdjust="spacingAndGlyphs" textLength="520" x="485.25" y="114.6563">Resource newConcept(string,string,Object,boolean,string,boolean)</text><ellipse cx="476.25" cy="128.4531" fill="#84BE84" rx="3" ry="3" style="stroke: #038048; stroke-width: 1.0;"/><text fill="#19273C" font-family="sans-serif" font-size="16" lengthAdjust="spacingAndGlyphs" textLength="388" x="485.25" y="133.5">Relationship newRelationship(string,string,string)</text><ellipse cx="476.25" cy="147.2969" fill="#84BE84" rx="3" ry="3" style="stroke: #038048; stroke-width: 1.0;"/><text fill="#19273C" font-family="sans-serif" font-size="16" lengthAdjust="spacingAndGlyphs" textLength="531" x="485.25" y="152.3438">Resource newTransaction(string,string,string,Object,string,boolean)</text><ellipse cx="476.25" cy="166.1406" fill="#84BE84" rx="3" ry="3" style="stroke: #038048; stroke-width: 1.0;"/><text fill="#19273C" font-family="sans-serif" font-size="16" lengthAdjust="spacingAndGlyphs" textLength="481" x="485.25" y="171.1875">Resource newEvent(string,string,string,Object,string,boolean)</text><!--class Introspector--><rect fill="#F8FAFA" height="104.5313" rx="1" ry="1" style="stroke: #E3ECEC; stroke-width: 1.5;" width="375" x="1147" y="45.5"/><ellipse cx="1282.25" cy="61.5" fill="#FFFFFF" rx="11" ry="11" style="stroke: #E3ECEC; stroke-width: 1.0;"/><path d="M1284.6953,67.1641 Q1284.1484,67.4453 1283.5469,67.5859 Q1282.9453,67.7266 1282.2813,67.7266 Q1279.9219,67.7266 1278.6797,66.1719 Q1277.4375,64.6172 1277.4375,61.6797 Q1277.4375,58.7344 1278.6797,57.1797 Q1279.9219,55.625 1282.2813,55.625 Q1282.9453,55.625 1283.5547,55.7656 Q1284.1641,55.9063 1284.6953,56.1875 L1284.6953,58.75 Q1284.1016,58.2031 1283.543,57.9492 Q1282.9844,57.6953 1282.3906,57.6953 Q1281.125,57.6953 1280.4805,58.6992 Q1279.8359,59.7031 1279.8359,61.6797 Q1279.8359,63.6484 1280.4805,64.6523 Q1281.125,65.6563 1282.3906,65.6563 Q1282.9844,65.6563 1283.543,65.4023 Q1284.1016,65.1484 1284.6953,64.6016 Z "/><text fill="#19273C" font-family="sans-serif" font-size="16" lengthAdjust="spacingAndGlyphs" textLength="96" x="1302.75" y="67.5469">Introspector</text><line style="stroke: #E3ECEC; stroke-width: 1.5;" x1="1148" x2="1521" y1="77.5" y2="77.5"/><line style="stroke: #E3ECEC; stroke-width: 1.5;" x1="1148" x2="1521" y1="85.5" y2="85.5"/><ellipse cx="1158" cy="99.9219" fill="#84BE84" rx="3" ry="3" style="stroke: #038048; stroke-width: 1.0;"/><text fill="#19273C" font-family="sans-serif" font-size="16" lengthAdjust="spacingAndGlyphs" textLength="254" x="1167" y="104.9688">void constructor(ModelManager)</text><ellipse cx="1158" cy="118.7656" fill="#84BE84" rx="3" ry="3" style="stroke: #038048; stroke-width: 1.0;"/><text fill="#19273C" font-family="sans-serif" font-size="16" lengthAdjust="spacingAndGlyphs" textLength="320" x="1167" y="123.8125">ClassDeclaration[] getClassDeclarations()</text><ellipse cx="1158" cy="137.6094" fill="#84BE84" rx="3" ry="3" style="stroke: #038048; stroke-width: 1.0;"/><text fill="#19273C" font-family="sans-serif" font-size="16" lengthAdjust="spacingAndGlyphs" textLength="349" x="1167" y="142.6563">ClassDeclaration getClassDeclaration(String)</text><!--class Serializer--><rect fill="#F8FAFA" height="104.5313" rx="1" ry="1" style="stroke: #E3ECEC; stroke-width: 1.5;" width="543" x="6" y="332.5"/><ellipse cx="236.25" cy="348.5" fill="#FFFFFF" rx="11" ry="11" style="stroke: #E3ECEC; stroke-width: 1.0;"/><path d="M238.6953,354.1641 Q238.1484,354.4453 237.5469,354.5859 Q236.9453,354.7266 236.2813,354.7266 Q233.9219,354.7266 232.6797,353.1719 Q231.4375,351.6172 231.4375,348.6797 Q231.4375,345.7344 232.6797,344.1797 Q233.9219,342.625 236.2813,342.625 Q236.9453,342.625 237.5547,342.7656 Q238.1641,342.9063 238.6953,343.1875 L238.6953,345.75 Q238.1016,345.2031 237.543,344.9492 Q236.9844,344.6953 236.3906,344.6953 Q235.125,344.6953 234.4805,345.6992 Q233.8359,346.7031 233.8359,348.6797 Q233.8359,350.6484 234.4805,351.6523 Q235.125,352.6563 236.3906,352.6563 Q236.9844,352.6563 237.543,352.4023 Q238.1016,352.1484 238.6953,351.6016 Z "/><text fill="#19273C" font-family="sans-serif" font-size="16" lengthAdjust="spacingAndGlyphs" textLength="74" x="256.75" y="354.5469">Serializer</text><line style="stroke: #E3ECEC; stroke-width: 1.5;" x1="7" x2="548" y1="364.5" y2="364.5"/><line style="stroke: #E3ECEC; stroke-width: 1.5;" x1="7" x2="548" y1="372.5" y2="372.5"/><ellipse cx="17" cy="386.9219" fill="#84BE84" rx="3" ry="3" style="stroke: #038048; stroke-width: 1.0;"/><text fill="#19273C" font-family="sans-serif" font-size="16" lengthAdjust="spacingAndGlyphs" textLength="316" x="26" y="391.9688">void constructor(Factory,ModelManager)</text><ellipse cx="17" cy="405.7656" fill="#84BE84" rx="3" ry="3" style="stroke: #038048; stroke-width: 1.0;"/><text fill="#19273C" font-family="sans-serif" font-size="16" lengthAdjust="spacingAndGlyphs" textLength="517" x="26" y="410.8125">Object toJSON(Resource,Object,boolean,boolean,boolean,boolean)</text><ellipse cx="17" cy="424.6094" fill="#84BE84" rx="3" ry="3" style="stroke: #038048; stroke-width: 1.0;"/><text fill="#19273C" font-family="sans-serif" font-size="16" lengthAdjust="spacingAndGlyphs" textLength="403" x="26" y="429.6563">Resource fromJSON(Object,Object,boolean,boolean)</text><!--class BusinessNetworkDefinition--><rect fill="#F8FAFA" height="274.125" rx="1" ry="1" style="stroke: #E3ECEC; stroke-width: 1.5;" width="507" x="584" y="248"/><ellipse cx="728.25" cy="264" fill="#FFFFFF" rx="11" ry="11" style="stroke: #E3ECEC; stroke-width: 1.0;"/><path d="M730.6953,269.6641 Q730.1484,269.9453 729.5469,270.0859 Q728.9453,270.2266 728.2813,270.2266 Q725.9219,270.2266 724.6797,268.6719 Q723.4375,267.1172 723.4375,264.1797 Q723.4375,261.2344 724.6797,259.6797 Q725.9219,258.125 728.2813,258.125 Q728.9453,258.125 729.5547,258.2656 Q730.1641,258.4063 730.6953,258.6875 L730.6953,261.25 Q730.1016,260.7031 729.543,260.4492 Q728.9844,260.1953 728.3906,260.1953 Q727.125,260.1953 726.4805,261.1992 Q725.8359,262.2031 725.8359,264.1797 Q725.8359,266.1484 726.4805,267.1523 Q727.125,268.1563 728.3906,268.1563 Q728.9844,268.1563 729.543,267.9023 Q730.1016,267.6484 730.6953,267.1016 Z "/><text fill="#19273C" font-family="sans-serif" font-size="16" lengthAdjust="spacingAndGlyphs" textLength="210" x="748.75" y="270.0469">BusinessNetworkDefinition</text><line style="stroke: #E3ECEC; stroke-width: 1.5;" x1="585" x2="1090" y1="280" y2="280"/><line style="stroke: #E3ECEC; stroke-width: 1.5;" x1="585" x2="1090" y1="288" y2="288"/><ellipse cx="595" cy="302.4219" fill="#84BE84" rx="3" ry="3" style="stroke: #038048; stroke-width: 1.0;"/><text fill="#19273C" font-family="sans-serif" font-size="16" lengthAdjust="spacingAndGlyphs" textLength="342" x="604" y="307.4688">void constructor(String,String,object,String)</text><ellipse cx="595" cy="321.2656" fill="#84BE84" rx="3" ry="3" style="stroke: #038048; stroke-width: 1.0;"/><text fill="#19273C" font-family="sans-serif" font-size="16" lengthAdjust="spacingAndGlyphs" textLength="159" x="604" y="326.3125">String getIdentifier()</text><ellipse cx="595" cy="340.1094" fill="#84BE84" rx="3" ry="3" style="stroke: #038048; stroke-width: 1.0;"/><text fill="#19273C" font-family="sans-serif" font-size="16" lengthAdjust="spacingAndGlyphs" textLength="316" x="604" y="345.1563">BusinessNetworkMetadata getMetadata()</text><ellipse cx="595" cy="358.9531" fill="#84BE84" rx="3" ry="3" style="stroke: #038048; stroke-width: 1.0;"/><text fill="#19273C" font-family="sans-serif" font-size="16" lengthAdjust="spacingAndGlyphs" textLength="132" x="604" y="364">String getName()</text><ellipse cx="595" cy="377.7969" fill="#84BE84" rx="3" ry="3" style="stroke: #038048; stroke-width: 1.0;"/><text fill="#19273C" font-family="sans-serif" font-size="16" lengthAdjust="spacingAndGlyphs" textLength="146" x="604" y="382.8438">String getVersion()</text><ellipse cx="595" cy="396.6406" fill="#84BE84" rx="3" ry="3" style="stroke: #038048; stroke-width: 1.0;"/><text fill="#19273C" font-family="sans-serif" font-size="16" lengthAdjust="spacingAndGlyphs" textLength="177" x="604" y="401.6875">String getDescription()</text><ellipse cx="595" cy="415.4844" fill="#84BE84" rx="3" ry="3" style="stroke: #038048; stroke-width: 1.0;"/><text fill="#19273C" font-family="sans-serif" font-size="16" lengthAdjust="spacingAndGlyphs" textLength="221" x="604" y="420.5313">Promise fromArchive(Buffer)</text><ellipse cx="595" cy="434.3281" fill="#84BE84" rx="3" ry="3" style="stroke: #038048; stroke-width: 1.0;"/><text fill="#19273C" font-family="sans-serif" font-size="16" lengthAdjust="spacingAndGlyphs" textLength="186" x="604" y="439.375">Buffer toArchive(Object)</text><ellipse cx="595" cy="453.1719" fill="#84BE84" rx="3" ry="3" style="stroke: #038048; stroke-width: 1.0;"/><text fill="#19273C" font-family="sans-serif" font-size="16" lengthAdjust="spacingAndGlyphs" textLength="481" x="604" y="458.2188">Promise fromDirectory(String,Object,Object,boolean,boolean)</text><ellipse cx="595" cy="472.0156" fill="#84BE84" rx="3" ry="3" style="stroke: #038048; stroke-width: 1.0;"/><text fill="#19273C" font-family="sans-serif" font-size="16" lengthAdjust="spacingAndGlyphs" textLength="232" x="604" y="477.0625">Introspector getIntrospector()</text><ellipse cx="595" cy="490.8594" fill="#84BE84" rx="3" ry="3" style="stroke: #038048; stroke-width: 1.0;"/><text fill="#19273C" font-family="sans-serif" font-size="16" lengthAdjust="spacingAndGlyphs" textLength="154" x="604" y="495.9063">Factory getFactory()</text><ellipse cx="595" cy="509.7031" fill="#84BE84" rx="3" ry="3" style="stroke: #038048; stroke-width: 1.0;"/><text fill="#19273C" font-family="sans-serif" font-size="16" lengthAdjust="spacingAndGlyphs" textLength="188" x="604" y="514.75">Serializer getSerializer()</text><path d="M1406.39,437.623 C1439.32,477.032 1483.98,530.4781 1513.89,566.2721 " fill="none" style="stroke: #3C6DF0; stroke-width: 1.0;"/><polygon fill="none" points="1519.43,561.9885,1526.88,581.8242,1508.69,570.9656,1519.43,561.9885" style="stroke: #3C6DF0; stroke-width: 1.0;"/><path d="M1694.89,428.135 C1672.83,455.083 1643.5,490.723 1617.25,522 C1604.98,536.6152 1591.39,552.5645 1579.41,566.5411 " fill="none" style="stroke: #3C6DF0; stroke-width: 1.0;"/><polygon fill="none" points="1584.6,571.2364,1566.26,581.844,1573.98,562.1126,1584.6,571.2364" style="stroke: #3C6DF0; stroke-width: 1.0;"/><path d="M1729.25,150.611 C1729.25,198.58 1729.25,270.131 1729.25,321.354 " fill="none" style="stroke: #3C6DF0; stroke-width: 1.0;"/><polygon fill="none" points="1736.25,321.594,1729.25,341.594,1722.25,321.594,1736.25,321.594" style="stroke: #3C6DF0; stroke-width: 1.0;"/><path d="M2067.25,418.787 C2067.25,456.803 2067.25,519.613 2067.25,561.6382 " fill="none" style="stroke: #3C6DF0; stroke-width: 1.0;"/><polygon fill="none" points="2074.25,561.7487,2067.25,581.7487,2060.25,561.7486,2074.25,561.7487" style="stroke: #3C6DF0; stroke-width: 1.0;"/><path d="M2067.25,150.611 C2067.25,201.701 2067.25,279.543 2067.25,331.083 " fill="none" style="stroke: #3C6DF0; stroke-width: 1.0;"/><polygon fill="none" points="2074.25,331.407,2067.25,351.407,2060.25,331.407,2074.25,331.407" style="stroke: #3C6DF0; stroke-width: 1.0;"/></g></svg>