<?xml version="1.0" encoding="UTF-8" standalone="no"?><svg xmlns="http://www.w3.org/2000/svg" xmlns:xlink="http://www.w3.org/1999/xlink" contentScriptType="application/ecmascript" contentStyleType="text/css" height="185px" preserveAspectRatio="none" style="width:188px;height:185px;" version="1.1" viewBox="0 0 188 185" width="188px" zoomAndPan="magnify"><defs/><g><!--class Concept--><rect fill="#F8FAFA" height="66.8438" rx="1" ry="1" style="stroke: #E3ECEC; stroke-width: 1.5;" width="181" x="6" y="8.5"/><ellipse cx="60.25" cy="24.5" fill="#FFFFFF" rx="11" ry="11" style="stroke: #E3ECEC; stroke-width: 1.0;"/><path d="M62.6953,30.1641 Q62.1484,30.4453 61.5469,30.5859 Q60.9453,30.7266 60.2813,30.7266 Q57.9219,30.7266 56.6797,29.1719 Q55.4375,27.6172 55.4375,24.6797 Q55.4375,21.7344 56.6797,20.1797 Q57.9219,18.625 60.2813,18.625 Q60.9453,18.625 61.5547,18.7656 Q62.1641,18.9063 62.6953,19.1875 L62.6953,21.75 Q62.1016,21.2031 61.543,20.9492 Q60.9844,20.6953 60.3906,20.6953 Q59.125,20.6953 58.4805,21.6992 Q57.8359,22.7031 57.8359,24.6797 Q57.8359,26.6484 58.4805,27.6523 Q59.125,28.6563 60.3906,28.6563 Q60.9844,28.6563 61.543,28.4023 Q62.1016,28.1484 62.6953,27.6016 Z "/><text fill="#19273C" font-family="sans-serif" font-size="16" lengthAdjust="spacingAndGlyphs" textLength="64" x="80.75" y="30.5469">Concept</text><line style="stroke: #E3ECEC; stroke-width: 1.5;" x1="7" x2="186" y1="40.5" y2="40.5"/><line style="stroke: #E3ECEC; stroke-width: 1.5;" x1="7" x2="186" y1="48.5" y2="48.5"/><ellipse cx="17" cy="62.9219" fill="#84BE84" rx="3" ry="3" style="stroke: #038048; stroke-width: 1.0;"/><text fill="#19273C" font-family="sans-serif" font-size="16" lengthAdjust="spacingAndGlyphs" textLength="155" x="26" y="67.9688">boolean isConcept()</text><!--class Typed--><rect fill="#F8FAFA" height="48" rx="1" ry="1" style="stroke: #E3ECEC; stroke-width: 1.5;" width="79" x="57" y="136"/><ellipse cx="72" cy="152" fill="#FFFFFF" rx="11" ry="11" style="stroke: #E3ECEC; stroke-width: 1.0;"/><path d="M74.4453,157.6641 Q73.8984,157.9453 73.2969,158.0859 Q72.6953,158.2266 72.0313,158.2266 Q69.6719,158.2266 68.4297,156.6719 Q67.1875,155.1172 67.1875,152.1797 Q67.1875,149.2344 68.4297,147.6797 Q69.6719,146.125 72.0313,146.125 Q72.6953,146.125 73.3047,146.2656 Q73.9141,146.4063 74.4453,146.6875 L74.4453,149.25 Q73.8516,148.7031 73.293,148.4492 Q72.7344,148.1953 72.1406,148.1953 Q70.875,148.1953 70.2305,149.1992 Q69.5859,150.2031 69.5859,152.1797 Q69.5859,154.1484 70.2305,155.1523 Q70.875,156.1563 72.1406,156.1563 Q72.7344,156.1563 73.293,155.9023 Q73.8516,155.6484 74.4453,155.1016 Z "/><text fill="#19273C" font-family="sans-serif" font-size="16" lengthAdjust="spacingAndGlyphs" textLength="47" x="86" y="158.0469">Typed</text><line style="stroke: #E3ECEC; stroke-width: 1.5;" x1="58" x2="135" y1="168" y2="168"/><line style="stroke: #E3ECEC; stroke-width: 1.5;" x1="58" x2="135" y1="176" y2="176"/><path d="M96.25,75.621 C96.25,88.0487 96.25,102.4125 96.25,115.6795 " fill="none" style="stroke: #3C6DF0; stroke-width: 1.0;"/><polygon fill="none" points="103.2501,115.8078,96.25,135.8077,89.2501,115.8077,103.2501,115.8078" style="stroke: #3C6DF0; stroke-width: 1.0;"/></g></svg>