<?xml version="1.0" encoding="UTF-8" standalone="no"?><svg xmlns="http://www.w3.org/2000/svg" xmlns:xlink="http://www.w3.org/1999/xlink" contentScriptType="application/ecmascript" contentStyleType="text/css" height="94px" preserveAspectRatio="none" style="width:338px;height:94px;" version="1.1" viewBox="0 0 338 94" width="338px" zoomAndPan="magnify"><defs/><g><!--class ConsoleLogger--><rect fill="#F8FAFA" height="85.6875" rx="1" ry="1" style="stroke: #E3ECEC; stroke-width: 1.5;" width="331" x="6" y="8"/><ellipse cx="108.25" cy="24" fill="#FFFFFF" rx="11" ry="11" style="stroke: #E3ECEC; stroke-width: 1.0;"/><path d="M110.6953,29.6641 Q110.1484,29.9453 109.5469,30.0859 Q108.9453,30.2266 108.2813,30.2266 Q105.9219,30.2266 104.6797,28.6719 Q103.4375,27.1172 103.4375,24.1797 Q103.4375,21.2344 104.6797,19.6797 Q105.9219,18.125 108.2813,18.125 Q108.9453,18.125 109.5547,18.2656 Q110.1641,18.4063 110.6953,18.6875 L110.6953,21.25 Q110.1016,20.7031 109.543,20.4492 Q108.9844,20.1953 108.3906,20.1953 Q107.125,20.1953 106.4805,21.1992 Q105.8359,22.2031 105.8359,24.1797 Q105.8359,26.1484 106.4805,27.1523 Q107.125,28.1563 108.3906,28.1563 Q108.9844,28.1563 109.543,27.9023 Q110.1016,27.6484 110.6953,27.1016 Z "/><text fill="#19273C" font-family="sans-serif" font-size="16" lengthAdjust="spacingAndGlyphs" textLength="118" x="128.75" y="30.0469">ConsoleLogger</text><line style="stroke: #E3ECEC; stroke-width: 1.5;" x1="7" x2="336" y1="40" y2="40"/><line style="stroke: #E3ECEC; stroke-width: 1.5;" x1="7" x2="336" y1="48" y2="48"/><ellipse cx="17" cy="62.4219" fill="#84BE84" rx="3" ry="3" style="stroke: #038048; stroke-width: 1.0;"/><text fill="#19273C" font-family="sans-serif" font-size="16" lengthAdjust="spacingAndGlyphs" textLength="295" x="26" y="67.4688">string format(string,string,undefined)</text><ellipse cx="17" cy="81.2656" fill="#84BE84" rx="3" ry="3" style="stroke: #038048; stroke-width: 1.0;"/><text fill="#19273C" font-family="sans-serif" font-size="16" lengthAdjust="spacingAndGlyphs" textLength="305" x="26" y="86.3125">void log(string,string,string,undefined)</text></g></svg>