<?xml version="1.0" encoding="UTF-8" standalone="no"?><svg xmlns="http://www.w3.org/2000/svg" xmlns:xlink="http://www.w3.org/1999/xlink" contentScriptType="application/ecmascript" contentStyleType="text/css" height="445px" preserveAspectRatio="none" style="width:1739px;height:445px;" version="1.1" viewBox="0 0 1739 445" width="1739px" zoomAndPan="magnify"><defs/><g><!--class Relationship--><rect fill="#F8FAFA" height="104.5313" rx="1" ry="1" style="stroke: #E3ECEC; stroke-width: 1.5;" width="474" x="6" y="230.5"/><ellipse cx="190.25" cy="246.5" fill="#FFFFFF" rx="11" ry="11" style="stroke: #E3ECEC; stroke-width: 1.0;"/><path d="M192.6953,252.1641 Q192.1484,252.4453 191.5469,252.5859 Q190.9453,252.7266 190.2813,252.7266 Q187.9219,252.7266 186.6797,251.1719 Q185.4375,249.6172 185.4375,246.6797 Q185.4375,243.7344 186.6797,242.1797 Q187.9219,240.625 190.2813,240.625 Q190.9453,240.625 191.5547,240.7656 Q192.1641,240.9063 192.6953,241.1875 L192.6953,243.75 Q192.1016,243.2031 191.543,242.9492 Q190.9844,242.6953 190.3906,242.6953 Q189.125,242.6953 188.4805,243.6992 Q187.8359,244.7031 187.8359,246.6797 Q187.8359,248.6484 188.4805,249.6523 Q189.125,250.6563 190.3906,250.6563 Q190.9844,250.6563 191.543,250.4023 Q192.1016,250.1484 192.6953,249.6016 Z "/><text fill="#19273C" font-family="sans-serif" font-size="16" lengthAdjust="spacingAndGlyphs" textLength="97" x="210.75" y="252.5469">Relationship</text><line style="stroke: #E3ECEC; stroke-width: 1.5;" x1="7" x2="479" y1="262.5" y2="262.5"/><line style="stroke: #E3ECEC; stroke-width: 1.5;" x1="7" x2="479" y1="270.5" y2="270.5"/><ellipse cx="17" cy="284.9219" fill="#84BE84" rx="3" ry="3" style="stroke: #038048; stroke-width: 1.0;"/><text fill="#19273C" font-family="sans-serif" font-size="16" lengthAdjust="spacingAndGlyphs" textLength="125" x="26" y="289.9688">String toString()</text><ellipse cx="17" cy="303.7656" fill="#84BE84" rx="3" ry="3" style="stroke: #038048; stroke-width: 1.0;"/><text fill="#19273C" font-family="sans-serif" font-size="16" lengthAdjust="spacingAndGlyphs" textLength="188" x="26" y="308.8125">boolean isRelationship()</text><ellipse cx="17" cy="322.6094" fill="#84BE84" rx="3" ry="3" style="stroke: #038048; stroke-width: 1.0;"/><text fill="#19273C" font-family="sans-serif" font-size="16" lengthAdjust="spacingAndGlyphs" textLength="448" x="26" y="327.6563">Relationship fromURI(ModelManager,String,String,String)</text><!--class Identifiable--><rect fill="#F8FAFA" height="48" rx="1" ry="1" style="stroke: #E3ECEC; stroke-width: 1.5;" width="121" x="365.75" y="396"/><ellipse cx="380.75" cy="412" fill="#FFFFFF" rx="11" ry="11" style="stroke: #E3ECEC; stroke-width: 1.0;"/><path d="M383.1953,417.6641 Q382.6484,417.9453 382.0469,418.0859 Q381.4453,418.2266 380.7813,418.2266 Q378.4219,418.2266 377.1797,416.6719 Q375.9375,415.1172 375.9375,412.1797 Q375.9375,409.2344 377.1797,407.6797 Q378.4219,406.125 380.7813,406.125 Q381.4453,406.125 382.0547,406.2656 Q382.6641,406.4063 383.1953,406.6875 L383.1953,409.25 Q382.6016,408.7031 382.043,408.4492 Q381.4844,408.1953 380.8906,408.1953 Q379.625,408.1953 378.9805,409.1992 Q378.3359,410.2031 378.3359,412.1797 Q378.3359,414.1484 378.9805,415.1523 Q379.625,416.1563 380.8906,416.1563 Q381.4844,416.1563 382.043,415.9023 Q382.6016,415.6484 383.1953,415.1016 Z "/><text fill="#19273C" font-family="sans-serif" font-size="16" lengthAdjust="spacingAndGlyphs" textLength="89" x="394.75" y="418.0469">Identifiable</text><line style="stroke: #E3ECEC; stroke-width: 1.5;" x1="366.75" x2="485.75" y1="428" y2="428"/><line style="stroke: #E3ECEC; stroke-width: 1.5;" x1="366.75" x2="485.75" y1="436" y2="436"/><!--class Resource--><rect fill="#F8FAFA" height="85.6875" rx="1" ry="1" style="stroke: #E3ECEC; stroke-width: 1.5;" width="188" x="515" y="240"/><ellipse cx="569.25" cy="256" fill="#FFFFFF" rx="11" ry="11" style="stroke: #E3ECEC; stroke-width: 1.0;"/><path d="M571.6953,261.6641 Q571.1484,261.9453 570.5469,262.0859 Q569.9453,262.2266 569.2813,262.2266 Q566.9219,262.2266 565.6797,260.6719 Q564.4375,259.1172 564.4375,256.1797 Q564.4375,253.2344 565.6797,251.6797 Q566.9219,250.125 569.2813,250.125 Q569.9453,250.125 570.5547,250.2656 Q571.1641,250.4063 571.6953,250.6875 L571.6953,253.25 Q571.1016,252.7031 570.543,252.4492 Q569.9844,252.1953 569.3906,252.1953 Q568.125,252.1953 567.4805,253.1992 Q566.8359,254.2031 566.8359,256.1797 Q566.8359,258.1484 567.4805,259.1523 Q568.125,260.1563 569.3906,260.1563 Q569.9844,260.1563 570.543,259.9023 Q571.1016,259.6484 571.6953,259.1016 Z "/><text fill="#19273C" font-family="sans-serif" font-size="16" lengthAdjust="spacingAndGlyphs" textLength="71" x="589.75" y="262.0469">Resource</text><line style="stroke: #E3ECEC; stroke-width: 1.5;" x1="516" x2="702" y1="272" y2="272"/><line style="stroke: #E3ECEC; stroke-width: 1.5;" x1="516" x2="702" y1="280" y2="280"/><ellipse cx="526" cy="294.4219" fill="#84BE84" rx="3" ry="3" style="stroke: #038048; stroke-width: 1.0;"/><text fill="#19273C" font-family="sans-serif" font-size="16" lengthAdjust="spacingAndGlyphs" textLength="125" x="535" y="299.4688">String toString()</text><ellipse cx="526" cy="313.2656" fill="#84BE84" rx="3" ry="3" style="stroke: #038048; stroke-width: 1.0;"/><text fill="#19273C" font-family="sans-serif" font-size="16" lengthAdjust="spacingAndGlyphs" textLength="162" x="535" y="318.3125">boolean isResource()</text><!--class ValidatedResource--><rect fill="#F8FAFA" height="104.5313" rx="1" ry="1" style="stroke: #E3ECEC; stroke-width: 1.5;" width="303" x="457.75" y="36.5"/><ellipse cx="533" cy="52.5" fill="#FFFFFF" rx="11" ry="11" style="stroke: #E3ECEC; stroke-width: 1.0;"/><path d="M535.4453,58.1641 Q534.8984,58.4453 534.2969,58.5859 Q533.6953,58.7266 533.0313,58.7266 Q530.6719,58.7266 529.4297,57.1719 Q528.1875,55.6172 528.1875,52.6797 Q528.1875,49.7344 529.4297,48.1797 Q530.6719,46.625 533.0313,46.625 Q533.6953,46.625 534.3047,46.7656 Q534.9141,46.9063 535.4453,47.1875 L535.4453,49.75 Q534.8516,49.2031 534.293,48.9492 Q533.7344,48.6953 533.1406,48.6953 Q531.875,48.6953 531.2305,49.6992 Q530.5859,50.7031 530.5859,52.6797 Q530.5859,54.6484 531.2305,55.6523 Q531.875,56.6563 533.1406,56.6563 Q533.7344,56.6563 534.293,56.4023 Q534.8516,56.1484 535.4453,55.6016 Z "/><text fill="#19273C" font-family="sans-serif" font-size="16" lengthAdjust="spacingAndGlyphs" textLength="144" x="553.5" y="58.5469">ValidatedResource</text><line style="stroke: #E3ECEC; stroke-width: 1.5;" x1="458.75" x2="759.75" y1="68.5" y2="68.5"/><line style="stroke: #E3ECEC; stroke-width: 1.5;" x1="458.75" x2="759.75" y1="76.5" y2="76.5"/><ellipse cx="468.75" cy="90.9219" fill="#84BE84" rx="3" ry="3" style="stroke: #038048; stroke-width: 1.0;"/><text fill="#19273C" font-family="sans-serif" font-size="16" lengthAdjust="spacingAndGlyphs" textLength="277" x="477.75" y="95.9688">void setPropertyValue(string,string)</text><ellipse cx="468.75" cy="109.7656" fill="#84BE84" rx="3" ry="3" style="stroke: #038048; stroke-width: 1.0;"/><text fill="#19273C" font-family="sans-serif" font-size="16" lengthAdjust="spacingAndGlyphs" textLength="259" x="477.75" y="114.8125">void addArrayValue(string,string)</text><ellipse cx="468.75" cy="128.6094" fill="#84BE84" rx="3" ry="3" style="stroke: #038048; stroke-width: 1.0;"/><text fill="#19273C" font-family="sans-serif" font-size="16" lengthAdjust="spacingAndGlyphs" textLength="109" x="477.75" y="133.6563">void validate()</text><!--class Concept--><rect fill="#F8FAFA" height="66.8438" rx="1" ry="1" style="stroke: #E3ECEC; stroke-width: 1.5;" width="181" x="856.75" y="249.5"/><ellipse cx="911" cy="265.5" fill="#FFFFFF" rx="11" ry="11" style="stroke: #E3ECEC; stroke-width: 1.0;"/><path d="M913.4453,271.1641 Q912.8984,271.4453 912.2969,271.5859 Q911.6953,271.7266 911.0313,271.7266 Q908.6719,271.7266 907.4297,270.1719 Q906.1875,268.6172 906.1875,265.6797 Q906.1875,262.7344 907.4297,261.1797 Q908.6719,259.625 911.0313,259.625 Q911.6953,259.625 912.3047,259.7656 Q912.9141,259.9063 913.4453,260.1875 L913.4453,262.75 Q912.8516,262.2031 912.293,261.9492 Q911.7344,261.6953 911.1406,261.6953 Q909.875,261.6953 909.2305,262.6992 Q908.5859,263.7031 908.5859,265.6797 Q908.5859,267.6484 909.2305,268.6523 Q909.875,269.6563 911.1406,269.6563 Q911.7344,269.6563 912.293,269.4023 Q912.8516,269.1484 913.4453,268.6016 Z "/><text fill="#19273C" font-family="sans-serif" font-size="16" lengthAdjust="spacingAndGlyphs" textLength="64" x="931.5" y="271.5469">Concept</text><line style="stroke: #E3ECEC; stroke-width: 1.5;" x1="857.75" x2="1036.75" y1="281.5" y2="281.5"/><line style="stroke: #E3ECEC; stroke-width: 1.5;" x1="857.75" x2="1036.75" y1="289.5" y2="289.5"/><ellipse cx="867.75" cy="303.9219" fill="#84BE84" rx="3" ry="3" style="stroke: #038048; stroke-width: 1.0;"/><text fill="#19273C" font-family="sans-serif" font-size="16" lengthAdjust="spacingAndGlyphs" textLength="155" x="876.75" y="308.9688">boolean isConcept()</text><!--class Typed--><rect fill="#F8FAFA" height="48" rx="1" ry="1" style="stroke: #E3ECEC; stroke-width: 1.5;" width="79" x="907.75" y="396"/><ellipse cx="922.75" cy="412" fill="#FFFFFF" rx="11" ry="11" style="stroke: #E3ECEC; stroke-width: 1.0;"/><path d="M925.1953,417.6641 Q924.6484,417.9453 924.0469,418.0859 Q923.4453,418.2266 922.7813,418.2266 Q920.4219,418.2266 919.1797,416.6719 Q917.9375,415.1172 917.9375,412.1797 Q917.9375,409.2344 919.1797,407.6797 Q920.4219,406.125 922.7813,406.125 Q923.4453,406.125 924.0547,406.2656 Q924.6641,406.4063 925.1953,406.6875 L925.1953,409.25 Q924.6016,408.7031 924.043,408.4492 Q923.4844,408.1953 922.8906,408.1953 Q921.625,408.1953 920.9805,409.1992 Q920.3359,410.2031 920.3359,412.1797 Q920.3359,414.1484 920.9805,415.1523 Q921.625,416.1563 922.8906,416.1563 Q923.4844,416.1563 924.043,415.9023 Q924.6016,415.6484 925.1953,415.1016 Z "/><text fill="#19273C" font-family="sans-serif" font-size="16" lengthAdjust="spacingAndGlyphs" textLength="47" x="936.75" y="418.0469">Typed</text><line style="stroke: #E3ECEC; stroke-width: 1.5;" x1="908.75" x2="985.75" y1="428" y2="428"/><line style="stroke: #E3ECEC; stroke-width: 1.5;" x1="908.75" x2="985.75" y1="436" y2="436"/><!--class ValidatedConcept--><rect fill="#F8FAFA" height="104.5313" rx="1" ry="1" style="stroke: #E3ECEC; stroke-width: 1.5;" width="303" x="795.75" y="36.5"/><ellipse cx="874.5" cy="52.5" fill="#FFFFFF" rx="11" ry="11" style="stroke: #E3ECEC; stroke-width: 1.0;"/><path d="M876.9453,58.1641 Q876.3984,58.4453 875.7969,58.5859 Q875.1953,58.7266 874.5313,58.7266 Q872.1719,58.7266 870.9297,57.1719 Q869.6875,55.6172 869.6875,52.6797 Q869.6875,49.7344 870.9297,48.1797 Q872.1719,46.625 874.5313,46.625 Q875.1953,46.625 875.8047,46.7656 Q876.4141,46.9063 876.9453,47.1875 L876.9453,49.75 Q876.3516,49.2031 875.793,48.9492 Q875.2344,48.6953 874.6406,48.6953 Q873.375,48.6953 872.7305,49.6992 Q872.0859,50.7031 872.0859,52.6797 Q872.0859,54.6484 872.7305,55.6523 Q873.375,56.6563 874.6406,56.6563 Q875.2344,56.6563 875.793,56.4023 Q876.3516,56.1484 876.9453,55.6016 Z "/><text fill="#19273C" font-family="sans-serif" font-size="16" lengthAdjust="spacingAndGlyphs" textLength="137" x="895" y="58.5469">ValidatedConcept</text><line style="stroke: #E3ECEC; stroke-width: 1.5;" x1="796.75" x2="1097.75" y1="68.5" y2="68.5"/><line style="stroke: #E3ECEC; stroke-width: 1.5;" x1="796.75" x2="1097.75" y1="76.5" y2="76.5"/><ellipse cx="806.75" cy="90.9219" fill="#84BE84" rx="3" ry="3" style="stroke: #038048; stroke-width: 1.0;"/><text fill="#19273C" font-family="sans-serif" font-size="16" lengthAdjust="spacingAndGlyphs" textLength="277" x="815.75" y="95.9688">void setPropertyValue(string,string)</text><ellipse cx="806.75" cy="109.7656" fill="#84BE84" rx="3" ry="3" style="stroke: #038048; stroke-width: 1.0;"/><text fill="#19273C" font-family="sans-serif" font-size="16" lengthAdjust="spacingAndGlyphs" textLength="259" x="815.75" y="114.8125">void addArrayValue(string,string)</text><ellipse cx="806.75" cy="128.6094" fill="#84BE84" rx="3" ry="3" style="stroke: #038048; stroke-width: 1.0;"/><text fill="#19273C" font-family="sans-serif" font-size="16" lengthAdjust="spacingAndGlyphs" textLength="109" x="815.75" y="133.6563">void validate()</text><!--class Factory--><rect fill="#F8FAFA" height="161.0625" rx="1" ry="1" style="stroke: #E3ECEC; stroke-width: 1.5;" width="604" x="1134" y="8.5"/><ellipse cx="1403.25" cy="24.5" fill="#FFFFFF" rx="11" ry="11" style="stroke: #E3ECEC; stroke-width: 1.0;"/><path d="M1405.6953,30.1641 Q1405.1484,30.4453 1404.5469,30.5859 Q1403.9453,30.7266 1403.2813,30.7266 Q1400.9219,30.7266 1399.6797,29.1719 Q1398.4375,27.6172 1398.4375,24.6797 Q1398.4375,21.7344 1399.6797,20.1797 Q1400.9219,18.625 1403.2813,18.625 Q1403.9453,18.625 1404.5547,18.7656 Q1405.1641,18.9063 1405.6953,19.1875 L1405.6953,21.75 Q1405.1016,21.2031 1404.543,20.9492 Q1403.9844,20.6953 1403.3906,20.6953 Q1402.125,20.6953 1401.4805,21.6992 Q1400.8359,22.7031 1400.8359,24.6797 Q1400.8359,26.6484 1401.4805,27.6523 Q1402.125,28.6563 1403.3906,28.6563 Q1403.9844,28.6563 1404.543,28.4023 Q1405.1016,28.1484 1405.6953,27.6016 Z "/><text fill="#19273C" font-family="sans-serif" font-size="16" lengthAdjust="spacingAndGlyphs" textLength="57" x="1423.75" y="30.5469">Factory</text><line style="stroke: #E3ECEC; stroke-width: 1.5;" x1="1135" x2="1737" y1="40.5" y2="40.5"/><line style="stroke: #E3ECEC; stroke-width: 1.5;" x1="1135" x2="1737" y1="48.5" y2="48.5"/><ellipse cx="1145" cy="62.9219" fill="#84BE84" rx="3" ry="3" style="stroke: #038048; stroke-width: 1.0;"/><text fill="#19273C" font-family="sans-serif" font-size="16" lengthAdjust="spacingAndGlyphs" textLength="254" x="1154" y="67.9688">void constructor(ModelManager)</text><ellipse cx="1145" cy="81.7656" fill="#84BE84" rx="3" ry="3" style="stroke: #038048; stroke-width: 1.0;"/><text fill="#19273C" font-family="sans-serif" font-size="16" lengthAdjust="spacingAndGlyphs" textLength="578" x="1154" y="86.8125">Resource newResource(string,string,string,Object,boolean,string,boolean)</text><ellipse cx="1145" cy="100.6094" fill="#84BE84" rx="3" ry="3" style="stroke: #038048; stroke-width: 1.0;"/><text fill="#19273C" font-family="sans-serif" font-size="16" lengthAdjust="spacingAndGlyphs" textLength="520" x="1154" y="105.6563">Resource newConcept(string,string,Object,boolean,string,boolean)</text><ellipse cx="1145" cy="119.4531" fill="#84BE84" rx="3" ry="3" style="stroke: #038048; stroke-width: 1.0;"/><text fill="#19273C" font-family="sans-serif" font-size="16" lengthAdjust="spacingAndGlyphs" textLength="388" x="1154" y="124.5">Relationship newRelationship(string,string,string)</text><ellipse cx="1145" cy="138.2969" fill="#84BE84" rx="3" ry="3" style="stroke: #038048; stroke-width: 1.0;"/><text fill="#19273C" font-family="sans-serif" font-size="16" lengthAdjust="spacingAndGlyphs" textLength="531" x="1154" y="143.3438">Resource newTransaction(string,string,string,Object,string,boolean)</text><ellipse cx="1145" cy="157.1406" fill="#84BE84" rx="3" ry="3" style="stroke: #038048; stroke-width: 1.0;"/><text fill="#19273C" font-family="sans-serif" font-size="16" lengthAdjust="spacingAndGlyphs" textLength="481" x="1154" y="162.1875">Resource newEvent(string,string,string,Object,string,boolean)</text><path d="M312.968,335.616 C334.93,351.8169 358.646,369.3127 378.656,384.0744 " fill="none" style="stroke: #3C6DF0; stroke-width: 1.0;"/><polygon fill="none" points="382.872,378.4854,394.811,395.9915,374.561,389.7516,382.872,378.4854" style="stroke: #3C6DF0; stroke-width: 1.0;"/><path d="M551.85,326.16 C526.703,344.7113 497.505,366.2505 473.567,383.9093 " fill="none" style="stroke: #3C6DF0; stroke-width: 1.0;"/><polygon fill="none" points="477.45,389.7438,457.2,395.9838,469.139,378.4777,477.45,389.7438" style="stroke: #3C6DF0; stroke-width: 1.0;"/><path d="M609,141.705 C609,165.741 609,194.522 609,219.743 " fill="none" style="stroke: #3C6DF0; stroke-width: 1.0;"/><polygon fill="none" points="616,219.909,609,239.909,602,219.909,616,219.909" style="stroke: #3C6DF0; stroke-width: 1.0;"/><path d="M947,316.68 C947,334.387 947,356.4963 947,375.6279 " fill="none" style="stroke: #3C6DF0; stroke-width: 1.0;"/><polygon fill="none" points="954,375.9222,947,395.9221,940,375.9221,954,375.9222" style="stroke: #3C6DF0; stroke-width: 1.0;"/><path d="M947,141.705 C947,168.698 947,201.676 947,228.875 " fill="none" style="stroke: #3C6DF0; stroke-width: 1.0;"/><polygon fill="none" points="954,229.224,947,249.224,940,229.224,954,229.224" style="stroke: #3C6DF0; stroke-width: 1.0;"/></g></svg>