<?xml version="1.0" encoding="UTF-8" standalone="no"?><svg xmlns="http://www.w3.org/2000/svg" xmlns:xlink="http://www.w3.org/1999/xlink" contentScriptType="application/ecmascript" contentStyleType="text/css" height="468px" preserveAspectRatio="none" style="width:327px;height:468px;" version="1.1" viewBox="0 0 327 468" width="327px" zoomAndPan="magnify"><defs/><g><!--class Wallet--><rect fill="#F8FAFA" height="198.75" rx="1" ry="1" style="stroke: #E3ECEC; stroke-width: 1.5;" width="255" x="38.75" y="268.5"/><ellipse cx="138" cy="284.5" fill="#FFFFFF" rx="11" ry="11" style="stroke: #E3ECEC; stroke-width: 1.0;"/><path d="M140.4453,290.1641 Q139.8984,290.4453 139.2969,290.5859 Q138.6953,290.7266 138.0313,290.7266 Q135.6719,290.7266 134.4297,289.1719 Q133.1875,287.6172 133.1875,284.6797 Q133.1875,281.7344 134.4297,280.1797 Q135.6719,278.625 138.0313,278.625 Q138.6953,278.625 139.3047,278.7656 Q139.9141,278.9063 140.4453,279.1875 L140.4453,281.75 Q139.8516,281.2031 139.293,280.9492 Q138.7344,280.6953 138.1406,280.6953 Q136.875,280.6953 136.2305,281.6992 Q135.5859,282.7031 135.5859,284.6797 Q135.5859,286.6484 136.2305,287.6523 Q136.875,288.6563 138.1406,288.6563 Q138.7344,288.6563 139.293,288.4023 Q139.8516,288.1484 140.4453,287.6016 Z "/><text fill="#19273C" font-family="sans-serif" font-size="16" lengthAdjust="spacingAndGlyphs" textLength="48" x="158.5" y="290.5469">Wallet</text><line style="stroke: #E3ECEC; stroke-width: 1.5;" x1="39.75" x2="292.75" y1="300.5" y2="300.5"/><line style="stroke: #E3ECEC; stroke-width: 1.5;" x1="39.75" x2="292.75" y1="308.5" y2="308.5"/><ellipse cx="49.75" cy="322.9219" fill="#84BE84" rx="3" ry="3" style="stroke: #038048; stroke-width: 1.0;"/><text fill="#19273C" font-family="sans-serif" font-size="16" lengthAdjust="spacingAndGlyphs" textLength="136" x="58.75" y="327.9688">Wallet getWallet()</text><ellipse cx="49.75" cy="341.7656" fill="#84BE84" rx="3" ry="3" style="stroke: #038048; stroke-width: 1.0;"/><text fill="#19273C" font-family="sans-serif" font-size="16" lengthAdjust="spacingAndGlyphs" textLength="167" x="58.75" y="346.8125">void setWallet(Wallet)</text><ellipse cx="49.75" cy="360.6094" fill="#84BE84" rx="3" ry="3" style="stroke: #038048; stroke-width: 1.0;"/><text fill="#19273C" font-family="sans-serif" font-size="16" lengthAdjust="spacingAndGlyphs" textLength="102" x="58.75" y="365.6563">Promise list()</text><ellipse cx="49.75" cy="379.4531" fill="#84BE84" rx="3" ry="3" style="stroke: #038048; stroke-width: 1.0;"/><text fill="#19273C" font-family="sans-serif" font-size="16" lengthAdjust="spacingAndGlyphs" textLength="190" x="58.75" y="384.5">Promise contains(string)</text><ellipse cx="49.75" cy="398.2969" fill="#84BE84" rx="3" ry="3" style="stroke: #038048; stroke-width: 1.0;"/><text fill="#19273C" font-family="sans-serif" font-size="16" lengthAdjust="spacingAndGlyphs" textLength="149" x="58.75" y="403.3438">Promise get(string)</text><ellipse cx="49.75" cy="417.1406" fill="#84BE84" rx="3" ry="3" style="stroke: #038048; stroke-width: 1.0;"/><text fill="#19273C" font-family="sans-serif" font-size="16" lengthAdjust="spacingAndGlyphs" textLength="204" x="58.75" y="422.1875">Promise add(string,string)</text><ellipse cx="49.75" cy="435.9844" fill="#84BE84" rx="3" ry="3" style="stroke: #038048; stroke-width: 1.0;"/><text fill="#19273C" font-family="sans-serif" font-size="16" lengthAdjust="spacingAndGlyphs" textLength="229" x="58.75" y="441.0313">Promise update(string,string)</text><ellipse cx="49.75" cy="454.8281" fill="#84BE84" rx="3" ry="3" style="stroke: #038048; stroke-width: 1.0;"/><text fill="#19273C" font-family="sans-serif" font-size="16" lengthAdjust="spacingAndGlyphs" textLength="182" x="58.75" y="459.875">Promise remove(string)</text><!--class FileWallet--><rect fill="#F8FAFA" height="198.75" rx="1" ry="1" style="stroke: #E3ECEC; stroke-width: 1.5;" width="320" x="6" y="8.5"/><ellipse cx="123.75" cy="24.5" fill="#FFFFFF" rx="11" ry="11" style="stroke: #E3ECEC; stroke-width: 1.0;"/><path d="M126.1953,30.1641 Q125.6484,30.4453 125.0469,30.5859 Q124.4453,30.7266 123.7813,30.7266 Q121.4219,30.7266 120.1797,29.1719 Q118.9375,27.6172 118.9375,24.6797 Q118.9375,21.7344 120.1797,20.1797 Q121.4219,18.625 123.7813,18.625 Q124.4453,18.625 125.0547,18.7656 Q125.6641,18.9063 126.1953,19.1875 L126.1953,21.75 Q125.6016,21.2031 125.043,20.9492 Q124.4844,20.6953 123.8906,20.6953 Q122.625,20.6953 121.9805,21.6992 Q121.3359,22.7031 121.3359,24.6797 Q121.3359,26.6484 121.9805,27.6523 Q122.625,28.6563 123.8906,28.6563 Q124.4844,28.6563 125.043,28.4023 Q125.6016,28.1484 126.1953,27.6016 Z "/><text fill="#19273C" font-family="sans-serif" font-size="16" lengthAdjust="spacingAndGlyphs" textLength="76" x="144.25" y="30.5469">FileWallet</text><line style="stroke: #E3ECEC; stroke-width: 1.5;" x1="7" x2="325" y1="40.5" y2="40.5"/><line style="stroke: #E3ECEC; stroke-width: 1.5;" x1="7" x2="325" y1="48.5" y2="48.5"/><ellipse cx="17" cy="62.9219" fill="#84BE84" rx="3" ry="3" style="stroke: #038048; stroke-width: 1.0;"/><text fill="#19273C" font-family="sans-serif" font-size="16" lengthAdjust="spacingAndGlyphs" textLength="204" x="26" y="67.9688">string getHomeDirectory()</text><ellipse cx="17" cy="81.7656" fill="#84BE84" rx="3" ry="3" style="stroke: #038048; stroke-width: 1.0;"/><text fill="#19273C" font-family="sans-serif" font-size="16" lengthAdjust="spacingAndGlyphs" textLength="294" x="26" y="86.8125">void constructor(Object,string,Object)</text><ellipse cx="17" cy="100.6094" fill="#84BE84" rx="3" ry="3" style="stroke: #038048; stroke-width: 1.0;"/><text fill="#19273C" font-family="sans-serif" font-size="16" lengthAdjust="spacingAndGlyphs" textLength="102" x="26" y="105.6563">Promise list()</text><ellipse cx="17" cy="119.4531" fill="#84BE84" rx="3" ry="3" style="stroke: #038048; stroke-width: 1.0;"/><text fill="#19273C" font-family="sans-serif" font-size="16" lengthAdjust="spacingAndGlyphs" textLength="190" x="26" y="124.5">Promise contains(string)</text><ellipse cx="17" cy="138.2969" fill="#84BE84" rx="3" ry="3" style="stroke: #038048; stroke-width: 1.0;"/><text fill="#19273C" font-family="sans-serif" font-size="16" lengthAdjust="spacingAndGlyphs" textLength="149" x="26" y="143.3438">Promise get(string)</text><ellipse cx="17" cy="157.1406" fill="#84BE84" rx="3" ry="3" style="stroke: #038048; stroke-width: 1.0;"/><text fill="#19273C" font-family="sans-serif" font-size="16" lengthAdjust="spacingAndGlyphs" textLength="204" x="26" y="162.1875">Promise add(string,string)</text><ellipse cx="17" cy="175.9844" fill="#84BE84" rx="3" ry="3" style="stroke: #038048; stroke-width: 1.0;"/><text fill="#19273C" font-family="sans-serif" font-size="16" lengthAdjust="spacingAndGlyphs" textLength="229" x="26" y="181.0313">Promise update(string,string)</text><ellipse cx="17" cy="194.8281" fill="#84BE84" rx="3" ry="3" style="stroke: #038048; stroke-width: 1.0;"/><text fill="#19273C" font-family="sans-serif" font-size="16" lengthAdjust="spacingAndGlyphs" textLength="182" x="26" y="199.875">Promise remove(string)</text><path d="M166,207.643 C166,220.868 166,234.545 166,248.073 " fill="none" style="stroke: #3C6DF0; stroke-width: 1.0;"/><polygon fill="none" points="173,248.412,166,268.412,159,248.412,173,248.412" style="stroke: #3C6DF0; stroke-width: 1.0;"/></g></svg>