<?xml version="1.0" encoding="UTF-8" standalone="no"?><svg xmlns="http://www.w3.org/2000/svg" xmlns:xlink="http://www.w3.org/1999/xlink" contentScriptType="application/ecmascript" contentStyleType="text/css" height="245px" preserveAspectRatio="none" style="width:298px;height:245px;" version="1.1" viewBox="0 0 298 245" width="298px" zoomAndPan="magnify"><defs/><g><!--class IdCard--><rect fill="#F8FAFA" height="236.4375" rx="1" ry="1" style="stroke: #E3ECEC; stroke-width: 1.5;" width="291" x="6" y="8"/><ellipse cx="121.25" cy="24" fill="#FFFFFF" rx="11" ry="11" style="stroke: #E3ECEC; stroke-width: 1.0;"/><path d="M123.6953,29.6641 Q123.1484,29.9453 122.5469,30.0859 Q121.9453,30.2266 121.2813,30.2266 Q118.9219,30.2266 117.6797,28.6719 Q116.4375,27.1172 116.4375,24.1797 Q116.4375,21.2344 117.6797,19.6797 Q118.9219,18.125 121.2813,18.125 Q121.9453,18.125 122.5547,18.2656 Q123.1641,18.4063 123.6953,18.6875 L123.6953,21.25 Q123.1016,20.7031 122.543,20.4492 Q121.9844,20.1953 121.3906,20.1953 Q120.125,20.1953 119.4805,21.1992 Q118.8359,22.2031 118.8359,24.1797 Q118.8359,26.1484 119.4805,27.1523 Q120.125,28.1563 121.3906,28.1563 Q121.9844,28.1563 122.543,27.9023 Q123.1016,27.6484 123.6953,27.1016 Z "/><text fill="#19273C" font-family="sans-serif" font-size="16" lengthAdjust="spacingAndGlyphs" textLength="52" x="141.75" y="30.0469">IdCard</text><line style="stroke: #E3ECEC; stroke-width: 1.5;" x1="7" x2="296" y1="40" y2="40"/><line style="stroke: #E3ECEC; stroke-width: 1.5;" x1="7" x2="296" y1="48" y2="48"/><ellipse cx="17" cy="62.4219" fill="#84BE84" rx="3" ry="3" style="stroke: #038048; stroke-width: 1.0;"/><text fill="#19273C" font-family="sans-serif" font-size="16" lengthAdjust="spacingAndGlyphs" textLength="167" x="26" y="67.4688">String getUserName()</text><ellipse cx="17" cy="81.2656" fill="#84BE84" rx="3" ry="3" style="stroke: #038048; stroke-width: 1.0;"/><text fill="#19273C" font-family="sans-serif" font-size="16" lengthAdjust="spacingAndGlyphs" textLength="177" x="26" y="86.3125">String getDescription()</text><ellipse cx="17" cy="100.1094" fill="#84BE84" rx="3" ry="3" style="stroke: #038048; stroke-width: 1.0;"/><text fill="#19273C" font-family="sans-serif" font-size="16" lengthAdjust="spacingAndGlyphs" textLength="264" x="26" y="105.1563">String getBusinessNetworkName()</text><ellipse cx="17" cy="118.9531" fill="#84BE84" rx="3" ry="3" style="stroke: #038048; stroke-width: 1.0;"/><text fill="#19273C" font-family="sans-serif" font-size="16" lengthAdjust="spacingAndGlyphs" textLength="230" x="26" y="124">Object getConnectionProfile()</text><ellipse cx="17" cy="137.7969" fill="#84BE84" rx="3" ry="3" style="stroke: #038048; stroke-width: 1.0;"/><text fill="#19273C" font-family="sans-serif" font-size="16" lengthAdjust="spacingAndGlyphs" textLength="179" x="26" y="142.8438">Object getCredentials()</text><ellipse cx="17" cy="156.6406" fill="#84BE84" rx="3" ry="3" style="stroke: #038048; stroke-width: 1.0;"/><text fill="#19273C" font-family="sans-serif" font-size="16" lengthAdjust="spacingAndGlyphs" textLength="210" x="26" y="161.6875">void setCredentials(Object)</text><ellipse cx="17" cy="175.4844" fill="#84BE84" rx="3" ry="3" style="stroke: #038048; stroke-width: 1.0;"/><text fill="#19273C" font-family="sans-serif" font-size="16" lengthAdjust="spacingAndGlyphs" textLength="265" x="26" y="180.5313">Object getEnrollmentCredentials()</text><ellipse cx="17" cy="194.3281" fill="#84BE84" rx="3" ry="3" style="stroke: #038048; stroke-width: 1.0;"/><text fill="#19273C" font-family="sans-serif" font-size="16" lengthAdjust="spacingAndGlyphs" textLength="139" x="26" y="199.375">String[] getRoles()</text><ellipse cx="17" cy="213.1719" fill="#84BE84" rx="3" ry="3" style="stroke: #038048; stroke-width: 1.0;"/><text fill="#19273C" font-family="sans-serif" font-size="16" lengthAdjust="spacingAndGlyphs" textLength="174" x="26" y="218.2188">Promise fromArchive()</text><ellipse cx="17" cy="232.0156" fill="#84BE84" rx="3" ry="3" style="stroke: #038048; stroke-width: 1.0;"/><text fill="#19273C" font-family="sans-serif" font-size="16" lengthAdjust="spacingAndGlyphs" textLength="254" x="26" y="237.0625">Promise toArchive(Object,String)</text></g></svg>