<?xml version="1.0" encoding="UTF-8" standalone="no"?><svg xmlns="http://www.w3.org/2000/svg" xmlns:xlink="http://www.w3.org/1999/xlink" contentScriptType="application/ecmascript" contentStyleType="text/css" height="486px" preserveAspectRatio="none" style="width:936px;height:486px;" version="1.1" viewBox="0 0 936 486" width="936px" zoomAndPan="magnify"><defs/><g><!--class Registry--><rect fill="#F8FAFA" height="349.5" rx="1" ry="1" style="stroke: #E3ECEC; stroke-width: 1.5;" width="929" x="6" y="136"/><ellipse cx="434.75" cy="152" fill="#FFFFFF" rx="11" ry="11" style="stroke: #E3ECEC; stroke-width: 1.0;"/><path d="M437.1953,157.6641 Q436.6484,157.9453 436.0469,158.0859 Q435.4453,158.2266 434.7813,158.2266 Q432.4219,158.2266 431.1797,156.6719 Q429.9375,155.1172 429.9375,152.1797 Q429.9375,149.2344 431.1797,147.6797 Q432.4219,146.125 434.7813,146.125 Q435.4453,146.125 436.0547,146.2656 Q436.6641,146.4063 437.1953,146.6875 L437.1953,149.25 Q436.6016,148.7031 436.043,148.4492 Q435.4844,148.1953 434.8906,148.1953 Q433.625,148.1953 432.9805,149.1992 Q432.3359,150.2031 432.3359,152.1797 Q432.3359,154.1484 432.9805,155.1523 Q433.625,156.1563 434.8906,156.1563 Q435.4844,156.1563 436.043,155.9023 Q436.6016,155.6484 437.1953,155.1016 Z "/><text fill="#19273C" font-family="sans-serif" font-size="16" lengthAdjust="spacingAndGlyphs" textLength="63" x="455.25" y="158.0469">Registry</text><line style="stroke: #E3ECEC; stroke-width: 1.5;" x1="7" x2="934" y1="168" y2="168"/><line style="stroke: #E3ECEC; stroke-width: 1.5;" x1="7" x2="934" y1="176" y2="176"/><ellipse cx="17" cy="190.4219" fill="#84BE84" rx="3" ry="3" style="stroke: #038048; stroke-width: 1.0;"/><text fill="#19273C" font-family="sans-serif" font-size="16" lengthAdjust="spacingAndGlyphs" textLength="444" x="26" y="195.4688">Promise getAllRegistries(SecurityContext,string,boolean)</text><ellipse cx="17" cy="209.2656" fill="#84BE84" rx="3" ry="3" style="stroke: #038048; stroke-width: 1.0;"/><text fill="#19273C" font-family="sans-serif" font-size="16" lengthAdjust="spacingAndGlyphs" textLength="392" x="26" y="214.3125">Promise getRegistry(SecurityContext,string,string)</text><ellipse cx="17" cy="228.1094" fill="#84BE84" rx="3" ry="3" style="stroke: #038048; stroke-width: 1.0;"/><text fill="#19273C" font-family="sans-serif" font-size="16" lengthAdjust="spacingAndGlyphs" textLength="413" x="26" y="233.1563">Promise existsRegistry(SecurityContext,string,string)</text><ellipse cx="17" cy="246.9531" fill="#84BE84" rx="3" ry="3" style="stroke: #038048; stroke-width: 1.0;"/><text fill="#19273C" font-family="sans-serif" font-size="16" lengthAdjust="spacingAndGlyphs" textLength="447" x="26" y="252">Promise addRegistry(SecurityContext,string,string,string)</text><ellipse cx="17" cy="265.7969" fill="#84BE84" rx="3" ry="3" style="stroke: #038048; stroke-width: 1.0;"/><text fill="#19273C" font-family="sans-serif" font-size="16" lengthAdjust="spacingAndGlyphs" textLength="903" x="26" y="270.8438">void constructor(string,string,string,SecurityContext,ModelManager,Factory,Serializer,BusinessNetworkConnection)</text><ellipse cx="17" cy="284.6406" fill="#84BE84" rx="3" ry="3" style="stroke: #038048; stroke-width: 1.0;"/><text fill="#19273C" font-family="sans-serif" font-size="16" lengthAdjust="spacingAndGlyphs" textLength="209" x="26" y="289.6875">Promise addAll(Resource[])</text><ellipse cx="17" cy="303.4844" fill="#84BE84" rx="3" ry="3" style="stroke: #038048; stroke-width: 1.0;"/><text fill="#19273C" font-family="sans-serif" font-size="16" lengthAdjust="spacingAndGlyphs" textLength="178" x="26" y="308.5313">Promise add(Resource)</text><ellipse cx="17" cy="322.3281" fill="#84BE84" rx="3" ry="3" style="stroke: #038048; stroke-width: 1.0;"/><text fill="#19273C" font-family="sans-serif" font-size="16" lengthAdjust="spacingAndGlyphs" textLength="234" x="26" y="327.375">Promise updateAll(Resource[])</text><ellipse cx="17" cy="341.1719" fill="#84BE84" rx="3" ry="3" style="stroke: #038048; stroke-width: 1.0;"/><text fill="#19273C" font-family="sans-serif" font-size="16" lengthAdjust="spacingAndGlyphs" textLength="203" x="26" y="346.2188">Promise update(Resource)</text><ellipse cx="17" cy="360.0156" fill="#84BE84" rx="3" ry="3" style="stroke: #038048; stroke-width: 1.0;"/><text fill="#19273C" font-family="sans-serif" font-size="16" lengthAdjust="spacingAndGlyphs" textLength="157" x="26" y="365.0625">Promise removeAll()</text><ellipse cx="17" cy="378.8594" fill="#84BE84" rx="3" ry="3" style="stroke: #038048; stroke-width: 1.0;"/><text fill="#19273C" font-family="sans-serif" font-size="16" lengthAdjust="spacingAndGlyphs" textLength="136" x="26" y="383.9063">Promise remove()</text><ellipse cx="17" cy="397.7031" fill="#84BE84" rx="3" ry="3" style="stroke: #038048; stroke-width: 1.0;"/><text fill="#19273C" font-family="sans-serif" font-size="16" lengthAdjust="spacingAndGlyphs" textLength="124" x="26" y="402.75">Promise getAll()</text><ellipse cx="17" cy="416.5469" fill="#84BE84" rx="3" ry="3" style="stroke: #038048; stroke-width: 1.0;"/><text fill="#19273C" font-family="sans-serif" font-size="16" lengthAdjust="spacingAndGlyphs" textLength="149" x="26" y="421.5938">Promise get(string)</text><ellipse cx="17" cy="435.3906" fill="#84BE84" rx="3" ry="3" style="stroke: #038048; stroke-width: 1.0;"/><text fill="#19273C" font-family="sans-serif" font-size="16" lengthAdjust="spacingAndGlyphs" textLength="170" x="26" y="440.4375">Promise exists(string)</text><ellipse cx="17" cy="454.2344" fill="#84BE84" rx="3" ry="3" style="stroke: #038048; stroke-width: 1.0;"/><text fill="#19273C" font-family="sans-serif" font-size="16" lengthAdjust="spacingAndGlyphs" textLength="155" x="26" y="459.2813">Promise resolveAll()</text><ellipse cx="17" cy="473.0781" fill="#84BE84" rx="3" ry="3" style="stroke: #038048; stroke-width: 1.0;"/><text fill="#19273C" font-family="sans-serif" font-size="16" lengthAdjust="spacingAndGlyphs" textLength="180" x="26" y="478.125">Promise resolve(string)</text><!--class IdentityRegistry--><rect fill="#F8FAFA" height="66.8438" rx="1" ry="1" style="stroke: #E3ECEC; stroke-width: 1.5;" width="637" x="152" y="8.5"/><ellipse cx="405.25" cy="24.5" fill="#FFFFFF" rx="11" ry="11" style="stroke: #E3ECEC; stroke-width: 1.0;"/><path d="M407.6953,30.1641 Q407.1484,30.4453 406.5469,30.5859 Q405.9453,30.7266 405.2813,30.7266 Q402.9219,30.7266 401.6797,29.1719 Q400.4375,27.6172 400.4375,24.6797 Q400.4375,21.7344 401.6797,20.1797 Q402.9219,18.625 405.2813,18.625 Q405.9453,18.625 406.5547,18.7656 Q407.1641,18.9063 407.6953,19.1875 L407.6953,21.75 Q407.1016,21.2031 406.543,20.9492 Q405.9844,20.6953 405.3906,20.6953 Q404.125,20.6953 403.4805,21.6992 Q402.8359,22.7031 402.8359,24.6797 Q402.8359,26.6484 403.4805,27.6523 Q404.125,28.6563 405.3906,28.6563 Q405.9844,28.6563 406.543,28.4023 Q407.1016,28.1484 407.6953,27.6016 Z "/><text fill="#19273C" font-family="sans-serif" font-size="16" lengthAdjust="spacingAndGlyphs" textLength="122" x="425.75" y="30.5469">IdentityRegistry</text><line style="stroke: #E3ECEC; stroke-width: 1.5;" x1="153" x2="788" y1="40.5" y2="40.5"/><line style="stroke: #E3ECEC; stroke-width: 1.5;" x1="153" x2="788" y1="48.5" y2="48.5"/><ellipse cx="163" cy="62.9219" fill="#84BE84" rx="3" ry="3" style="stroke: #038048; stroke-width: 1.0;"/><text fill="#19273C" font-family="sans-serif" font-size="16" lengthAdjust="spacingAndGlyphs" textLength="611" x="172" y="67.9688">Promise getIdentityRegistry(SecurityContext,ModelManager,Factory,Serializer)</text><path d="M470.25,75.739 C470.25,87.131 470.25,100.864 470.25,115.897 " fill="none" style="stroke: #3C6DF0; stroke-width: 1.0;"/><polygon fill="none" points="477.25,115.939,470.25,135.939,463.25,115.939,477.25,115.939" style="stroke: #3C6DF0; stroke-width: 1.0;"/></g></svg>