<?xml version="1.0" encoding="UTF-8" standalone="no"?><svg xmlns="http://www.w3.org/2000/svg" xmlns:xlink="http://www.w3.org/1999/xlink" contentScriptType="application/ecmascript" contentStyleType="text/css" height="297px" preserveAspectRatio="none" style="width:299px;height:297px;" version="1.1" viewBox="0 0 299 297" width="299px" zoomAndPan="magnify"><defs/><g><!--class Identifiable--><rect fill="#F8FAFA" height="179.9063" rx="1" ry="1" style="stroke: #E3ECEC; stroke-width: 1.5;" width="292" x="6" y="8"/><ellipse cx="103.25" cy="24" fill="#FFFFFF" rx="11" ry="11" style="stroke: #E3ECEC; stroke-width: 1.0;"/><path d="M105.6953,29.6641 Q105.1484,29.9453 104.5469,30.0859 Q103.9453,30.2266 103.2813,30.2266 Q100.9219,30.2266 99.6797,28.6719 Q98.4375,27.1172 98.4375,24.1797 Q98.4375,21.2344 99.6797,19.6797 Q100.9219,18.125 103.2813,18.125 Q103.9453,18.125 104.5547,18.2656 Q105.1641,18.4063 105.6953,18.6875 L105.6953,21.25 Q105.1016,20.7031 104.543,20.4492 Q103.9844,20.1953 103.3906,20.1953 Q102.125,20.1953 101.4805,21.1992 Q100.8359,22.2031 100.8359,24.1797 Q100.8359,26.1484 101.4805,27.1523 Q102.125,28.1563 103.3906,28.1563 Q103.9844,28.1563 104.543,27.9023 Q105.1016,27.6484 105.6953,27.1016 Z "/><text fill="#19273C" font-family="sans-serif" font-size="16" lengthAdjust="spacingAndGlyphs" textLength="89" x="123.75" y="30.0469">Identifiable</text><line style="stroke: #E3ECEC; stroke-width: 1.5;" x1="7" x2="297" y1="40" y2="40"/><line style="stroke: #E3ECEC; stroke-width: 1.5;" x1="7" x2="297" y1="48" y2="48"/><ellipse cx="17" cy="62.4219" fill="#84BE84" rx="3" ry="3" style="stroke: #038048; stroke-width: 1.0;"/><text fill="#19273C" font-family="sans-serif" font-size="16" lengthAdjust="spacingAndGlyphs" textLength="158" x="26" y="67.4688">string getIdentifier()</text><ellipse cx="17" cy="81.2656" fill="#84BE84" rx="3" ry="3" style="stroke: #038048; stroke-width: 1.0;"/><text fill="#19273C" font-family="sans-serif" font-size="16" lengthAdjust="spacingAndGlyphs" textLength="189" x="26" y="86.3125">void setIdentifier(string)</text><ellipse cx="17" cy="100.1094" fill="#84BE84" rx="3" ry="3" style="stroke: #038048; stroke-width: 1.0;"/><text fill="#19273C" font-family="sans-serif" font-size="16" lengthAdjust="spacingAndGlyphs" textLength="266" x="26" y="105.1563">string getFullyQualifiedIdentifier()</text><ellipse cx="17" cy="118.9531" fill="#84BE84" rx="3" ry="3" style="stroke: #038048; stroke-width: 1.0;"/><text fill="#19273C" font-family="sans-serif" font-size="16" lengthAdjust="spacingAndGlyphs" textLength="125" x="26" y="124">String toString()</text><ellipse cx="17" cy="137.7969" fill="#84BE84" rx="3" ry="3" style="stroke: #038048; stroke-width: 1.0;"/><text fill="#19273C" font-family="sans-serif" font-size="16" lengthAdjust="spacingAndGlyphs" textLength="188" x="26" y="142.8438">boolean isRelationship()</text><ellipse cx="17" cy="156.6406" fill="#84BE84" rx="3" ry="3" style="stroke: #038048; stroke-width: 1.0;"/><text fill="#19273C" font-family="sans-serif" font-size="16" lengthAdjust="spacingAndGlyphs" textLength="162" x="26" y="161.6875">boolean isResource()</text><ellipse cx="17" cy="175.4844" fill="#84BE84" rx="3" ry="3" style="stroke: #038048; stroke-width: 1.0;"/><text fill="#19273C" font-family="sans-serif" font-size="16" lengthAdjust="spacingAndGlyphs" textLength="104" x="26" y="180.5313">String toURI()</text><!--class Typed--><rect fill="#F8FAFA" height="48" rx="1" ry="1" style="stroke: #E3ECEC; stroke-width: 1.5;" width="79" x="112.75" y="248"/><ellipse cx="127.75" cy="264" fill="#FFFFFF" rx="11" ry="11" style="stroke: #E3ECEC; stroke-width: 1.0;"/><path d="M130.1953,269.6641 Q129.6484,269.9453 129.0469,270.0859 Q128.4453,270.2266 127.7813,270.2266 Q125.4219,270.2266 124.1797,268.6719 Q122.9375,267.1172 122.9375,264.1797 Q122.9375,261.2344 124.1797,259.6797 Q125.4219,258.125 127.7813,258.125 Q128.4453,258.125 129.0547,258.2656 Q129.6641,258.4063 130.1953,258.6875 L130.1953,261.25 Q129.6016,260.7031 129.043,260.4492 Q128.4844,260.1953 127.8906,260.1953 Q126.625,260.1953 125.9805,261.1992 Q125.3359,262.2031 125.3359,264.1797 Q125.3359,266.1484 125.9805,267.1523 Q126.625,268.1563 127.8906,268.1563 Q128.4844,268.1563 129.043,267.9023 Q129.6016,267.6484 130.1953,267.1016 Z "/><text fill="#19273C" font-family="sans-serif" font-size="16" lengthAdjust="spacingAndGlyphs" textLength="47" x="141.75" y="270.0469">Typed</text><line style="stroke: #E3ECEC; stroke-width: 1.5;" x1="113.75" x2="190.75" y1="280" y2="280"/><line style="stroke: #E3ECEC; stroke-width: 1.5;" x1="113.75" x2="190.75" y1="288" y2="288"/><path d="M152,188.023 C152,201.6826 152,215.2404 152,227.3158 " fill="none" style="stroke: #3C6DF0; stroke-width: 1.0;"/><polygon fill="none" points="159,227.7447,152,247.7446,145,227.7446,159,227.7447" style="stroke: #3C6DF0; stroke-width: 1.0;"/></g></svg>