<?xml version="1.0" encoding="UTF-8" standalone="no"?><svg xmlns="http://www.w3.org/2000/svg" xmlns:xlink="http://www.w3.org/1999/xlink" contentScriptType="application/ecmascript" contentStyleType="text/css" height="203px" preserveAspectRatio="none" style="width:562px;height:203px;" version="1.1" viewBox="0 0 562 203" width="562px" zoomAndPan="magnify"><defs/><g><!--class IllegalModelException--><rect fill="#F8FAFA" height="85.6875" rx="1" ry="1" style="stroke: #E3ECEC; stroke-width: 1.5;" width="555" x="6" y="8"/><ellipse cx="192.75" cy="24" fill="#FFFFFF" rx="11" ry="11" style="stroke: #E3ECEC; stroke-width: 1.0;"/><path d="M195.1953,29.6641 Q194.6484,29.9453 194.0469,30.0859 Q193.4453,30.2266 192.7813,30.2266 Q190.4219,30.2266 189.1797,28.6719 Q187.9375,27.1172 187.9375,24.1797 Q187.9375,21.2344 189.1797,19.6797 Q190.4219,18.125 192.7813,18.125 Q193.4453,18.125 194.0547,18.2656 Q194.6641,18.4063 195.1953,18.6875 L195.1953,21.25 Q194.6016,20.7031 194.043,20.4492 Q193.4844,20.1953 192.8906,20.1953 Q191.625,20.1953 190.9805,21.1992 Q190.3359,22.2031 190.3359,24.1797 Q190.3359,26.1484 190.9805,27.1523 Q191.625,28.1563 192.8906,28.1563 Q193.4844,28.1563 194.043,27.9023 Q194.6016,27.6484 195.1953,27.1016 Z "/><text fill="#19273C" font-family="sans-serif" font-size="16" lengthAdjust="spacingAndGlyphs" textLength="173" x="213.25" y="30.0469">IllegalModelException</text><line style="stroke: #E3ECEC; stroke-width: 1.5;" x1="7" x2="560" y1="40" y2="40"/><line style="stroke: #E3ECEC; stroke-width: 1.5;" x1="7" x2="560" y1="48" y2="48"/><ellipse cx="17" cy="62.4219" fill="#84BE84" rx="3" ry="3" style="stroke: #038048; stroke-width: 1.0;"/><text fill="#19273C" font-family="sans-serif" font-size="16" lengthAdjust="spacingAndGlyphs" textLength="529" x="26" y="67.4688">void constructor(String,ModelFile,Object,String,String,String,String)</text><ellipse cx="17" cy="81.2656" fill="#84BE84" rx="3" ry="3" style="stroke: #038048; stroke-width: 1.0;"/><text fill="#19273C" font-family="sans-serif" font-size="16" lengthAdjust="spacingAndGlyphs" textLength="162" x="26" y="86.3125">string getModelFile()</text><!--class BaseFileException--><rect fill="#F8FAFA" height="48" rx="1" ry="1" style="stroke: #E3ECEC; stroke-width: 1.5;" width="172" x="197.25" y="154"/><ellipse cx="212.25" cy="170" fill="#FFFFFF" rx="11" ry="11" style="stroke: #E3ECEC; stroke-width: 1.0;"/><path d="M214.6953,175.6641 Q214.1484,175.9453 213.5469,176.0859 Q212.9453,176.2266 212.2813,176.2266 Q209.9219,176.2266 208.6797,174.6719 Q207.4375,173.1172 207.4375,170.1797 Q207.4375,167.2344 208.6797,165.6797 Q209.9219,164.125 212.2813,164.125 Q212.9453,164.125 213.5547,164.2656 Q214.1641,164.4063 214.6953,164.6875 L214.6953,167.25 Q214.1016,166.7031 213.543,166.4492 Q212.9844,166.1953 212.3906,166.1953 Q211.125,166.1953 210.4805,167.1992 Q209.8359,168.2031 209.8359,170.1797 Q209.8359,172.1484 210.4805,173.1523 Q211.125,174.1563 212.3906,174.1563 Q212.9844,174.1563 213.543,173.9023 Q214.1016,173.6484 214.6953,173.1016 Z "/><text fill="#19273C" font-family="sans-serif" font-size="16" lengthAdjust="spacingAndGlyphs" textLength="140" x="226.25" y="176.0469">BaseFileException</text><line style="stroke: #E3ECEC; stroke-width: 1.5;" x1="198.25" x2="368.25" y1="186" y2="186"/><line style="stroke: #E3ECEC; stroke-width: 1.5;" x1="198.25" x2="368.25" y1="194" y2="194"/><path d="M283.25,94.319 C283.25,106.869 283.25,120.6347 283.25,133.2718 " fill="none" style="stroke: #3C6DF0; stroke-width: 1.0;"/><polygon fill="none" points="290.25,133.6717,283.25,153.6717,276.25,133.6717,290.25,133.6717" style="stroke: #3C6DF0; stroke-width: 1.0;"/></g></svg>