<?xml version="1.0" encoding="UTF-8" standalone="no"?><svg xmlns="http://www.w3.org/2000/svg" xmlns:xlink="http://www.w3.org/1999/xlink" contentScriptType="application/ecmascript" contentStyleType="text/css" height="114px" preserveAspectRatio="none" style="width:382px;height:114px;" version="1.1" viewBox="0 0 382 114" width="382px" zoomAndPan="magnify"><defs/><g><!--class Introspector--><rect fill="#F8FAFA" height="104.5313" rx="1" ry="1" style="stroke: #E3ECEC; stroke-width: 1.5;" width="375" x="6" y="8.5"/><ellipse cx="141.25" cy="24.5" fill="#FFFFFF" rx="11" ry="11" style="stroke: #E3ECEC; stroke-width: 1.0;"/><path d="M143.6953,30.1641 Q143.1484,30.4453 142.5469,30.5859 Q141.9453,30.7266 141.2813,30.7266 Q138.9219,30.7266 137.6797,29.1719 Q136.4375,27.6172 136.4375,24.6797 Q136.4375,21.7344 137.6797,20.1797 Q138.9219,18.625 141.2813,18.625 Q141.9453,18.625 142.5547,18.7656 Q143.1641,18.9063 143.6953,19.1875 L143.6953,21.75 Q143.1016,21.2031 142.543,20.9492 Q141.9844,20.6953 141.3906,20.6953 Q140.125,20.6953 139.4805,21.6992 Q138.8359,22.7031 138.8359,24.6797 Q138.8359,26.6484 139.4805,27.6523 Q140.125,28.6563 141.3906,28.6563 Q141.9844,28.6563 142.543,28.4023 Q143.1016,28.1484 143.6953,27.6016 Z "/><text fill="#19273C" font-family="sans-serif" font-size="16" lengthAdjust="spacingAndGlyphs" textLength="96" x="161.75" y="30.5469">Introspector</text><line style="stroke: #E3ECEC; stroke-width: 1.5;" x1="7" x2="380" y1="40.5" y2="40.5"/><line style="stroke: #E3ECEC; stroke-width: 1.5;" x1="7" x2="380" y1="48.5" y2="48.5"/><ellipse cx="17" cy="62.9219" fill="#84BE84" rx="3" ry="3" style="stroke: #038048; stroke-width: 1.0;"/><text fill="#19273C" font-family="sans-serif" font-size="16" lengthAdjust="spacingAndGlyphs" textLength="254" x="26" y="67.9688">void constructor(ModelManager)</text><ellipse cx="17" cy="81.7656" fill="#84BE84" rx="3" ry="3" style="stroke: #038048; stroke-width: 1.0;"/><text fill="#19273C" font-family="sans-serif" font-size="16" lengthAdjust="spacingAndGlyphs" textLength="320" x="26" y="86.8125">ClassDeclaration[] getClassDeclarations()</text><ellipse cx="17" cy="100.6094" fill="#84BE84" rx="3" ry="3" style="stroke: #038048; stroke-width: 1.0;"/><text fill="#19273C" font-family="sans-serif" font-size="16" lengthAdjust="spacingAndGlyphs" textLength="349" x="26" y="105.6563">ClassDeclaration getClassDeclaration(String)</text></g></svg>