<?xml version="1.0" encoding="UTF-8" standalone="no"?><svg xmlns="http://www.w3.org/2000/svg" xmlns:xlink="http://www.w3.org/1999/xlink" contentScriptType="application/ecmascript" contentStyleType="text/css" height="203px" preserveAspectRatio="none" style="width:560px;height:203px;" version="1.1" viewBox="0 0 560 203" width="560px" zoomAndPan="magnify"><defs/><g><!--class InvalidQueryException--><rect fill="#F8FAFA" height="85.6875" rx="1" ry="1" style="stroke: #E3ECEC; stroke-width: 1.5;" width="553" x="6" y="8"/><ellipse cx="190.75" cy="24" fill="#FFFFFF" rx="11" ry="11" style="stroke: #E3ECEC; stroke-width: 1.0;"/><path d="M193.1953,29.6641 Q192.6484,29.9453 192.0469,30.0859 Q191.4453,30.2266 190.7813,30.2266 Q188.4219,30.2266 187.1797,28.6719 Q185.9375,27.1172 185.9375,24.1797 Q185.9375,21.2344 187.1797,19.6797 Q188.4219,18.125 190.7813,18.125 Q191.4453,18.125 192.0547,18.2656 Q192.6641,18.4063 193.1953,18.6875 L193.1953,21.25 Q192.6016,20.7031 192.043,20.4492 Q191.4844,20.1953 190.8906,20.1953 Q189.625,20.1953 188.9805,21.1992 Q188.3359,22.2031 188.3359,24.1797 Q188.3359,26.1484 188.9805,27.1523 Q189.625,28.1563 190.8906,28.1563 Q191.4844,28.1563 192.043,27.9023 Q192.6016,27.6484 193.1953,27.1016 Z "/><text fill="#19273C" font-family="sans-serif" font-size="16" lengthAdjust="spacingAndGlyphs" textLength="175" x="211.25" y="30.0469">InvalidQueryException</text><line style="stroke: #E3ECEC; stroke-width: 1.5;" x1="7" x2="558" y1="40" y2="40"/><line style="stroke: #E3ECEC; stroke-width: 1.5;" x1="7" x2="558" y1="48" y2="48"/><ellipse cx="17" cy="62.4219" fill="#84BE84" rx="3" ry="3" style="stroke: #038048; stroke-width: 1.0;"/><text fill="#19273C" font-family="sans-serif" font-size="16" lengthAdjust="spacingAndGlyphs" textLength="527" x="26" y="67.4688">void constructor(String,QueryFile,Object,String,String,String,String)</text><ellipse cx="17" cy="81.2656" fill="#84BE84" rx="3" ry="3" style="stroke: #038048; stroke-width: 1.0;"/><text fill="#19273C" font-family="sans-serif" font-size="16" lengthAdjust="spacingAndGlyphs" textLength="188" x="26" y="86.3125">QueryFile getQueryFile()</text><!--class BaseFileException--><rect fill="#F8FAFA" height="48" rx="1" ry="1" style="stroke: #E3ECEC; stroke-width: 1.5;" width="172" x="196.25" y="154"/><ellipse cx="211.25" cy="170" fill="#FFFFFF" rx="11" ry="11" style="stroke: #E3ECEC; stroke-width: 1.0;"/><path d="M213.6953,175.6641 Q213.1484,175.9453 212.5469,176.0859 Q211.9453,176.2266 211.2813,176.2266 Q208.9219,176.2266 207.6797,174.6719 Q206.4375,173.1172 206.4375,170.1797 Q206.4375,167.2344 207.6797,165.6797 Q208.9219,164.125 211.2813,164.125 Q211.9453,164.125 212.5547,164.2656 Q213.1641,164.4063 213.6953,164.6875 L213.6953,167.25 Q213.1016,166.7031 212.543,166.4492 Q211.9844,166.1953 211.3906,166.1953 Q210.125,166.1953 209.4805,167.1992 Q208.8359,168.2031 208.8359,170.1797 Q208.8359,172.1484 209.4805,173.1523 Q210.125,174.1563 211.3906,174.1563 Q211.9844,174.1563 212.543,173.9023 Q213.1016,173.6484 213.6953,173.1016 Z "/><text fill="#19273C" font-family="sans-serif" font-size="16" lengthAdjust="spacingAndGlyphs" textLength="140" x="225.25" y="176.0469">BaseFileException</text><line style="stroke: #E3ECEC; stroke-width: 1.5;" x1="197.25" x2="367.25" y1="186" y2="186"/><line style="stroke: #E3ECEC; stroke-width: 1.5;" x1="197.25" x2="367.25" y1="194" y2="194"/><path d="M282.25,94.319 C282.25,106.869 282.25,120.6347 282.25,133.2718 " fill="none" style="stroke: #3C6DF0; stroke-width: 1.0;"/><polygon fill="none" points="289.25,133.6717,282.25,153.6717,275.25,133.6717,289.25,133.6717" style="stroke: #3C6DF0; stroke-width: 1.0;"/></g></svg>