<?xml version="1.0" encoding="UTF-8" standalone="no"?><svg xmlns="http://www.w3.org/2000/svg" xmlns:xlink="http://www.w3.org/1999/xlink" contentScriptType="application/ecmascript" contentStyleType="text/css" height="185px" preserveAspectRatio="none" style="width:268px;height:185px;" version="1.1" viewBox="0 0 268 185" width="268px" zoomAndPan="magnify"><defs/><g><!--class ParseException--><rect fill="#F8FAFA" height="66.8438" rx="1" ry="1" style="stroke: #E3ECEC; stroke-width: 1.5;" width="261" x="6" y="8.5"/><ellipse cx="72.75" cy="24.5" fill="#FFFFFF" rx="11" ry="11" style="stroke: #E3ECEC; stroke-width: 1.0;"/><path d="M75.1953,30.1641 Q74.6484,30.4453 74.0469,30.5859 Q73.4453,30.7266 72.7813,30.7266 Q70.4219,30.7266 69.1797,29.1719 Q67.9375,27.6172 67.9375,24.6797 Q67.9375,21.7344 69.1797,20.1797 Q70.4219,18.625 72.7813,18.625 Q73.4453,18.625 74.0547,18.7656 Q74.6641,18.9063 75.1953,19.1875 L75.1953,21.75 Q74.6016,21.2031 74.043,20.9492 Q73.4844,20.6953 72.8906,20.6953 Q71.625,20.6953 70.9805,21.6992 Q70.3359,22.7031 70.3359,24.6797 Q70.3359,26.6484 70.9805,27.6523 Q71.625,28.6563 72.8906,28.6563 Q73.4844,28.6563 74.043,28.4023 Q74.6016,28.1484 75.1953,27.6016 Z "/><text fill="#19273C" font-family="sans-serif" font-size="16" lengthAdjust="spacingAndGlyphs" textLength="119" x="93.25" y="30.5469">ParseException</text><line style="stroke: #E3ECEC; stroke-width: 1.5;" x1="7" x2="266" y1="40.5" y2="40.5"/><line style="stroke: #E3ECEC; stroke-width: 1.5;" x1="7" x2="266" y1="48.5" y2="48.5"/><ellipse cx="17" cy="62.9219" fill="#84BE84" rx="3" ry="3" style="stroke: #038048; stroke-width: 1.0;"/><text fill="#19273C" font-family="sans-serif" font-size="16" lengthAdjust="spacingAndGlyphs" textLength="235" x="26" y="67.9688">void constructor(string,string)</text><!--class BaseFileException--><rect fill="#F8FAFA" height="48" rx="1" ry="1" style="stroke: #E3ECEC; stroke-width: 1.5;" width="172" x="50.25" y="136"/><ellipse cx="65.25" cy="152" fill="#FFFFFF" rx="11" ry="11" style="stroke: #E3ECEC; stroke-width: 1.0;"/><path d="M67.6953,157.6641 Q67.1484,157.9453 66.5469,158.0859 Q65.9453,158.2266 65.2813,158.2266 Q62.9219,158.2266 61.6797,156.6719 Q60.4375,155.1172 60.4375,152.1797 Q60.4375,149.2344 61.6797,147.6797 Q62.9219,146.125 65.2813,146.125 Q65.9453,146.125 66.5547,146.2656 Q67.1641,146.4063 67.6953,146.6875 L67.6953,149.25 Q67.1016,148.7031 66.543,148.4492 Q65.9844,148.1953 65.3906,148.1953 Q64.125,148.1953 63.4805,149.1992 Q62.8359,150.2031 62.8359,152.1797 Q62.8359,154.1484 63.4805,155.1523 Q64.125,156.1563 65.3906,156.1563 Q65.9844,156.1563 66.543,155.9023 Q67.1016,155.6484 67.6953,155.1016 Z "/><text fill="#19273C" font-family="sans-serif" font-size="16" lengthAdjust="spacingAndGlyphs" textLength="140" x="79.25" y="158.0469">BaseFileException</text><line style="stroke: #E3ECEC; stroke-width: 1.5;" x1="51.25" x2="221.25" y1="168" y2="168"/><line style="stroke: #E3ECEC; stroke-width: 1.5;" x1="51.25" x2="221.25" y1="176" y2="176"/><path d="M136.25,75.621 C136.25,88.0487 136.25,102.4125 136.25,115.6795 " fill="none" style="stroke: #3C6DF0; stroke-width: 1.0;"/><polygon fill="none" points="143.25,115.8078,136.25,135.8077,129.25,115.8077,143.25,115.8078" style="stroke: #3C6DF0; stroke-width: 1.0;"/></g></svg>