<?xml version="1.0" encoding="UTF-8" standalone="no"?><svg xmlns="http://www.w3.org/2000/svg" xmlns:xlink="http://www.w3.org/1999/xlink" contentScriptType="application/ecmascript" contentStyleType="text/css" height="560px" preserveAspectRatio="none" style="width:1001px;height:560px;" version="1.1" viewBox="0 0 1001 560" width="1001px" zoomAndPan="magnify"><defs/><g><!--class Registry--><rect fill="#F8FAFA" height="349.5" rx="1" ry="1" style="stroke: #E3ECEC; stroke-width: 1.5;" width="929" x="38.75" y="210"/><ellipse cx="467.5" cy="226" fill="#FFFFFF" rx="11" ry="11" style="stroke: #E3ECEC; stroke-width: 1.0;"/><path d="M469.9453,231.6641 Q469.3984,231.9453 468.7969,232.0859 Q468.1953,232.2266 467.5313,232.2266 Q465.1719,232.2266 463.9297,230.6719 Q462.6875,229.1172 462.6875,226.1797 Q462.6875,223.2344 463.9297,221.6797 Q465.1719,220.125 467.5313,220.125 Q468.1953,220.125 468.8047,220.2656 Q469.4141,220.4063 469.9453,220.6875 L469.9453,223.25 Q469.3516,222.7031 468.793,222.4492 Q468.2344,222.1953 467.6406,222.1953 Q466.375,222.1953 465.7305,223.1992 Q465.0859,224.2031 465.0859,226.1797 Q465.0859,228.1484 465.7305,229.1523 Q466.375,230.1563 467.6406,230.1563 Q468.2344,230.1563 468.793,229.9023 Q469.3516,229.6484 469.9453,229.1016 Z "/><text fill="#19273C" font-family="sans-serif" font-size="16" lengthAdjust="spacingAndGlyphs" textLength="63" x="488" y="232.0469">Registry</text><line style="stroke: #E3ECEC; stroke-width: 1.5;" x1="39.75" x2="966.75" y1="242" y2="242"/><line style="stroke: #E3ECEC; stroke-width: 1.5;" x1="39.75" x2="966.75" y1="250" y2="250"/><ellipse cx="49.75" cy="264.4219" fill="#84BE84" rx="3" ry="3" style="stroke: #038048; stroke-width: 1.0;"/><text fill="#19273C" font-family="sans-serif" font-size="16" lengthAdjust="spacingAndGlyphs" textLength="444" x="58.75" y="269.4688">Promise getAllRegistries(SecurityContext,string,boolean)</text><ellipse cx="49.75" cy="283.2656" fill="#84BE84" rx="3" ry="3" style="stroke: #038048; stroke-width: 1.0;"/><text fill="#19273C" font-family="sans-serif" font-size="16" lengthAdjust="spacingAndGlyphs" textLength="392" x="58.75" y="288.3125">Promise getRegistry(SecurityContext,string,string)</text><ellipse cx="49.75" cy="302.1094" fill="#84BE84" rx="3" ry="3" style="stroke: #038048; stroke-width: 1.0;"/><text fill="#19273C" font-family="sans-serif" font-size="16" lengthAdjust="spacingAndGlyphs" textLength="413" x="58.75" y="307.1563">Promise existsRegistry(SecurityContext,string,string)</text><ellipse cx="49.75" cy="320.9531" fill="#84BE84" rx="3" ry="3" style="stroke: #038048; stroke-width: 1.0;"/><text fill="#19273C" font-family="sans-serif" font-size="16" lengthAdjust="spacingAndGlyphs" textLength="447" x="58.75" y="326">Promise addRegistry(SecurityContext,string,string,string)</text><ellipse cx="49.75" cy="339.7969" fill="#84BE84" rx="3" ry="3" style="stroke: #038048; stroke-width: 1.0;"/><text fill="#19273C" font-family="sans-serif" font-size="16" lengthAdjust="spacingAndGlyphs" textLength="903" x="58.75" y="344.8438">void constructor(string,string,string,SecurityContext,ModelManager,Factory,Serializer,BusinessNetworkConnection)</text><ellipse cx="49.75" cy="358.6406" fill="#84BE84" rx="3" ry="3" style="stroke: #038048; stroke-width: 1.0;"/><text fill="#19273C" font-family="sans-serif" font-size="16" lengthAdjust="spacingAndGlyphs" textLength="209" x="58.75" y="363.6875">Promise addAll(Resource[])</text><ellipse cx="49.75" cy="377.4844" fill="#84BE84" rx="3" ry="3" style="stroke: #038048; stroke-width: 1.0;"/><text fill="#19273C" font-family="sans-serif" font-size="16" lengthAdjust="spacingAndGlyphs" textLength="178" x="58.75" y="382.5313">Promise add(Resource)</text><ellipse cx="49.75" cy="396.3281" fill="#84BE84" rx="3" ry="3" style="stroke: #038048; stroke-width: 1.0;"/><text fill="#19273C" font-family="sans-serif" font-size="16" lengthAdjust="spacingAndGlyphs" textLength="234" x="58.75" y="401.375">Promise updateAll(Resource[])</text><ellipse cx="49.75" cy="415.1719" fill="#84BE84" rx="3" ry="3" style="stroke: #038048; stroke-width: 1.0;"/><text fill="#19273C" font-family="sans-serif" font-size="16" lengthAdjust="spacingAndGlyphs" textLength="203" x="58.75" y="420.2188">Promise update(Resource)</text><ellipse cx="49.75" cy="434.0156" fill="#84BE84" rx="3" ry="3" style="stroke: #038048; stroke-width: 1.0;"/><text fill="#19273C" font-family="sans-serif" font-size="16" lengthAdjust="spacingAndGlyphs" textLength="157" x="58.75" y="439.0625">Promise removeAll()</text><ellipse cx="49.75" cy="452.8594" fill="#84BE84" rx="3" ry="3" style="stroke: #038048; stroke-width: 1.0;"/><text fill="#19273C" font-family="sans-serif" font-size="16" lengthAdjust="spacingAndGlyphs" textLength="136" x="58.75" y="457.9063">Promise remove()</text><ellipse cx="49.75" cy="471.7031" fill="#84BE84" rx="3" ry="3" style="stroke: #038048; stroke-width: 1.0;"/><text fill="#19273C" font-family="sans-serif" font-size="16" lengthAdjust="spacingAndGlyphs" textLength="124" x="58.75" y="476.75">Promise getAll()</text><ellipse cx="49.75" cy="490.5469" fill="#84BE84" rx="3" ry="3" style="stroke: #038048; stroke-width: 1.0;"/><text fill="#19273C" font-family="sans-serif" font-size="16" lengthAdjust="spacingAndGlyphs" textLength="149" x="58.75" y="495.5938">Promise get(string)</text><ellipse cx="49.75" cy="509.3906" fill="#84BE84" rx="3" ry="3" style="stroke: #038048; stroke-width: 1.0;"/><text fill="#19273C" font-family="sans-serif" font-size="16" lengthAdjust="spacingAndGlyphs" textLength="170" x="58.75" y="514.4375">Promise exists(string)</text><ellipse cx="49.75" cy="528.2344" fill="#84BE84" rx="3" ry="3" style="stroke: #038048; stroke-width: 1.0;"/><text fill="#19273C" font-family="sans-serif" font-size="16" lengthAdjust="spacingAndGlyphs" textLength="155" x="58.75" y="533.2813">Promise resolveAll()</text><ellipse cx="49.75" cy="547.0781" fill="#84BE84" rx="3" ry="3" style="stroke: #038048; stroke-width: 1.0;"/><text fill="#19273C" font-family="sans-serif" font-size="16" lengthAdjust="spacingAndGlyphs" textLength="180" x="58.75" y="552.125">Promise resolve(string)</text><!--class ParticipantRegistry--><rect fill="#F8FAFA" height="142.2188" rx="1" ry="1" style="stroke: #E3ECEC; stroke-width: 1.5;" width="994" x="6" y="8"/><ellipse cx="425.25" cy="24" fill="#FFFFFF" rx="11" ry="11" style="stroke: #E3ECEC; stroke-width: 1.0;"/><path d="M427.6953,29.6641 Q427.1484,29.9453 426.5469,30.0859 Q425.9453,30.2266 425.2813,30.2266 Q422.9219,30.2266 421.6797,28.6719 Q420.4375,27.1172 420.4375,24.1797 Q420.4375,21.2344 421.6797,19.6797 Q422.9219,18.125 425.2813,18.125 Q425.9453,18.125 426.5547,18.2656 Q427.1641,18.4063 427.6953,18.6875 L427.6953,21.25 Q427.1016,20.7031 426.543,20.4492 Q425.9844,20.1953 425.3906,20.1953 Q424.125,20.1953 423.4805,21.1992 Q422.8359,22.2031 422.8359,24.1797 Q422.8359,26.1484 423.4805,27.1523 Q424.125,28.1563 425.3906,28.1563 Q425.9844,28.1563 426.543,27.9023 Q427.1016,27.6484 427.6953,27.1016 Z "/><text fill="#19273C" font-family="sans-serif" font-size="16" lengthAdjust="spacingAndGlyphs" textLength="147" x="445.75" y="30.0469">ParticipantRegistry</text><line style="stroke: #E3ECEC; stroke-width: 1.5;" x1="7" x2="999" y1="40" y2="40"/><line style="stroke: #E3ECEC; stroke-width: 1.5;" x1="7" x2="999" y1="48" y2="48"/><ellipse cx="17" cy="62.4219" fill="#84BE84" rx="3" ry="3" style="stroke: #038048; stroke-width: 1.0;"/><text fill="#19273C" font-family="sans-serif" font-size="16" lengthAdjust="spacingAndGlyphs" textLength="964" x="26" y="67.4688">Promise getAllParticipantRegistries(SecurityContext,ModelManager,Factory,Serializer,BusinessNetworkConnection,Boolean)</text><ellipse cx="17" cy="81.2656" fill="#84BE84" rx="3" ry="3" style="stroke: #038048; stroke-width: 1.0;"/><text fill="#19273C" font-family="sans-serif" font-size="16" lengthAdjust="spacingAndGlyphs" textLength="913" x="26" y="86.3125">Promise getParticipantRegistry(SecurityContext,string,ModelManager,Factory,Serializer,BusinessNetworkConnection)</text><ellipse cx="17" cy="100.1094" fill="#84BE84" rx="3" ry="3" style="stroke: #038048; stroke-width: 1.0;"/><text fill="#19273C" font-family="sans-serif" font-size="16" lengthAdjust="spacingAndGlyphs" textLength="935" x="26" y="105.1563">Promise participantRegistryExists(SecurityContext,string,ModelManager,Factory,Serializer,BusinessNetworkConnection)</text><ellipse cx="17" cy="118.9531" fill="#84BE84" rx="3" ry="3" style="stroke: #038048; stroke-width: 1.0;"/><text fill="#19273C" font-family="sans-serif" font-size="16" lengthAdjust="spacingAndGlyphs" textLength="968" x="26" y="124">Promise addParticipantRegistry(SecurityContext,string,string,ModelManager,Factory,Serializer,BusinessNetworkConnection)</text><ellipse cx="17" cy="137.7969" fill="#84BE84" rx="3" ry="3" style="stroke: #038048; stroke-width: 1.0;"/><text fill="#19273C" font-family="sans-serif" font-size="16" lengthAdjust="spacingAndGlyphs" textLength="852" x="26" y="142.8438">void constructor(string,string,SecurityContext,ModelManager,Factory,Serializer,BusinessNetworkConnection)</text><path d="M503,150.125 C503,162.52 503,175.951 503,189.894 " fill="none" style="stroke: #3C6DF0; stroke-width: 1.0;"/><polygon fill="none" points="510,189.895,503,209.895,496,189.895,510,189.895" style="stroke: #3C6DF0; stroke-width: 1.0;"/></g></svg>