<?xml version="1.0" encoding="UTF-8" standalone="no"?><svg xmlns="http://www.w3.org/2000/svg" xmlns:xlink="http://www.w3.org/1999/xlink" contentScriptType="application/ecmascript" contentStyleType="text/css" height="223px" preserveAspectRatio="none" style="width:481px;height:223px;" version="1.1" viewBox="0 0 481 223" width="481px" zoomAndPan="magnify"><defs/><g><!--class Relationship--><rect fill="#F8FAFA" height="104.5313" rx="1" ry="1" style="stroke: #E3ECEC; stroke-width: 1.5;" width="474" x="6" y="8.5"/><ellipse cx="190.25" cy="24.5" fill="#FFFFFF" rx="11" ry="11" style="stroke: #E3ECEC; stroke-width: 1.0;"/><path d="M192.6953,30.1641 Q192.1484,30.4453 191.5469,30.5859 Q190.9453,30.7266 190.2813,30.7266 Q187.9219,30.7266 186.6797,29.1719 Q185.4375,27.6172 185.4375,24.6797 Q185.4375,21.7344 186.6797,20.1797 Q187.9219,18.625 190.2813,18.625 Q190.9453,18.625 191.5547,18.7656 Q192.1641,18.9063 192.6953,19.1875 L192.6953,21.75 Q192.1016,21.2031 191.543,20.9492 Q190.9844,20.6953 190.3906,20.6953 Q189.125,20.6953 188.4805,21.6992 Q187.8359,22.7031 187.8359,24.6797 Q187.8359,26.6484 188.4805,27.6523 Q189.125,28.6563 190.3906,28.6563 Q190.9844,28.6563 191.543,28.4023 Q192.1016,28.1484 192.6953,27.6016 Z "/><text fill="#19273C" font-family="sans-serif" font-size="16" lengthAdjust="spacingAndGlyphs" textLength="97" x="210.75" y="30.5469">Relationship</text><line style="stroke: #E3ECEC; stroke-width: 1.5;" x1="7" x2="479" y1="40.5" y2="40.5"/><line style="stroke: #E3ECEC; stroke-width: 1.5;" x1="7" x2="479" y1="48.5" y2="48.5"/><ellipse cx="17" cy="62.9219" fill="#84BE84" rx="3" ry="3" style="stroke: #038048; stroke-width: 1.0;"/><text fill="#19273C" font-family="sans-serif" font-size="16" lengthAdjust="spacingAndGlyphs" textLength="125" x="26" y="67.9688">String toString()</text><ellipse cx="17" cy="81.7656" fill="#84BE84" rx="3" ry="3" style="stroke: #038048; stroke-width: 1.0;"/><text fill="#19273C" font-family="sans-serif" font-size="16" lengthAdjust="spacingAndGlyphs" textLength="188" x="26" y="86.8125">boolean isRelationship()</text><ellipse cx="17" cy="100.6094" fill="#84BE84" rx="3" ry="3" style="stroke: #038048; stroke-width: 1.0;"/><text fill="#19273C" font-family="sans-serif" font-size="16" lengthAdjust="spacingAndGlyphs" textLength="448" x="26" y="105.6563">Relationship fromURI(ModelManager,String,String,String)</text><!--class Identifiable--><rect fill="#F8FAFA" height="48" rx="1" ry="1" style="stroke: #E3ECEC; stroke-width: 1.5;" width="121" x="182.75" y="174"/><ellipse cx="197.75" cy="190" fill="#FFFFFF" rx="11" ry="11" style="stroke: #E3ECEC; stroke-width: 1.0;"/><path d="M200.1953,195.6641 Q199.6484,195.9453 199.0469,196.0859 Q198.4453,196.2266 197.7813,196.2266 Q195.4219,196.2266 194.1797,194.6719 Q192.9375,193.1172 192.9375,190.1797 Q192.9375,187.2344 194.1797,185.6797 Q195.4219,184.125 197.7813,184.125 Q198.4453,184.125 199.0547,184.2656 Q199.6641,184.4063 200.1953,184.6875 L200.1953,187.25 Q199.6016,186.7031 199.043,186.4492 Q198.4844,186.1953 197.8906,186.1953 Q196.625,186.1953 195.9805,187.1992 Q195.3359,188.2031 195.3359,190.1797 Q195.3359,192.1484 195.9805,193.1523 Q196.625,194.1563 197.8906,194.1563 Q198.4844,194.1563 199.043,193.9023 Q199.6016,193.6484 200.1953,193.1016 Z "/><text fill="#19273C" font-family="sans-serif" font-size="16" lengthAdjust="spacingAndGlyphs" textLength="89" x="211.75" y="196.0469">Identifiable</text><line style="stroke: #E3ECEC; stroke-width: 1.5;" x1="183.75" x2="302.75" y1="206" y2="206"/><line style="stroke: #E3ECEC; stroke-width: 1.5;" x1="183.75" x2="302.75" y1="214" y2="214"/><path d="M243,113.808 C243,126.8894 243,140.8028 243,153.4321 " fill="none" style="stroke: #3C6DF0; stroke-width: 1.0;"/><polygon fill="none" points="250,153.7063,243,173.7062,236,153.7062,250,153.7063" style="stroke: #3C6DF0; stroke-width: 1.0;"/></g></svg>