<?xml version="1.0" encoding="UTF-8" standalone="no"?><svg xmlns="http://www.w3.org/2000/svg" xmlns:xlink="http://www.w3.org/1999/xlink" contentScriptType="application/ecmascript" contentStyleType="text/css" height="203px" preserveAspectRatio="none" style="width:195px;height:203px;" version="1.1" viewBox="0 0 195 203" width="195px" zoomAndPan="magnify"><defs/><g><!--class Resource--><rect fill="#F8FAFA" height="85.6875" rx="1" ry="1" style="stroke: #E3ECEC; stroke-width: 1.5;" width="188" x="6" y="8"/><ellipse cx="60.25" cy="24" fill="#FFFFFF" rx="11" ry="11" style="stroke: #E3ECEC; stroke-width: 1.0;"/><path d="M62.6953,29.6641 Q62.1484,29.9453 61.5469,30.0859 Q60.9453,30.2266 60.2813,30.2266 Q57.9219,30.2266 56.6797,28.6719 Q55.4375,27.1172 55.4375,24.1797 Q55.4375,21.2344 56.6797,19.6797 Q57.9219,18.125 60.2813,18.125 Q60.9453,18.125 61.5547,18.2656 Q62.1641,18.4063 62.6953,18.6875 L62.6953,21.25 Q62.1016,20.7031 61.543,20.4492 Q60.9844,20.1953 60.3906,20.1953 Q59.125,20.1953 58.4805,21.1992 Q57.8359,22.2031 57.8359,24.1797 Q57.8359,26.1484 58.4805,27.1523 Q59.125,28.1563 60.3906,28.1563 Q60.9844,28.1563 61.543,27.9023 Q62.1016,27.6484 62.6953,27.1016 Z "/><text fill="#19273C" font-family="sans-serif" font-size="16" lengthAdjust="spacingAndGlyphs" textLength="71" x="80.75" y="30.0469">Resource</text><line style="stroke: #E3ECEC; stroke-width: 1.5;" x1="7" x2="193" y1="40" y2="40"/><line style="stroke: #E3ECEC; stroke-width: 1.5;" x1="7" x2="193" y1="48" y2="48"/><ellipse cx="17" cy="62.4219" fill="#84BE84" rx="3" ry="3" style="stroke: #038048; stroke-width: 1.0;"/><text fill="#19273C" font-family="sans-serif" font-size="16" lengthAdjust="spacingAndGlyphs" textLength="125" x="26" y="67.4688">String toString()</text><ellipse cx="17" cy="81.2656" fill="#84BE84" rx="3" ry="3" style="stroke: #038048; stroke-width: 1.0;"/><text fill="#19273C" font-family="sans-serif" font-size="16" lengthAdjust="spacingAndGlyphs" textLength="162" x="26" y="86.3125">boolean isResource()</text><!--class Identifiable--><rect fill="#F8FAFA" height="48" rx="1" ry="1" style="stroke: #E3ECEC; stroke-width: 1.5;" width="121" x="39.75" y="154"/><ellipse cx="54.75" cy="170" fill="#FFFFFF" rx="11" ry="11" style="stroke: #E3ECEC; stroke-width: 1.0;"/><path d="M57.1953,175.6641 Q56.6484,175.9453 56.0469,176.0859 Q55.4453,176.2266 54.7813,176.2266 Q52.4219,176.2266 51.1797,174.6719 Q49.9375,173.1172 49.9375,170.1797 Q49.9375,167.2344 51.1797,165.6797 Q52.4219,164.125 54.7813,164.125 Q55.4453,164.125 56.0547,164.2656 Q56.6641,164.4063 57.1953,164.6875 L57.1953,167.25 Q56.6016,166.7031 56.043,166.4492 Q55.4844,166.1953 54.8906,166.1953 Q53.625,166.1953 52.9805,167.1992 Q52.3359,168.2031 52.3359,170.1797 Q52.3359,172.1484 52.9805,173.1523 Q53.625,174.1563 54.8906,174.1563 Q55.4844,174.1563 56.043,173.9023 Q56.6016,173.6484 57.1953,173.1016 Z "/><text fill="#19273C" font-family="sans-serif" font-size="16" lengthAdjust="spacingAndGlyphs" textLength="89" x="68.75" y="176.0469">Identifiable</text><line style="stroke: #E3ECEC; stroke-width: 1.5;" x1="40.75" x2="159.75" y1="186" y2="186"/><line style="stroke: #E3ECEC; stroke-width: 1.5;" x1="40.75" x2="159.75" y1="194" y2="194"/><path d="M100,94.319 C100,106.869 100,120.6347 100,133.2718 " fill="none" style="stroke: #3C6DF0; stroke-width: 1.0;"/><polygon fill="none" points="107,133.6717,100,153.6717,93.0001,133.6717,107,133.6717" style="stroke: #3C6DF0; stroke-width: 1.0;"/></g></svg>