<?xml version="1.0" encoding="UTF-8" standalone="no"?><svg xmlns="http://www.w3.org/2000/svg" xmlns:xlink="http://www.w3.org/1999/xlink" contentScriptType="application/ecmascript" contentStyleType="text/css" height="313px" preserveAspectRatio="none" style="width:217px;height:313px;" version="1.1" viewBox="0 0 217 313" width="217px" zoomAndPan="magnify"><defs/><g><!--class BaseException--><rect fill="#F8FAFA" height="66.8438" rx="1" ry="1" style="stroke: #E3ECEC; stroke-width: 1.5;" width="210" x="6" y="136.5"/><ellipse cx="50.75" cy="152.5" fill="#FFFFFF" rx="11" ry="11" style="stroke: #E3ECEC; stroke-width: 1.0;"/><path d="M53.1953,158.1641 Q52.6484,158.4453 52.0469,158.5859 Q51.4453,158.7266 50.7813,158.7266 Q48.4219,158.7266 47.1797,157.1719 Q45.9375,155.6172 45.9375,152.6797 Q45.9375,149.7344 47.1797,148.1797 Q48.4219,146.625 50.7813,146.625 Q51.4453,146.625 52.0547,146.7656 Q52.6641,146.9063 53.1953,147.1875 L53.1953,149.75 Q52.6016,149.2031 52.043,148.9492 Q51.4844,148.6953 50.8906,148.6953 Q49.625,148.6953 48.9805,149.6992 Q48.3359,150.7031 48.3359,152.6797 Q48.3359,154.6484 48.9805,155.6523 Q49.625,156.6563 50.8906,156.6563 Q51.4844,156.6563 52.043,156.4023 Q52.6016,156.1484 53.1953,155.6016 Z "/><text fill="#19273C" font-family="sans-serif" font-size="16" lengthAdjust="spacingAndGlyphs" textLength="112" x="71.25" y="158.5469">BaseException</text><line style="stroke: #E3ECEC; stroke-width: 1.5;" x1="7" x2="215" y1="168.5" y2="168.5"/><line style="stroke: #E3ECEC; stroke-width: 1.5;" x1="7" x2="215" y1="176.5" y2="176.5"/><ellipse cx="17" cy="190.9219" fill="#84BE84" rx="3" ry="3" style="stroke: #038048; stroke-width: 1.0;"/><text fill="#19273C" font-family="sans-serif" font-size="16" lengthAdjust="spacingAndGlyphs" textLength="184" x="26" y="195.9688">void constructor(string)</text><!--class Error--><rect fill="#F8FAFA" height="48" rx="1" ry="1" style="stroke: #E3ECEC; stroke-width: 1.5;" width="72" x="75" y="264"/><ellipse cx="90" cy="280" fill="#FFFFFF" rx="11" ry="11" style="stroke: #E3ECEC; stroke-width: 1.0;"/><path d="M92.4453,285.6641 Q91.8984,285.9453 91.2969,286.0859 Q90.6953,286.2266 90.0313,286.2266 Q87.6719,286.2266 86.4297,284.6719 Q85.1875,283.1172 85.1875,280.1797 Q85.1875,277.2344 86.4297,275.6797 Q87.6719,274.125 90.0313,274.125 Q90.6953,274.125 91.3047,274.2656 Q91.9141,274.4063 92.4453,274.6875 L92.4453,277.25 Q91.8516,276.7031 91.293,276.4492 Q90.7344,276.1953 90.1406,276.1953 Q88.875,276.1953 88.2305,277.1992 Q87.5859,278.2031 87.5859,280.1797 Q87.5859,282.1484 88.2305,283.1523 Q88.875,284.1563 90.1406,284.1563 Q90.7344,284.1563 91.293,283.9023 Q91.8516,283.6484 92.4453,283.1016 Z "/><text fill="#19273C" font-family="sans-serif" font-size="16" lengthAdjust="spacingAndGlyphs" textLength="40" x="104" y="286.0469">Error</text><line style="stroke: #E3ECEC; stroke-width: 1.5;" x1="76" x2="146" y1="296" y2="296"/><line style="stroke: #E3ECEC; stroke-width: 1.5;" x1="76" x2="146" y1="304" y2="304"/><!--class SecurityException--><rect fill="#F8FAFA" height="66.8438" rx="1" ry="1" style="stroke: #E3ECEC; stroke-width: 1.5;" width="210" x="6" y="8.5"/><ellipse cx="38.55" cy="24.5" fill="#FFFFFF" rx="11" ry="11" style="stroke: #E3ECEC; stroke-width: 1.0;"/><path d="M40.9953,30.1641 Q40.4484,30.4453 39.8469,30.5859 Q39.2453,30.7266 38.5813,30.7266 Q36.2219,30.7266 34.9797,29.1719 Q33.7375,27.6172 33.7375,24.6797 Q33.7375,21.7344 34.9797,20.1797 Q36.2219,18.625 38.5813,18.625 Q39.2453,18.625 39.8547,18.7656 Q40.4641,18.9063 40.9953,19.1875 L40.9953,21.75 Q40.4016,21.2031 39.843,20.9492 Q39.2844,20.6953 38.6906,20.6953 Q37.425,20.6953 36.7805,21.6992 Q36.1359,22.7031 36.1359,24.6797 Q36.1359,26.6484 36.7805,27.6523 Q37.425,28.6563 38.6906,28.6563 Q39.2844,28.6563 39.843,28.4023 Q40.4016,28.1484 40.9953,27.6016 Z "/><text fill="#19273C" font-family="sans-serif" font-size="16" lengthAdjust="spacingAndGlyphs" textLength="139" x="56.45" y="30.5469">SecurityException</text><line style="stroke: #E3ECEC; stroke-width: 1.5;" x1="7" x2="215" y1="40.5" y2="40.5"/><line style="stroke: #E3ECEC; stroke-width: 1.5;" x1="7" x2="215" y1="48.5" y2="48.5"/><ellipse cx="17" cy="62.9219" fill="#84BE84" rx="3" ry="3" style="stroke: #038048; stroke-width: 1.0;"/><text fill="#19273C" font-family="sans-serif" font-size="16" lengthAdjust="spacingAndGlyphs" textLength="184" x="26" y="67.9688">void constructor(string)</text><path d="M111,203.621 C111,216.0487 111,230.4125 111,243.6795 " fill="none" style="stroke: #3C6DF0; stroke-width: 1.0;"/><polygon fill="none" points="118,243.8078,111,263.8077,104.0001,243.8077,118,243.8078" style="stroke: #3C6DF0; stroke-width: 1.0;"/><path d="M111,75.776 C111,88.172 111,102.614 111,116.376 " fill="none" style="stroke: #3C6DF0; stroke-width: 1.0;"/><polygon fill="none" points="118,116.388,111,136.388,104.0001,116.388,118,116.388" style="stroke: #3C6DF0; stroke-width: 1.0;"/></g></svg>