<?xml version="1.0" encoding="UTF-8" standalone="no"?><svg xmlns="http://www.w3.org/2000/svg" xmlns:xlink="http://www.w3.org/1999/xlink" contentScriptType="application/ecmascript" contentStyleType="text/css" height="114px" preserveAspectRatio="none" style="width:311px;height:114px;" version="1.1" viewBox="0 0 311 114" width="311px" zoomAndPan="magnify"><defs/><g><!--class SecurityContext--><rect fill="#F8FAFA" height="104.5313" rx="1" ry="1" style="stroke: #E3ECEC; stroke-width: 1.5;" width="304" x="6" y="8.5"/><ellipse cx="91.75" cy="24.5" fill="#FFFFFF" rx="11" ry="11" style="stroke: #E3ECEC; stroke-width: 1.0;"/><path d="M94.1953,30.1641 Q93.6484,30.4453 93.0469,30.5859 Q92.4453,30.7266 91.7813,30.7266 Q89.4219,30.7266 88.1797,29.1719 Q86.9375,27.6172 86.9375,24.6797 Q86.9375,21.7344 88.1797,20.1797 Q89.4219,18.625 91.7813,18.625 Q92.4453,18.625 93.0547,18.7656 Q93.6641,18.9063 94.1953,19.1875 L94.1953,21.75 Q93.6016,21.2031 93.043,20.9492 Q92.4844,20.6953 91.8906,20.6953 Q90.625,20.6953 89.9805,21.6992 Q89.3359,22.7031 89.3359,24.6797 Q89.3359,26.6484 89.9805,27.6523 Q90.625,28.6563 91.8906,28.6563 Q92.4844,28.6563 93.043,28.4023 Q93.6016,28.1484 94.1953,27.6016 Z "/><text fill="#19273C" font-family="sans-serif" font-size="16" lengthAdjust="spacingAndGlyphs" textLength="124" x="112.25" y="30.5469">SecurityContext</text><line style="stroke: #E3ECEC; stroke-width: 1.5;" x1="7" x2="309" y1="40.5" y2="40.5"/><line style="stroke: #E3ECEC; stroke-width: 1.5;" x1="7" x2="309" y1="48.5" y2="48.5"/><ellipse cx="17" cy="62.9219" fill="#84BE84" rx="3" ry="3" style="stroke: #038048; stroke-width: 1.0;"/><text fill="#19273C" font-family="sans-serif" font-size="16" lengthAdjust="spacingAndGlyphs" textLength="278" x="26" y="67.9688">void constructor(Connection,string)</text><ellipse cx="17" cy="81.7656" fill="#84BE84" rx="3" ry="3" style="stroke: #038048; stroke-width: 1.0;"/><text fill="#19273C" font-family="sans-serif" font-size="16" lengthAdjust="spacingAndGlyphs" textLength="218" x="26" y="86.8125">Connection getConnection()</text><ellipse cx="17" cy="100.6094" fill="#84BE84" rx="3" ry="3" style="stroke: #038048; stroke-width: 1.0;"/><text fill="#19273C" font-family="sans-serif" font-size="16" lengthAdjust="spacingAndGlyphs" textLength="121" x="26" y="105.6563">string getUser()</text></g></svg>