<?xml version="1.0" encoding="UTF-8" standalone="no"?><svg xmlns="http://www.w3.org/2000/svg" xmlns:xlink="http://www.w3.org/1999/xlink" contentScriptType="application/ecmascript" contentStyleType="text/css" height="223px" preserveAspectRatio="none" style="width:773px;height:223px;" version="1.1" viewBox="0 0 773 223" width="773px" zoomAndPan="magnify"><defs/><g><!--class Resource--><rect fill="#F8FAFA" height="85.6875" rx="1" ry="1" style="stroke: #E3ECEC; stroke-width: 1.5;" width="188" x="6" y="18"/><ellipse cx="60.25" cy="34" fill="#FFFFFF" rx="11" ry="11" style="stroke: #E3ECEC; stroke-width: 1.0;"/><path d="M62.6953,39.6641 Q62.1484,39.9453 61.5469,40.0859 Q60.9453,40.2266 60.2813,40.2266 Q57.9219,40.2266 56.6797,38.6719 Q55.4375,37.1172 55.4375,34.1797 Q55.4375,31.2344 56.6797,29.6797 Q57.9219,28.125 60.2813,28.125 Q60.9453,28.125 61.5547,28.2656 Q62.1641,28.4063 62.6953,28.6875 L62.6953,31.25 Q62.1016,30.7031 61.543,30.4492 Q60.9844,30.1953 60.3906,30.1953 Q59.125,30.1953 58.4805,31.1992 Q57.8359,32.2031 57.8359,34.1797 Q57.8359,36.1484 58.4805,37.1523 Q59.125,38.1563 60.3906,38.1563 Q60.9844,38.1563 61.543,37.9023 Q62.1016,37.6484 62.6953,37.1016 Z "/><text fill="#19273C" font-family="sans-serif" font-size="16" lengthAdjust="spacingAndGlyphs" textLength="71" x="80.75" y="40.0469">Resource</text><line style="stroke: #E3ECEC; stroke-width: 1.5;" x1="7" x2="193" y1="50" y2="50"/><line style="stroke: #E3ECEC; stroke-width: 1.5;" x1="7" x2="193" y1="58" y2="58"/><ellipse cx="17" cy="72.4219" fill="#84BE84" rx="3" ry="3" style="stroke: #038048; stroke-width: 1.0;"/><text fill="#19273C" font-family="sans-serif" font-size="16" lengthAdjust="spacingAndGlyphs" textLength="125" x="26" y="77.4688">String toString()</text><ellipse cx="17" cy="91.2656" fill="#84BE84" rx="3" ry="3" style="stroke: #038048; stroke-width: 1.0;"/><text fill="#19273C" font-family="sans-serif" font-size="16" lengthAdjust="spacingAndGlyphs" textLength="162" x="26" y="96.3125">boolean isResource()</text><!--class Identifiable--><rect fill="#F8FAFA" height="48" rx="1" ry="1" style="stroke: #E3ECEC; stroke-width: 1.5;" width="121" x="39.75" y="174"/><ellipse cx="54.75" cy="190" fill="#FFFFFF" rx="11" ry="11" style="stroke: #E3ECEC; stroke-width: 1.0;"/><path d="M57.1953,195.6641 Q56.6484,195.9453 56.0469,196.0859 Q55.4453,196.2266 54.7813,196.2266 Q52.4219,196.2266 51.1797,194.6719 Q49.9375,193.1172 49.9375,190.1797 Q49.9375,187.2344 51.1797,185.6797 Q52.4219,184.125 54.7813,184.125 Q55.4453,184.125 56.0547,184.2656 Q56.6641,184.4063 57.1953,184.6875 L57.1953,187.25 Q56.6016,186.7031 56.043,186.4492 Q55.4844,186.1953 54.8906,186.1953 Q53.625,186.1953 52.9805,187.1992 Q52.3359,188.2031 52.3359,190.1797 Q52.3359,192.1484 52.9805,193.1523 Q53.625,194.1563 54.8906,194.1563 Q55.4844,194.1563 56.043,193.9023 Q56.6016,193.6484 57.1953,193.1016 Z "/><text fill="#19273C" font-family="sans-serif" font-size="16" lengthAdjust="spacingAndGlyphs" textLength="89" x="68.75" y="196.0469">Identifiable</text><line style="stroke: #E3ECEC; stroke-width: 1.5;" x1="40.75" x2="159.75" y1="206" y2="206"/><line style="stroke: #E3ECEC; stroke-width: 1.5;" x1="40.75" x2="159.75" y1="214" y2="214"/><!--class Serializer--><rect fill="#F8FAFA" height="104.5313" rx="1" ry="1" style="stroke: #E3ECEC; stroke-width: 1.5;" width="543" x="229.75" y="8.5"/><ellipse cx="460" cy="24.5" fill="#FFFFFF" rx="11" ry="11" style="stroke: #E3ECEC; stroke-width: 1.0;"/><path d="M462.4453,30.1641 Q461.8984,30.4453 461.2969,30.5859 Q460.6953,30.7266 460.0313,30.7266 Q457.6719,30.7266 456.4297,29.1719 Q455.1875,27.6172 455.1875,24.6797 Q455.1875,21.7344 456.4297,20.1797 Q457.6719,18.625 460.0313,18.625 Q460.6953,18.625 461.3047,18.7656 Q461.9141,18.9063 462.4453,19.1875 L462.4453,21.75 Q461.8516,21.2031 461.293,20.9492 Q460.7344,20.6953 460.1406,20.6953 Q458.875,20.6953 458.2305,21.6992 Q457.5859,22.7031 457.5859,24.6797 Q457.5859,26.6484 458.2305,27.6523 Q458.875,28.6563 460.1406,28.6563 Q460.7344,28.6563 461.293,28.4023 Q461.8516,28.1484 462.4453,27.6016 Z "/><text fill="#19273C" font-family="sans-serif" font-size="16" lengthAdjust="spacingAndGlyphs" textLength="74" x="480.5" y="30.5469">Serializer</text><line style="stroke: #E3ECEC; stroke-width: 1.5;" x1="230.75" x2="771.75" y1="40.5" y2="40.5"/><line style="stroke: #E3ECEC; stroke-width: 1.5;" x1="230.75" x2="771.75" y1="48.5" y2="48.5"/><ellipse cx="240.75" cy="62.9219" fill="#84BE84" rx="3" ry="3" style="stroke: #038048; stroke-width: 1.0;"/><text fill="#19273C" font-family="sans-serif" font-size="16" lengthAdjust="spacingAndGlyphs" textLength="316" x="249.75" y="67.9688">void constructor(Factory,ModelManager)</text><ellipse cx="240.75" cy="81.7656" fill="#84BE84" rx="3" ry="3" style="stroke: #038048; stroke-width: 1.0;"/><text fill="#19273C" font-family="sans-serif" font-size="16" lengthAdjust="spacingAndGlyphs" textLength="517" x="249.75" y="86.8125">Object toJSON(Resource,Object,boolean,boolean,boolean,boolean)</text><ellipse cx="240.75" cy="100.6094" fill="#84BE84" rx="3" ry="3" style="stroke: #038048; stroke-width: 1.0;"/><text fill="#19273C" font-family="sans-serif" font-size="16" lengthAdjust="spacingAndGlyphs" textLength="403" x="249.75" y="105.6563">Resource fromJSON(Object,Object,boolean,boolean)</text><path d="M100,104.344 C100,119.991 100,137.7418 100,153.4899 " fill="none" style="stroke: #3C6DF0; stroke-width: 1.0;"/><polygon fill="none" points="107,153.663,100,173.663,93.0001,153.6629,107,153.663" style="stroke: #3C6DF0; stroke-width: 1.0;"/></g></svg>