<?xml version="1.0" encoding="UTF-8" standalone="no"?><svg xmlns="http://www.w3.org/2000/svg" xmlns:xlink="http://www.w3.org/1999/xlink" contentScriptType="application/ecmascript" contentStyleType="text/css" height="542px" preserveAspectRatio="none" style="width:1005px;height:542px;" version="1.1" viewBox="0 0 1005 542" width="1005px" zoomAndPan="magnify"><defs/><g><!--class Registry--><rect fill="#F8FAFA" height="349.5" rx="1" ry="1" style="stroke: #E3ECEC; stroke-width: 1.5;" width="929" x="40.75" y="192"/><ellipse cx="469.5" cy="208" fill="#FFFFFF" rx="11" ry="11" style="stroke: #E3ECEC; stroke-width: 1.0;"/><path d="M471.9453,213.6641 Q471.3984,213.9453 470.7969,214.0859 Q470.1953,214.2266 469.5313,214.2266 Q467.1719,214.2266 465.9297,212.6719 Q464.6875,211.1172 464.6875,208.1797 Q464.6875,205.2344 465.9297,203.6797 Q467.1719,202.125 469.5313,202.125 Q470.1953,202.125 470.8047,202.2656 Q471.4141,202.4063 471.9453,202.6875 L471.9453,205.25 Q471.3516,204.7031 470.793,204.4492 Q470.2344,204.1953 469.6406,204.1953 Q468.375,204.1953 467.7305,205.1992 Q467.0859,206.2031 467.0859,208.1797 Q467.0859,210.1484 467.7305,211.1523 Q468.375,212.1563 469.6406,212.1563 Q470.2344,212.1563 470.793,211.9023 Q471.3516,211.6484 471.9453,211.1016 Z "/><text fill="#19273C" font-family="sans-serif" font-size="16" lengthAdjust="spacingAndGlyphs" textLength="63" x="490" y="214.0469">Registry</text><line style="stroke: #E3ECEC; stroke-width: 1.5;" x1="41.75" x2="968.75" y1="224" y2="224"/><line style="stroke: #E3ECEC; stroke-width: 1.5;" x1="41.75" x2="968.75" y1="232" y2="232"/><ellipse cx="51.75" cy="246.4219" fill="#84BE84" rx="3" ry="3" style="stroke: #038048; stroke-width: 1.0;"/><text fill="#19273C" font-family="sans-serif" font-size="16" lengthAdjust="spacingAndGlyphs" textLength="444" x="60.75" y="251.4688">Promise getAllRegistries(SecurityContext,string,boolean)</text><ellipse cx="51.75" cy="265.2656" fill="#84BE84" rx="3" ry="3" style="stroke: #038048; stroke-width: 1.0;"/><text fill="#19273C" font-family="sans-serif" font-size="16" lengthAdjust="spacingAndGlyphs" textLength="392" x="60.75" y="270.3125">Promise getRegistry(SecurityContext,string,string)</text><ellipse cx="51.75" cy="284.1094" fill="#84BE84" rx="3" ry="3" style="stroke: #038048; stroke-width: 1.0;"/><text fill="#19273C" font-family="sans-serif" font-size="16" lengthAdjust="spacingAndGlyphs" textLength="413" x="60.75" y="289.1563">Promise existsRegistry(SecurityContext,string,string)</text><ellipse cx="51.75" cy="302.9531" fill="#84BE84" rx="3" ry="3" style="stroke: #038048; stroke-width: 1.0;"/><text fill="#19273C" font-family="sans-serif" font-size="16" lengthAdjust="spacingAndGlyphs" textLength="447" x="60.75" y="308">Promise addRegistry(SecurityContext,string,string,string)</text><ellipse cx="51.75" cy="321.7969" fill="#84BE84" rx="3" ry="3" style="stroke: #038048; stroke-width: 1.0;"/><text fill="#19273C" font-family="sans-serif" font-size="16" lengthAdjust="spacingAndGlyphs" textLength="903" x="60.75" y="326.8438">void constructor(string,string,string,SecurityContext,ModelManager,Factory,Serializer,BusinessNetworkConnection)</text><ellipse cx="51.75" cy="340.6406" fill="#84BE84" rx="3" ry="3" style="stroke: #038048; stroke-width: 1.0;"/><text fill="#19273C" font-family="sans-serif" font-size="16" lengthAdjust="spacingAndGlyphs" textLength="209" x="60.75" y="345.6875">Promise addAll(Resource[])</text><ellipse cx="51.75" cy="359.4844" fill="#84BE84" rx="3" ry="3" style="stroke: #038048; stroke-width: 1.0;"/><text fill="#19273C" font-family="sans-serif" font-size="16" lengthAdjust="spacingAndGlyphs" textLength="178" x="60.75" y="364.5313">Promise add(Resource)</text><ellipse cx="51.75" cy="378.3281" fill="#84BE84" rx="3" ry="3" style="stroke: #038048; stroke-width: 1.0;"/><text fill="#19273C" font-family="sans-serif" font-size="16" lengthAdjust="spacingAndGlyphs" textLength="234" x="60.75" y="383.375">Promise updateAll(Resource[])</text><ellipse cx="51.75" cy="397.1719" fill="#84BE84" rx="3" ry="3" style="stroke: #038048; stroke-width: 1.0;"/><text fill="#19273C" font-family="sans-serif" font-size="16" lengthAdjust="spacingAndGlyphs" textLength="203" x="60.75" y="402.2188">Promise update(Resource)</text><ellipse cx="51.75" cy="416.0156" fill="#84BE84" rx="3" ry="3" style="stroke: #038048; stroke-width: 1.0;"/><text fill="#19273C" font-family="sans-serif" font-size="16" lengthAdjust="spacingAndGlyphs" textLength="157" x="60.75" y="421.0625">Promise removeAll()</text><ellipse cx="51.75" cy="434.8594" fill="#84BE84" rx="3" ry="3" style="stroke: #038048; stroke-width: 1.0;"/><text fill="#19273C" font-family="sans-serif" font-size="16" lengthAdjust="spacingAndGlyphs" textLength="136" x="60.75" y="439.9063">Promise remove()</text><ellipse cx="51.75" cy="453.7031" fill="#84BE84" rx="3" ry="3" style="stroke: #038048; stroke-width: 1.0;"/><text fill="#19273C" font-family="sans-serif" font-size="16" lengthAdjust="spacingAndGlyphs" textLength="124" x="60.75" y="458.75">Promise getAll()</text><ellipse cx="51.75" cy="472.5469" fill="#84BE84" rx="3" ry="3" style="stroke: #038048; stroke-width: 1.0;"/><text fill="#19273C" font-family="sans-serif" font-size="16" lengthAdjust="spacingAndGlyphs" textLength="149" x="60.75" y="477.5938">Promise get(string)</text><ellipse cx="51.75" cy="491.3906" fill="#84BE84" rx="3" ry="3" style="stroke: #038048; stroke-width: 1.0;"/><text fill="#19273C" font-family="sans-serif" font-size="16" lengthAdjust="spacingAndGlyphs" textLength="170" x="60.75" y="496.4375">Promise exists(string)</text><ellipse cx="51.75" cy="510.2344" fill="#84BE84" rx="3" ry="3" style="stroke: #038048; stroke-width: 1.0;"/><text fill="#19273C" font-family="sans-serif" font-size="16" lengthAdjust="spacingAndGlyphs" textLength="155" x="60.75" y="515.2813">Promise resolveAll()</text><ellipse cx="51.75" cy="529.0781" fill="#84BE84" rx="3" ry="3" style="stroke: #038048; stroke-width: 1.0;"/><text fill="#19273C" font-family="sans-serif" font-size="16" lengthAdjust="spacingAndGlyphs" textLength="180" x="60.75" y="534.125">Promise resolve(string)</text><!--class TransactionRegistry--><rect fill="#F8FAFA" height="123.375" rx="1" ry="1" style="stroke: #E3ECEC; stroke-width: 1.5;" width="998" x="6" y="8.5"/><ellipse cx="423.25" cy="24.5" fill="#FFFFFF" rx="11" ry="11" style="stroke: #E3ECEC; stroke-width: 1.0;"/><path d="M425.6953,30.1641 Q425.1484,30.4453 424.5469,30.5859 Q423.9453,30.7266 423.2813,30.7266 Q420.9219,30.7266 419.6797,29.1719 Q418.4375,27.6172 418.4375,24.6797 Q418.4375,21.7344 419.6797,20.1797 Q420.9219,18.625 423.2813,18.625 Q423.9453,18.625 424.5547,18.7656 Q425.1641,18.9063 425.6953,19.1875 L425.6953,21.75 Q425.1016,21.2031 424.543,20.9492 Q423.9844,20.6953 423.3906,20.6953 Q422.125,20.6953 421.4805,21.6992 Q420.8359,22.7031 420.8359,24.6797 Q420.8359,26.6484 421.4805,27.6523 Q422.125,28.6563 423.3906,28.6563 Q423.9844,28.6563 424.543,28.4023 Q425.1016,28.1484 425.6953,27.6016 Z "/><text fill="#19273C" font-family="sans-serif" font-size="16" lengthAdjust="spacingAndGlyphs" textLength="155" x="443.75" y="30.5469">TransactionRegistry</text><line style="stroke: #E3ECEC; stroke-width: 1.5;" x1="7" x2="1003" y1="40.5" y2="40.5"/><line style="stroke: #E3ECEC; stroke-width: 1.5;" x1="7" x2="1003" y1="48.5" y2="48.5"/><ellipse cx="17" cy="62.9219" fill="#84BE84" rx="3" ry="3" style="stroke: #038048; stroke-width: 1.0;"/><text fill="#19273C" font-family="sans-serif" font-size="16" lengthAdjust="spacingAndGlyphs" textLength="972" x="26" y="67.9688">Promise getAllTransactionRegistries(SecurityContext,ModelManager,Factory,Serializer,BusinessNetworkConnection,Boolean)</text><ellipse cx="17" cy="81.7656" fill="#84BE84" rx="3" ry="3" style="stroke: #038048; stroke-width: 1.0;"/><text fill="#19273C" font-family="sans-serif" font-size="16" lengthAdjust="spacingAndGlyphs" textLength="695" x="26" y="86.8125">Promise getTransactionRegistry(SecurityContext,string,ModelManager,Factory,Serializer)</text><ellipse cx="17" cy="100.6094" fill="#84BE84" rx="3" ry="3" style="stroke: #038048; stroke-width: 1.0;"/><text fill="#19273C" font-family="sans-serif" font-size="16" lengthAdjust="spacingAndGlyphs" textLength="750" x="26" y="105.6563">Promise addTransactionRegistry(SecurityContext,string,string,ModelManager,Factory,Serializer)</text><ellipse cx="17" cy="119.4531" fill="#84BE84" rx="3" ry="3" style="stroke: #038048; stroke-width: 1.0;"/><text fill="#19273C" font-family="sans-serif" font-size="16" lengthAdjust="spacingAndGlyphs" textLength="712" x="26" y="124.5">Promise transactionRegistryExists(SecurityContext,string,ModelManager,Factory,Serializer)</text><path d="M505,131.766 C505,143.976 505,157.415 505,171.491 " fill="none" style="stroke: #3C6DF0; stroke-width: 1.0;"/><polygon fill="none" points="512,171.756,505,191.756,498,171.756,512,171.756" style="stroke: #3C6DF0; stroke-width: 1.0;"/></g></svg>