<?xml version="1.0" encoding="UTF-8" standalone="no"?><svg xmlns="http://www.w3.org/2000/svg" xmlns:xlink="http://www.w3.org/1999/xlink" contentScriptType="application/ecmascript" contentStyleType="text/css" height="170px" preserveAspectRatio="none" style="width:310px;height:170px;" version="1.1" viewBox="0 0 310 170" width="310px" zoomAndPan="magnify"><defs/><g><!--class Typed--><rect fill="#F8FAFA" height="161.0625" rx="1" ry="1" style="stroke: #E3ECEC; stroke-width: 1.5;" width="303" x="6" y="8.5"/><ellipse cx="129.75" cy="24.5" fill="#FFFFFF" rx="11" ry="11" style="stroke: #E3ECEC; stroke-width: 1.0;"/><path d="M132.1953,30.1641 Q131.6484,30.4453 131.0469,30.5859 Q130.4453,30.7266 129.7813,30.7266 Q127.4219,30.7266 126.1797,29.1719 Q124.9375,27.6172 124.9375,24.6797 Q124.9375,21.7344 126.1797,20.1797 Q127.4219,18.625 129.7813,18.625 Q130.4453,18.625 131.0547,18.7656 Q131.6641,18.9063 132.1953,19.1875 L132.1953,21.75 Q131.6016,21.2031 131.043,20.9492 Q130.4844,20.6953 129.8906,20.6953 Q128.625,20.6953 127.9805,21.6992 Q127.3359,22.7031 127.3359,24.6797 Q127.3359,26.6484 127.9805,27.6523 Q128.625,28.6563 129.8906,28.6563 Q130.4844,28.6563 131.043,28.4023 Q131.6016,28.1484 132.1953,27.6016 Z "/><text fill="#19273C" font-family="sans-serif" font-size="16" lengthAdjust="spacingAndGlyphs" textLength="47" x="150.25" y="30.5469">Typed</text><line style="stroke: #E3ECEC; stroke-width: 1.5;" x1="7" x2="308" y1="40.5" y2="40.5"/><line style="stroke: #E3ECEC; stroke-width: 1.5;" x1="7" x2="308" y1="48.5" y2="48.5"/><ellipse cx="17" cy="62.9219" fill="#84BE84" rx="3" ry="3" style="stroke: #038048; stroke-width: 1.0;"/><text fill="#19273C" font-family="sans-serif" font-size="16" lengthAdjust="spacingAndGlyphs" textLength="123" x="26" y="67.9688">string getType()</text><ellipse cx="17" cy="81.7656" fill="#84BE84" rx="3" ry="3" style="stroke: #038048; stroke-width: 1.0;"/><text fill="#19273C" font-family="sans-serif" font-size="16" lengthAdjust="spacingAndGlyphs" textLength="231" x="26" y="86.8125">string getFullyQualifiedType()</text><ellipse cx="17" cy="100.6094" fill="#84BE84" rx="3" ry="3" style="stroke: #038048; stroke-width: 1.0;"/><text fill="#19273C" font-family="sans-serif" font-size="16" lengthAdjust="spacingAndGlyphs" textLength="175" x="26" y="105.6563">string getNamespace()</text><ellipse cx="17" cy="119.4531" fill="#84BE84" rx="3" ry="3" style="stroke: #038048; stroke-width: 1.0;"/><text fill="#19273C" font-family="sans-serif" font-size="16" lengthAdjust="spacingAndGlyphs" textLength="277" x="26" y="124.5">void setPropertyValue(string,string)</text><ellipse cx="17" cy="138.2969" fill="#84BE84" rx="3" ry="3" style="stroke: #038048; stroke-width: 1.0;"/><text fill="#19273C" font-family="sans-serif" font-size="16" lengthAdjust="spacingAndGlyphs" textLength="259" x="26" y="143.3438">void addArrayValue(string,string)</text><ellipse cx="17" cy="157.1406" fill="#84BE84" rx="3" ry="3" style="stroke: #038048; stroke-width: 1.0;"/><text fill="#19273C" font-family="sans-serif" font-size="16" lengthAdjust="spacingAndGlyphs" textLength="208" x="26" y="162.1875">boolean instanceOf(String)</text></g></svg>