<?xml version="1.0" encoding="UTF-8" standalone="no"?><svg xmlns="http://www.w3.org/2000/svg" xmlns:xlink="http://www.w3.org/1999/xlink" contentScriptType="application/ecmascript" contentStyleType="text/css" height="331px" preserveAspectRatio="none" style="width:270px;height:331px;" version="1.1" viewBox="0 0 270 331" width="270px" zoomAndPan="magnify"><defs/><g><!--class BaseException--><rect fill="#F8FAFA" height="66.8438" rx="1" ry="1" style="stroke: #E3ECEC; stroke-width: 1.5;" width="210" x="32.25" y="154.5"/><ellipse cx="77" cy="170.5" fill="#FFFFFF" rx="11" ry="11" style="stroke: #E3ECEC; stroke-width: 1.0;"/><path d="M79.4453,176.1641 Q78.8984,176.4453 78.2969,176.5859 Q77.6953,176.7266 77.0313,176.7266 Q74.6719,176.7266 73.4297,175.1719 Q72.1875,173.6172 72.1875,170.6797 Q72.1875,167.7344 73.4297,166.1797 Q74.6719,164.625 77.0313,164.625 Q77.6953,164.625 78.3047,164.7656 Q78.9141,164.9063 79.4453,165.1875 L79.4453,167.75 Q78.8516,167.2031 78.293,166.9492 Q77.7344,166.6953 77.1406,166.6953 Q75.875,166.6953 75.2305,167.6992 Q74.5859,168.7031 74.5859,170.6797 Q74.5859,172.6484 75.2305,173.6523 Q75.875,174.6563 77.1406,174.6563 Q77.7344,174.6563 78.293,174.4023 Q78.8516,174.1484 79.4453,173.6016 Z "/><text fill="#19273C" font-family="sans-serif" font-size="16" lengthAdjust="spacingAndGlyphs" textLength="112" x="97.5" y="176.5469">BaseException</text><line style="stroke: #E3ECEC; stroke-width: 1.5;" x1="33.25" x2="241.25" y1="186.5" y2="186.5"/><line style="stroke: #E3ECEC; stroke-width: 1.5;" x1="33.25" x2="241.25" y1="194.5" y2="194.5"/><ellipse cx="43.25" cy="208.9219" fill="#84BE84" rx="3" ry="3" style="stroke: #038048; stroke-width: 1.0;"/><text fill="#19273C" font-family="sans-serif" font-size="16" lengthAdjust="spacingAndGlyphs" textLength="184" x="52.25" y="213.9688">void constructor(string)</text><!--class Error--><rect fill="#F8FAFA" height="48" rx="1" ry="1" style="stroke: #E3ECEC; stroke-width: 1.5;" width="72" x="101.25" y="282"/><ellipse cx="116.25" cy="298" fill="#FFFFFF" rx="11" ry="11" style="stroke: #E3ECEC; stroke-width: 1.0;"/><path d="M118.6953,303.6641 Q118.1484,303.9453 117.5469,304.0859 Q116.9453,304.2266 116.2813,304.2266 Q113.9219,304.2266 112.6797,302.6719 Q111.4375,301.1172 111.4375,298.1797 Q111.4375,295.2344 112.6797,293.6797 Q113.9219,292.125 116.2813,292.125 Q116.9453,292.125 117.5547,292.2656 Q118.1641,292.4063 118.6953,292.6875 L118.6953,295.25 Q118.1016,294.7031 117.543,294.4492 Q116.9844,294.1953 116.3906,294.1953 Q115.125,294.1953 114.4805,295.1992 Q113.8359,296.2031 113.8359,298.1797 Q113.8359,300.1484 114.4805,301.1523 Q115.125,302.1563 116.3906,302.1563 Q116.9844,302.1563 117.543,301.9023 Q118.1016,301.6484 118.6953,301.1016 Z "/><text fill="#19273C" font-family="sans-serif" font-size="16" lengthAdjust="spacingAndGlyphs" textLength="40" x="130.25" y="304.0469">Error</text><line style="stroke: #E3ECEC; stroke-width: 1.5;" x1="102.25" x2="172.25" y1="314" y2="314"/><line style="stroke: #E3ECEC; stroke-width: 1.5;" x1="102.25" x2="172.25" y1="322" y2="322"/><!--class TypeNotFoundException--><rect fill="#F8FAFA" height="85.6875" rx="1" ry="1" style="stroke: #E3ECEC; stroke-width: 1.5;" width="263" x="6" y="8"/><ellipse cx="39" cy="24" fill="#FFFFFF" rx="11" ry="11" style="stroke: #E3ECEC; stroke-width: 1.0;"/><path d="M41.4453,29.6641 Q40.8984,29.9453 40.2969,30.0859 Q39.6953,30.2266 39.0313,30.2266 Q36.6719,30.2266 35.4297,28.6719 Q34.1875,27.1172 34.1875,24.1797 Q34.1875,21.2344 35.4297,19.6797 Q36.6719,18.125 39.0313,18.125 Q39.6953,18.125 40.3047,18.2656 Q40.9141,18.4063 41.4453,18.6875 L41.4453,21.25 Q40.8516,20.7031 40.293,20.4492 Q39.7344,20.1953 39.1406,20.1953 Q37.875,20.1953 37.2305,21.1992 Q36.5859,22.2031 36.5859,24.1797 Q36.5859,26.1484 37.2305,27.1523 Q37.875,28.1563 39.1406,28.1563 Q39.7344,28.1563 40.293,27.9023 Q40.8516,27.6484 41.4453,27.1016 Z "/><text fill="#19273C" font-family="sans-serif" font-size="16" lengthAdjust="spacingAndGlyphs" textLength="191" x="57" y="30.0469">TypeNotFoundException</text><line style="stroke: #E3ECEC; stroke-width: 1.5;" x1="7" x2="268" y1="40" y2="40"/><line style="stroke: #E3ECEC; stroke-width: 1.5;" x1="7" x2="268" y1="48" y2="48"/><ellipse cx="17" cy="62.4219" fill="#84BE84" rx="3" ry="3" style="stroke: #038048; stroke-width: 1.0;"/><text fill="#19273C" font-family="sans-serif" font-size="16" lengthAdjust="spacingAndGlyphs" textLength="237" x="26" y="67.4688">void constructor(String,String)</text><ellipse cx="17" cy="81.2656" fill="#84BE84" rx="3" ry="3" style="stroke: #038048; stroke-width: 1.0;"/><text fill="#19273C" font-family="sans-serif" font-size="16" lengthAdjust="spacingAndGlyphs" textLength="168" x="26" y="86.3125">string getTypeName()</text><path d="M137.25,221.621 C137.25,234.0487 137.25,248.4125 137.25,261.6795 " fill="none" style="stroke: #3C6DF0; stroke-width: 1.0;"/><polygon fill="none" points="144.25,261.8078,137.25,281.8077,130.25,261.8077,144.25,261.8078" style="stroke: #3C6DF0; stroke-width: 1.0;"/><path d="M137.25,94.344 C137.25,106.88 137.25,120.766 137.25,133.891 " fill="none" style="stroke: #3C6DF0; stroke-width: 1.0;"/><polygon fill="none" points="144.25,134.23,137.25,154.23,130.25,134.23,144.25,134.23" style="stroke: #3C6DF0; stroke-width: 1.0;"/></g></svg>