<?xml version="1.0" encoding="UTF-8" standalone="no"?><svg xmlns="http://www.w3.org/2000/svg" xmlns:xlink="http://www.w3.org/1999/xlink" contentScriptType="application/ecmascript" contentStyleType="text/css" height="185px" preserveAspectRatio="none" style="width:217px;height:185px;" version="1.1" viewBox="0 0 217 185" width="217px" zoomAndPan="magnify"><defs/><g><!--class ValidationException--><rect fill="#F8FAFA" height="66.8438" rx="1" ry="1" style="stroke: #E3ECEC; stroke-width: 1.5;" width="210" x="6" y="8.5"/><ellipse cx="30.9" cy="24.5" fill="#FFFFFF" rx="11" ry="11" style="stroke: #E3ECEC; stroke-width: 1.0;"/><path d="M33.3453,30.1641 Q32.7984,30.4453 32.1969,30.5859 Q31.5953,30.7266 30.9313,30.7266 Q28.5719,30.7266 27.3297,29.1719 Q26.0875,27.6172 26.0875,24.6797 Q26.0875,21.7344 27.3297,20.1797 Q28.5719,18.625 30.9313,18.625 Q31.5953,18.625 32.2047,18.7656 Q32.8141,18.9063 33.3453,19.1875 L33.3453,21.75 Q32.7516,21.2031 32.193,20.9492 Q31.6344,20.6953 31.0406,20.6953 Q29.775,20.6953 29.1305,21.6992 Q28.4859,22.7031 28.4859,24.6797 Q28.4859,26.6484 29.1305,27.6523 Q29.775,28.6563 31.0406,28.6563 Q31.6344,28.6563 32.193,28.4023 Q32.7516,28.1484 33.3453,27.6016 Z "/><text fill="#19273C" font-family="sans-serif" font-size="16" lengthAdjust="spacingAndGlyphs" textLength="156" x="47.1" y="30.5469">ValidationException</text><line style="stroke: #E3ECEC; stroke-width: 1.5;" x1="7" x2="215" y1="40.5" y2="40.5"/><line style="stroke: #E3ECEC; stroke-width: 1.5;" x1="7" x2="215" y1="48.5" y2="48.5"/><ellipse cx="17" cy="62.9219" fill="#84BE84" rx="3" ry="3" style="stroke: #038048; stroke-width: 1.0;"/><text fill="#19273C" font-family="sans-serif" font-size="16" lengthAdjust="spacingAndGlyphs" textLength="184" x="26" y="67.9688">void constructor(string)</text><!--class BaseException--><rect fill="#F8FAFA" height="48" rx="1" ry="1" style="stroke: #E3ECEC; stroke-width: 1.5;" width="144" x="39" y="136"/><ellipse cx="54" cy="152" fill="#FFFFFF" rx="11" ry="11" style="stroke: #E3ECEC; stroke-width: 1.0;"/><path d="M56.4453,157.6641 Q55.8984,157.9453 55.2969,158.0859 Q54.6953,158.2266 54.0313,158.2266 Q51.6719,158.2266 50.4297,156.6719 Q49.1875,155.1172 49.1875,152.1797 Q49.1875,149.2344 50.4297,147.6797 Q51.6719,146.125 54.0313,146.125 Q54.6953,146.125 55.3047,146.2656 Q55.9141,146.4063 56.4453,146.6875 L56.4453,149.25 Q55.8516,148.7031 55.293,148.4492 Q54.7344,148.1953 54.1406,148.1953 Q52.875,148.1953 52.2305,149.1992 Q51.5859,150.2031 51.5859,152.1797 Q51.5859,154.1484 52.2305,155.1523 Q52.875,156.1563 54.1406,156.1563 Q54.7344,156.1563 55.293,155.9023 Q55.8516,155.6484 56.4453,155.1016 Z "/><text fill="#19273C" font-family="sans-serif" font-size="16" lengthAdjust="spacingAndGlyphs" textLength="112" x="68" y="158.0469">BaseException</text><line style="stroke: #E3ECEC; stroke-width: 1.5;" x1="40" x2="182" y1="168" y2="168"/><line style="stroke: #E3ECEC; stroke-width: 1.5;" x1="40" x2="182" y1="176" y2="176"/><path d="M111,75.621 C111,88.0487 111,102.4125 111,115.6795 " fill="none" style="stroke: #3C6DF0; stroke-width: 1.0;"/><polygon fill="none" points="118,115.8078,111,135.8077,104.0001,115.8077,118,115.8078" style="stroke: #3C6DF0; stroke-width: 1.0;"/></g></svg>