<?xml version="1.0" encoding="UTF-8" standalone="no"?><svg xmlns="http://www.w3.org/2000/svg" xmlns:xlink="http://www.w3.org/1999/xlink" contentScriptType="application/ecmascript" contentStyleType="text/css" height="223px" preserveAspectRatio="none" style="width:310px;height:223px;" version="1.1" viewBox="0 0 310 223" width="310px" zoomAndPan="magnify"><defs/><g><!--class ValidatedConcept--><rect fill="#F8FAFA" height="104.5313" rx="1" ry="1" style="stroke: #E3ECEC; stroke-width: 1.5;" width="303" x="6" y="8.5"/><ellipse cx="84.75" cy="24.5" fill="#FFFFFF" rx="11" ry="11" style="stroke: #E3ECEC; stroke-width: 1.0;"/><path d="M87.1953,30.1641 Q86.6484,30.4453 86.0469,30.5859 Q85.4453,30.7266 84.7813,30.7266 Q82.4219,30.7266 81.1797,29.1719 Q79.9375,27.6172 79.9375,24.6797 Q79.9375,21.7344 81.1797,20.1797 Q82.4219,18.625 84.7813,18.625 Q85.4453,18.625 86.0547,18.7656 Q86.6641,18.9063 87.1953,19.1875 L87.1953,21.75 Q86.6016,21.2031 86.043,20.9492 Q85.4844,20.6953 84.8906,20.6953 Q83.625,20.6953 82.9805,21.6992 Q82.3359,22.7031 82.3359,24.6797 Q82.3359,26.6484 82.9805,27.6523 Q83.625,28.6563 84.8906,28.6563 Q85.4844,28.6563 86.043,28.4023 Q86.6016,28.1484 87.1953,27.6016 Z "/><text fill="#19273C" font-family="sans-serif" font-size="16" lengthAdjust="spacingAndGlyphs" textLength="137" x="105.25" y="30.5469">ValidatedConcept</text><line style="stroke: #E3ECEC; stroke-width: 1.5;" x1="7" x2="308" y1="40.5" y2="40.5"/><line style="stroke: #E3ECEC; stroke-width: 1.5;" x1="7" x2="308" y1="48.5" y2="48.5"/><ellipse cx="17" cy="62.9219" fill="#84BE84" rx="3" ry="3" style="stroke: #038048; stroke-width: 1.0;"/><text fill="#19273C" font-family="sans-serif" font-size="16" lengthAdjust="spacingAndGlyphs" textLength="277" x="26" y="67.9688">void setPropertyValue(string,string)</text><ellipse cx="17" cy="81.7656" fill="#84BE84" rx="3" ry="3" style="stroke: #038048; stroke-width: 1.0;"/><text fill="#19273C" font-family="sans-serif" font-size="16" lengthAdjust="spacingAndGlyphs" textLength="259" x="26" y="86.8125">void addArrayValue(string,string)</text><ellipse cx="17" cy="100.6094" fill="#84BE84" rx="3" ry="3" style="stroke: #038048; stroke-width: 1.0;"/><text fill="#19273C" font-family="sans-serif" font-size="16" lengthAdjust="spacingAndGlyphs" textLength="109" x="26" y="105.6563">void validate()</text><!--class Concept--><rect fill="#F8FAFA" height="48" rx="1" ry="1" style="stroke: #E3ECEC; stroke-width: 1.5;" width="96" x="109.25" y="174"/><ellipse cx="124.25" cy="190" fill="#FFFFFF" rx="11" ry="11" style="stroke: #E3ECEC; stroke-width: 1.0;"/><path d="M126.6953,195.6641 Q126.1484,195.9453 125.5469,196.0859 Q124.9453,196.2266 124.2813,196.2266 Q121.9219,196.2266 120.6797,194.6719 Q119.4375,193.1172 119.4375,190.1797 Q119.4375,187.2344 120.6797,185.6797 Q121.9219,184.125 124.2813,184.125 Q124.9453,184.125 125.5547,184.2656 Q126.1641,184.4063 126.6953,184.6875 L126.6953,187.25 Q126.1016,186.7031 125.543,186.4492 Q124.9844,186.1953 124.3906,186.1953 Q123.125,186.1953 122.4805,187.1992 Q121.8359,188.2031 121.8359,190.1797 Q121.8359,192.1484 122.4805,193.1523 Q123.125,194.1563 124.3906,194.1563 Q124.9844,194.1563 125.543,193.9023 Q126.1016,193.6484 126.6953,193.1016 Z "/><text fill="#19273C" font-family="sans-serif" font-size="16" lengthAdjust="spacingAndGlyphs" textLength="64" x="138.25" y="196.0469">Concept</text><line style="stroke: #E3ECEC; stroke-width: 1.5;" x1="110.25" x2="204.25" y1="206" y2="206"/><line style="stroke: #E3ECEC; stroke-width: 1.5;" x1="110.25" x2="204.25" y1="214" y2="214"/><path d="M157.25,113.808 C157.25,126.8894 157.25,140.8028 157.25,153.4321 " fill="none" style="stroke: #3C6DF0; stroke-width: 1.0;"/><polygon fill="none" points="164.25,153.7063,157.25,173.7062,150.25,153.7062,164.25,153.7063" style="stroke: #3C6DF0; stroke-width: 1.0;"/></g></svg>