<?xml version="1.0" encoding="UTF-8" standalone="no"?><svg xmlns="http://www.w3.org/2000/svg" xmlns:xlink="http://www.w3.org/1999/xlink" contentScriptType="application/ecmascript" contentStyleType="text/css" height="223px" preserveAspectRatio="none" style="width:310px;height:223px;" version="1.1" viewBox="0 0 310 223" width="310px" zoomAndPan="magnify"><defs/><g><!--class ValidatedResource--><rect fill="#F8FAFA" height="104.5313" rx="1" ry="1" style="stroke: #E3ECEC; stroke-width: 1.5;" width="303" x="6" y="8.5"/><ellipse cx="81.25" cy="24.5" fill="#FFFFFF" rx="11" ry="11" style="stroke: #E3ECEC; stroke-width: 1.0;"/><path d="M83.6953,30.1641 Q83.1484,30.4453 82.5469,30.5859 Q81.9453,30.7266 81.2813,30.7266 Q78.9219,30.7266 77.6797,29.1719 Q76.4375,27.6172 76.4375,24.6797 Q76.4375,21.7344 77.6797,20.1797 Q78.9219,18.625 81.2813,18.625 Q81.9453,18.625 82.5547,18.7656 Q83.1641,18.9063 83.6953,19.1875 L83.6953,21.75 Q83.1016,21.2031 82.543,20.9492 Q81.9844,20.6953 81.3906,20.6953 Q80.125,20.6953 79.4805,21.6992 Q78.8359,22.7031 78.8359,24.6797 Q78.8359,26.6484 79.4805,27.6523 Q80.125,28.6563 81.3906,28.6563 Q81.9844,28.6563 82.543,28.4023 Q83.1016,28.1484 83.6953,27.6016 Z "/><text fill="#19273C" font-family="sans-serif" font-size="16" lengthAdjust="spacingAndGlyphs" textLength="144" x="101.75" y="30.5469">ValidatedResource</text><line style="stroke: #E3ECEC; stroke-width: 1.5;" x1="7" x2="308" y1="40.5" y2="40.5"/><line style="stroke: #E3ECEC; stroke-width: 1.5;" x1="7" x2="308" y1="48.5" y2="48.5"/><ellipse cx="17" cy="62.9219" fill="#84BE84" rx="3" ry="3" style="stroke: #038048; stroke-width: 1.0;"/><text fill="#19273C" font-family="sans-serif" font-size="16" lengthAdjust="spacingAndGlyphs" textLength="277" x="26" y="67.9688">void setPropertyValue(string,string)</text><ellipse cx="17" cy="81.7656" fill="#84BE84" rx="3" ry="3" style="stroke: #038048; stroke-width: 1.0;"/><text fill="#19273C" font-family="sans-serif" font-size="16" lengthAdjust="spacingAndGlyphs" textLength="259" x="26" y="86.8125">void addArrayValue(string,string)</text><ellipse cx="17" cy="100.6094" fill="#84BE84" rx="3" ry="3" style="stroke: #038048; stroke-width: 1.0;"/><text fill="#19273C" font-family="sans-serif" font-size="16" lengthAdjust="spacingAndGlyphs" textLength="109" x="26" y="105.6563">void validate()</text><!--class Resource--><rect fill="#F8FAFA" height="48" rx="1" ry="1" style="stroke: #E3ECEC; stroke-width: 1.5;" width="103" x="106" y="174"/><ellipse cx="121" cy="190" fill="#FFFFFF" rx="11" ry="11" style="stroke: #E3ECEC; stroke-width: 1.0;"/><path d="M123.4453,195.6641 Q122.8984,195.9453 122.2969,196.0859 Q121.6953,196.2266 121.0313,196.2266 Q118.6719,196.2266 117.4297,194.6719 Q116.1875,193.1172 116.1875,190.1797 Q116.1875,187.2344 117.4297,185.6797 Q118.6719,184.125 121.0313,184.125 Q121.6953,184.125 122.3047,184.2656 Q122.9141,184.4063 123.4453,184.6875 L123.4453,187.25 Q122.8516,186.7031 122.293,186.4492 Q121.7344,186.1953 121.1406,186.1953 Q119.875,186.1953 119.2305,187.1992 Q118.5859,188.2031 118.5859,190.1797 Q118.5859,192.1484 119.2305,193.1523 Q119.875,194.1563 121.1406,194.1563 Q121.7344,194.1563 122.293,193.9023 Q122.8516,193.6484 123.4453,193.1016 Z "/><text fill="#19273C" font-family="sans-serif" font-size="16" lengthAdjust="spacingAndGlyphs" textLength="71" x="135" y="196.0469">Resource</text><line style="stroke: #E3ECEC; stroke-width: 1.5;" x1="107" x2="208" y1="206" y2="206"/><line style="stroke: #E3ECEC; stroke-width: 1.5;" x1="107" x2="208" y1="214" y2="214"/><path d="M157.25,113.808 C157.25,126.8894 157.25,140.8028 157.25,153.4321 " fill="none" style="stroke: #3C6DF0; stroke-width: 1.0;"/><polygon fill="none" points="164.25,153.7063,157.25,173.7062,150.25,153.7062,164.25,153.7063" style="stroke: #3C6DF0; stroke-width: 1.0;"/></g></svg>