<?xml version="1.0" encoding="UTF-8" standalone="no"?><svg xmlns="http://www.w3.org/2000/svg" xmlns:xlink="http://www.w3.org/1999/xlink" contentScriptType="application/ecmascript" contentStyleType="text/css" height="208px" preserveAspectRatio="none" style="width:262px;height:208px;" version="1.1" viewBox="0 0 262 208" width="262px" zoomAndPan="magnify"><defs/><g><!--class Wallet--><rect fill="#F8FAFA" height="198.75" rx="1" ry="1" style="stroke: #E3ECEC; stroke-width: 1.5;" width="255" x="6" y="8.5"/><ellipse cx="105.25" cy="24.5" fill="#FFFFFF" rx="11" ry="11" style="stroke: #E3ECEC; stroke-width: 1.0;"/><path d="M107.6953,30.1641 Q107.1484,30.4453 106.5469,30.5859 Q105.9453,30.7266 105.2813,30.7266 Q102.9219,30.7266 101.6797,29.1719 Q100.4375,27.6172 100.4375,24.6797 Q100.4375,21.7344 101.6797,20.1797 Q102.9219,18.625 105.2813,18.625 Q105.9453,18.625 106.5547,18.7656 Q107.1641,18.9063 107.6953,19.1875 L107.6953,21.75 Q107.1016,21.2031 106.543,20.9492 Q105.9844,20.6953 105.3906,20.6953 Q104.125,20.6953 103.4805,21.6992 Q102.8359,22.7031 102.8359,24.6797 Q102.8359,26.6484 103.4805,27.6523 Q104.125,28.6563 105.3906,28.6563 Q105.9844,28.6563 106.543,28.4023 Q107.1016,28.1484 107.6953,27.6016 Z "/><text fill="#19273C" font-family="sans-serif" font-size="16" lengthAdjust="spacingAndGlyphs" textLength="48" x="125.75" y="30.5469">Wallet</text><line style="stroke: #E3ECEC; stroke-width: 1.5;" x1="7" x2="260" y1="40.5" y2="40.5"/><line style="stroke: #E3ECEC; stroke-width: 1.5;" x1="7" x2="260" y1="48.5" y2="48.5"/><ellipse cx="17" cy="62.9219" fill="#84BE84" rx="3" ry="3" style="stroke: #038048; stroke-width: 1.0;"/><text fill="#19273C" font-family="sans-serif" font-size="16" lengthAdjust="spacingAndGlyphs" textLength="136" x="26" y="67.9688">Wallet getWallet()</text><ellipse cx="17" cy="81.7656" fill="#84BE84" rx="3" ry="3" style="stroke: #038048; stroke-width: 1.0;"/><text fill="#19273C" font-family="sans-serif" font-size="16" lengthAdjust="spacingAndGlyphs" textLength="167" x="26" y="86.8125">void setWallet(Wallet)</text><ellipse cx="17" cy="100.6094" fill="#84BE84" rx="3" ry="3" style="stroke: #038048; stroke-width: 1.0;"/><text fill="#19273C" font-family="sans-serif" font-size="16" lengthAdjust="spacingAndGlyphs" textLength="102" x="26" y="105.6563">Promise list()</text><ellipse cx="17" cy="119.4531" fill="#84BE84" rx="3" ry="3" style="stroke: #038048; stroke-width: 1.0;"/><text fill="#19273C" font-family="sans-serif" font-size="16" lengthAdjust="spacingAndGlyphs" textLength="190" x="26" y="124.5">Promise contains(string)</text><ellipse cx="17" cy="138.2969" fill="#84BE84" rx="3" ry="3" style="stroke: #038048; stroke-width: 1.0;"/><text fill="#19273C" font-family="sans-serif" font-size="16" lengthAdjust="spacingAndGlyphs" textLength="149" x="26" y="143.3438">Promise get(string)</text><ellipse cx="17" cy="157.1406" fill="#84BE84" rx="3" ry="3" style="stroke: #038048; stroke-width: 1.0;"/><text fill="#19273C" font-family="sans-serif" font-size="16" lengthAdjust="spacingAndGlyphs" textLength="204" x="26" y="162.1875">Promise add(string,string)</text><ellipse cx="17" cy="175.9844" fill="#84BE84" rx="3" ry="3" style="stroke: #038048; stroke-width: 1.0;"/><text fill="#19273C" font-family="sans-serif" font-size="16" lengthAdjust="spacingAndGlyphs" textLength="229" x="26" y="181.0313">Promise update(string,string)</text><ellipse cx="17" cy="194.8281" fill="#84BE84" rx="3" ry="3" style="stroke: #038048; stroke-width: 1.0;"/><text fill="#19273C" font-family="sans-serif" font-size="16" lengthAdjust="spacingAndGlyphs" textLength="182" x="26" y="199.875">Promise remove(string)</text></g></svg>